<?xml version="1.0" encoding="UTF-8"?>
<svg version="1.1" xmlns="http://www.w3.org/2000/svg" width="400" height="200">
<path d="M0 0 C0.71445282 -0.00570007 1.42890564 -0.01140015 2.16500854 -0.01727295 C3.68323276 -0.02674105 5.20147769 -0.03326408 6.71972656 -0.03710938 C9.024465 -0.0467486 11.32828617 -0.07772485 13.6328125 -0.109375 C15.10936972 -0.11591172 16.58593331 -0.12115956 18.0625 -0.125 C18.74506866 -0.1373468 19.42763733 -0.1496936 20.13088989 -0.16241455 C25.16593786 -0.13941254 28.55018211 0.88323286 32.9296875 3.203125 C34.54170741 6.90954958 33.84233576 9.58020795 32.4296875 13.265625 C30.25770136 18.39732465 27.98941912 20.06246932 22.9296875 22.203125 C23.4246875 23.3478125 23.4246875 23.3478125 23.9296875 24.515625 C24.9296875 27.203125 24.9296875 27.203125 24.9296875 30.203125 C20.3096875 30.203125 15.6896875 30.203125 10.9296875 30.203125 C7.9296875 24.203125 7.9296875 24.203125 7.9296875 21.203125 C4.6296875 21.203125 1.3296875 21.203125 -2.0703125 21.203125 C-3.0603125 24.173125 -4.0503125 27.143125 -5.0703125 30.203125 C-9.6903125 30.203125 -14.3103125 30.203125 -19.0703125 30.203125 C-18.27053295 26.20422727 -17.36989122 23.20109031 -15.8203125 19.5 C-15.376875 18.4378125 -14.9334375 17.375625 -14.4765625 16.28125 C-13.78046875 14.63382813 -13.78046875 14.63382813 -13.0703125 12.953125 C-12.60625 11.839375 -12.1421875 10.725625 -11.6640625 9.578125 C-7.66559481 0.04689389 -7.66559481 0.04689389 0 0 Z M3.9296875 7.203125 C2.4446875 10.668125 2.4446875 10.668125 0.9296875 14.203125 C3.36785335 14.2840973 5.80333134 14.34359472 8.2421875 14.390625 C8.93248047 14.41576172 9.62277344 14.44089844 10.33398438 14.46679688 C14.35026838 14.53553321 14.35026838 14.53553321 17.91015625 12.87890625 C19.1895662 11.10289341 19.1895662 11.10289341 18.9296875 8.203125 C15.64449275 7.10806008 13.19305335 7.10351892 9.7421875 7.140625 C8.65550781 7.14964844 7.56882812 7.15867187 6.44921875 7.16796875 C5.61777344 7.17957031 4.78632813 7.19117187 3.9296875 7.203125 Z " fill="#1C1C1B" transform="translate(365.0703125,84.796875)"/>
<path d="M0 0 C4.71391399 -0.074557 9.42747929 -0.12879273 14.1418457 -0.16479492 C15.74314356 -0.17981466 17.34440075 -0.20023663 18.94555664 -0.22631836 C21.25677571 -0.26300438 23.56744756 -0.27979435 25.87890625 -0.29296875 C26.58648575 -0.30845261 27.29406525 -0.32393646 28.02308655 -0.33988953 C33.13453213 -0.34159235 36.5093594 0.77647892 41 3 C41.51448092 9.04515079 40.37320419 13.87886272 37 19 C33.75 21.0625 33.75 21.0625 31 22 C31.66 24.64 32.32 27.28 33 30 C28.05 30 23.1 30 18 30 C17.01 27.36 16.02 24.72 15 22 C12.03 22 9.06 22 6 22 C5.01 24.64 4.02 27.28 3 30 C-1.95 30 -6.9 30 -12 30 C-8 20 -4 10 0 0 Z M12 7 C10.515 10.465 10.515 10.465 9 14 C11.43816585 14.0809723 13.87364384 14.14046972 16.3125 14.1875 C17.00279297 14.21263672 17.69308594 14.23777344 18.40429688 14.26367188 C22.42058088 14.33240821 22.42058088 14.33240821 25.98046875 12.67578125 C27.2598787 10.89976841 27.2598787 10.89976841 27 8 C23.71480525 6.90493508 21.26336585 6.90039392 17.8125 6.9375 C16.72582031 6.94652344 15.63914063 6.95554687 14.51953125 6.96484375 C13.68808594 6.97644531 12.85664063 6.98804687 12 7 Z " fill="#1C1C1B" transform="translate(202,85)"/>
<path d="M0 0 C4.58982793 -0.04964866 9.17949754 -0.08583672 13.76953125 -0.10986328 C15.32912929 -0.11988557 16.8887087 -0.13350705 18.44824219 -0.15087891 C20.69731254 -0.1752941 22.94613322 -0.1865209 25.1953125 -0.1953125 C25.8861795 -0.20563507 26.57704651 -0.21595764 27.28884888 -0.22659302 C32.3736602 -0.22775643 36.46425335 0.73212668 41 3 C41.51073646 9.00115335 40.44137978 13.95264299 37 19 C33.75 20.5625 33.75 20.5625 31 21 C31.66 23.97 32.32 26.94 33 30 C28.05 30 23.1 30 18 30 C17.01 27.36 16.02 24.72 15 22 C12.03 22 9.06 22 6 22 C4.68 24.64 3.36 27.28 2 30 C-2.62 30 -7.24 30 -12 30 C-8 20 -4 10 0 0 Z M10.125 9.3984375 C8.86769628 11.83355443 8.86769628 11.83355443 9 14 C11.43868168 14.1079859 13.87259133 14.18726589 16.3125 14.25 C17.34793945 14.30027344 17.34793945 14.30027344 18.40429688 14.3515625 C22.62621392 14.44683359 22.62621392 14.44683359 25.98046875 12.109375 C27.14505622 10.09035729 27.14505622 10.09035729 27 8 C23.83492089 6.94497363 21.3269448 6.73100559 18 6.625 C16.948125 6.57601562 15.89625 6.52703125 14.8125 6.4765625 C11.79482936 6.71720092 11.79482936 6.71720092 10.125 9.3984375 Z " fill="#1C1C1B" transform="translate(14,85)"/>
<path d="M0 0 C4.71391399 -0.074557 9.42747929 -0.12879273 14.1418457 -0.16479492 C15.74314356 -0.17981466 17.34440075 -0.20023663 18.94555664 -0.22631836 C21.25677571 -0.26300438 23.56744756 -0.27979435 25.87890625 -0.29296875 C26.58648575 -0.30845261 27.29406525 -0.32393646 28.02308655 -0.33988953 C33.1443182 -0.34159561 36.51498896 0.73294215 41 3 C42 4 42 4 42.23046875 6.6171875 C41.95953306 10.59397239 40.8812348 13.46593596 39.3125 17.125 C38.81363281 18.32382813 38.31476563 19.52265625 37.80078125 20.7578125 C34.99755895 25.80482879 31.44113937 28.29210981 26 30 C23.06339319 30.26442235 20.14563516 30.23307597 17.19921875 30.1953125 C15.9446563 30.19106766 15.9446563 30.19106766 14.66474915 30.18673706 C12.00551774 30.1755832 9.34662882 30.15048763 6.6875 30.125 C4.87956217 30.11496399 3.07161904 30.10583923 1.26367188 30.09765625 C-3.15768312 30.07565959 -7.57878358 30.04116294 -12 30 C-8.28723055 19.86229618 -4.35381971 9.88100928 0 0 Z M11 7 C8.03 14.92 8.03 14.92 5 23 C8.83625 23.185625 8.83625 23.185625 12.75 23.375 C13.94834473 23.45693604 13.94834473 23.45693604 15.17089844 23.54052734 C17.4453807 23.64942184 17.4453807 23.64942184 21 23 C23.76474846 19.84028747 25.38851904 16.57329479 26.75 12.625 C27.1625 11.42875 27.575 10.2325 28 9 C24.2632157 6.50881047 22.25548181 6.7934774 17.8125 6.875 C15.564375 6.91625 13.31625 6.9575 11 7 Z " fill="#1C1C1B" transform="translate(267,85)"/>
<path d="M0 0 C1.093125 -0.01160156 2.18625 -0.02320312 3.3125 -0.03515625 C9.32231896 -0.01332882 14.23453665 0.07761595 19.375 3.375 C21.00151583 6.68031254 20.37336332 8.38101215 19.40625 11.93359375 C18.91543471 13.23412968 18.40413231 14.52707697 17.875 15.8125 C17.60453857 16.47975098 17.33407715 17.14700195 17.05541992 17.83447266 C14.69795725 23.29152482 12.33067345 26.19588873 7.375 29.375 C2.04489972 31.15170009 -3.72086419 30.60059948 -9.3034668 30.61523438 C-11.55099352 30.62495026 -13.79760926 30.65598987 -16.04492188 30.6875 C-17.47655708 30.6940296 -18.90819881 30.69928024 -20.33984375 30.703125 C-22.29071899 30.71714355 -22.29071899 30.71714355 -24.28100586 30.73144531 C-27.79331077 30.3570593 -29.23324524 29.93847049 -31.625 27.375 C-32.30822611 22.07999767 -31.1482276 18.44214684 -28.875 13.6875 C-28.36453125 12.59050781 -27.8540625 11.49351563 -27.328125 10.36328125 C-24.23088583 4.92890518 -21.18497617 2.71062063 -15.27832031 0.92871094 C-10.2098914 -0.12899948 -5.15765948 -0.05512938 0 0 Z M-12.625 9.375 C-14.31345775 12.43441418 -14.31345775 12.43441418 -15.4375 16 C-15.85644531 17.18851563 -16.27539062 18.37703125 -16.70703125 19.6015625 C-17.00996094 20.51679687 -17.31289062 21.43203125 -17.625 22.375 C-15.64539491 24.35460509 -11.94753166 23.604944 -9.25 23.625 C-8.56421875 23.645625 -7.8784375 23.66625 -7.171875 23.6875 C-3.27066846 23.7301735 -3.27066846 23.7301735 0.21484375 22.17578125 C1.64078008 19.9624592 2.61754448 17.77083256 3.5625 15.3125 C3.90667969 14.43464844 4.25085938 13.55679688 4.60546875 12.65234375 C5.48170837 10.45984915 5.48170837 10.45984915 5.375 8.375 C2.47973481 7.4099116 0.51705881 7.21042598 -2.5 7.1875 C-3.34304687 7.17332031 -4.18609375 7.15914063 -5.0546875 7.14453125 C-8.0895327 7.41665263 -9.99125139 7.80698052 -12.625 9.375 Z " fill="#1C1C1B" transform="translate(84.625,84.625)"/>
<path d="M0 0 C4.62 0 9.24 0 14 0 C11.125 9.75 11.125 9.75 10 12 C14.48754705 10.81151722 17.49155361 9.03382568 21.10131836 6.26708984 C29.49846871 -0.09915817 35.54305702 -1.33492889 46 0 C44.90109569 3.29671293 44.49567745 3.62009221 41.7265625 5.41015625 C41.0665625 5.84263672 40.4065625 6.27511719 39.7265625 6.72070312 C39.03304687 7.16349609 38.33953125 7.60628906 37.625 8.0625 C36.93921875 8.50916016 36.2534375 8.95582031 35.546875 9.41601562 C34.26754058 10.24857859 32.98602322 11.07780358 31.70166016 11.90258789 C30.12445417 12.91973867 28.56154682 13.95896879 27 15 C28.54545146 20.47932789 31.15543212 25.11429181 34 30 C19.70568717 31.3751061 19.70568717 31.3751061 15.6015625 28.06640625 C13.67958821 25.13656739 12 22.57087851 12 19 C10.02 19 8.04 19 6 19 C5.896875 19.70125 5.79375 20.4025 5.6875 21.125 C5 24 5 24 2 30 C-2.62 30 -7.24 30 -12 30 C-8.2859254 19.85873247 -4.32926333 9.89545905 0 0 Z " fill="#1C1C1B" transform="translate(154,85)"/>
<path d="M0 0 C1.60279192 0.00015914 3.20558896 0.00585476 4.80834961 0.01586914 C5.65038437 0.01728409 6.49241913 0.01869904 7.35997009 0.02015686 C10.06024671 0.02577276 12.76044163 0.03832791 15.46069336 0.05102539 C17.28686404 0.05603834 19.11303602 0.06060161 20.93920898 0.06469727 C25.42556878 0.07574735 29.9118672 0.0930226 34.39819336 0.11352539 C33.73819336 2.42352539 33.07819336 4.73352539 32.39819336 7.11352539 C20.02319336 7.60852539 20.02319336 7.60852539 7.39819336 8.11352539 C7.06819336 9.10352539 6.73819336 10.09352539 6.39819336 11.11352539 C12.66819336 11.44352539 18.93819336 11.77352539 25.39819336 12.11352539 C24.39819336 17.11352539 24.39819336 17.11352539 23.39819336 19.11352539 C13.00319336 19.60852539 13.00319336 19.60852539 2.39819336 20.11352539 C2.06819336 21.10352539 1.73819336 22.09352539 1.39819336 23.11352539 C8.98819336 23.11352539 16.57819336 23.11352539 24.39819336 23.11352539 C23.39819336 29.11352539 23.39819336 29.11352539 22.39819336 30.11352539 C19.58655956 30.20214531 16.79961081 30.22874894 13.98803711 30.21118164 C13.14600235 30.20976669 12.30396759 30.20835175 11.43641663 30.20689392 C8.73614001 30.20127802 6.03594508 30.18872287 3.33569336 30.17602539 C1.50952268 30.17101244 -0.3166493 30.16644918 -2.14282227 30.16235352 C-6.62918206 30.15130343 -11.11548048 30.13402818 -15.60180664 30.11352539 C-14.96140732 26.29375227 -13.84615829 22.97958364 -12.35180664 19.41040039 C-11.90836914 18.34821289 -11.46493164 17.28602539 -11.00805664 16.19165039 C-10.31196289 14.54422852 -10.31196289 14.54422852 -9.60180664 12.86352539 C-9.13774414 11.74977539 -8.67368164 10.63602539 -8.19555664 9.48852539 C-4.2714847 0.13463298 -4.2714847 0.13463298 0 0 Z " fill="#1C1C1B" transform="translate(319.601806640625,84.886474609375)"/>
<path d="M0 0 C0.66022156 0.00141495 1.32044312 0.0028299 2.00067139 0.00428772 C4.09945294 0.0098638 6.19812595 0.02241178 8.296875 0.03515625 C9.72395679 0.04017435 11.15104025 0.04473671 12.578125 0.04882812 C16.06774332 0.05982537 19.55729856 0.07707345 23.046875 0.09765625 C22.171875 5.84765625 22.171875 5.84765625 21.046875 8.09765625 C8.671875 8.59265625 8.671875 8.59265625 -3.953125 9.09765625 C-8.0408308 16.39600983 -8.0408308 16.39600983 -8.953125 22.09765625 C-1.363125 22.42765625 6.226875 22.75765625 14.046875 23.09765625 C13.386875 25.40765625 12.726875 27.71765625 12.046875 30.09765625 C-16.46063429 32.55747215 -16.46063429 32.55747215 -23.953125 28.09765625 C-24.953125 27.09765625 -24.953125 27.09765625 -25.20703125 24.54296875 C-24.88874786 20.22410796 -23.60497931 16.91311244 -21.890625 12.97265625 C-21.47780273 11.91884766 -21.47780273 11.91884766 -21.05664062 10.84375 C-18.73205408 5.43844766 -16.31794868 3.5019585 -10.953125 1.09765625 C-7.30918254 -0.11134094 -3.81912199 -0.01618272 0 0 Z " fill="#1C1C1B" transform="translate(126.953125,84.90234375)"/>
<path d="M0 0 C1.93166016 0.01740234 1.93166016 0.01740234 3.90234375 0.03515625 C5.19269531 0.04417969 6.48304688 0.05320312 7.8125 0.0625 C8.81152344 0.07410156 9.81054688 0.08570312 10.83984375 0.09765625 C8.65958085 6.97712657 6.0373034 13.54821523 3.15234375 20.16015625 C2.73662109 21.12115234 2.32089844 22.08214844 1.89257812 23.07226562 C0.87833797 25.41551012 -0.14043686 27.75679098 -1.16015625 30.09765625 C-5.78015625 30.09765625 -10.40015625 30.09765625 -15.16015625 30.09765625 C-13.02453296 23.48931248 -10.62877081 17.03894077 -8.03515625 10.59765625 C-7.67550781 9.69273438 -7.31585938 8.7878125 -6.9453125 7.85546875 C-6.42904297 6.56769531 -6.42904297 6.56769531 -5.90234375 5.25390625 C-5.43610596 4.09084961 -5.43610596 4.09084961 -4.96044922 2.90429688 C-3.62433186 -0.11195343 -3.56464567 0.11015592 0 0 Z " fill="#1C1C1B" transform="translate(253.16015625,84.90234375)"/>
</svg>
