<?xml version="1.0" encoding="UTF-8"?>
<svg version="1.1" xmlns="http://www.w3.org/2000/svg" width="3739" height="1104">
<path d="M0 0 C4.01175238 2.539307 7.98240843 2.15384561 12.5625 2 C22.12029321 1.72662656 28.15299343 3.83720941 35.39355469 10.19140625 C38.48058388 13.41598496 40.24813619 17.20245082 42.1875 21.1875 C43.20403567 23.20592634 44.22100383 25.22413489 45.23828125 27.2421875 C46.1192749 29.00900879 46.1192749 29.00900879 47.01806641 30.81152344 C49.56605409 35.89938072 52.18255067 40.9517917 54.79296875 46.0078125 C56.31180328 48.95457044 57.83007334 51.90161843 59.34811401 54.8487854 C60.3670923 56.82664155 61.38672674 58.80415978 62.40701294 60.78134155 C63.85360099 63.587804 65.29469455 66.39702038 66.734375 69.20703125 C67.17754562 70.06438873 67.62071625 70.92174622 68.07731628 71.80508423 C68.47944839 72.5923288 68.88158051 73.37957336 69.29589844 74.19067383 C69.65053162 74.88075027 70.00516479 75.57082672 70.37054443 76.28181458 C71.125 78 71.125 78 71.125 80 C71.785 80 72.445 80 73.125 80 C73.22296875 79.1440625 73.3209375 78.288125 73.421875 77.40625 C75.23520337 68.62168145 81.00518944 58.67097528 88.375 53.38671875 C96.58388659 48.14354271 104.86793929 45.45618429 114.640625 47.53515625 C122.02789294 49.55891379 127.80190838 52.4408265 132.125 59 C137.46022582 69.48647834 133.87651644 81.36775027 132.015625 92.50390625 C131.69834206 94.44171718 131.38106514 96.37952911 131.06406689 98.31738663 C130.73124794 100.34746744 130.39632708 102.37719141 130.06082153 104.40682983 C128.90683731 111.39155521 127.77074429 118.37919792 126.63671875 125.3671875 C126.5252696 126.0533357 126.41382046 126.73948391 126.29899406 127.44642448 C124.47683493 138.67727148 122.75655365 149.91848624 121.1875 161.1875 C121.09170654 161.87424805 120.99591309 162.56099609 120.8972168 163.26855469 C120.46060395 166.40309469 120.02598842 169.53790774 119.59228516 172.67285156 C118.89430826 177.64256379 118.14858243 182.60404159 117.375 187.5625 C117.25906494 188.32006592 117.14312988 189.07763184 117.02368164 189.8581543 C116.24659698 194.75680604 116.24659698 194.75680604 115.125 197 C115.97191406 197.23332031 116.81882812 197.46664062 117.69140625 197.70703125 C121.65879122 199.2010067 124.66718246 201.19398399 128.0625 203.6875 C128.6814917 204.13883301 129.3004834 204.59016602 129.93823242 205.05517578 C149.73655577 219.71653804 158.14071704 240.16381051 162.85546875 263.63671875 C164.11820729 269.73612856 165.41160433 272.89665452 170.09765625 276.98828125 C178.14418149 284.97279088 183.33361272 296.47332474 187.125 307 C187.125 307.66 187.125 308.32 187.125 309 C187.82882812 309.03738281 188.53265625 309.07476563 189.2578125 309.11328125 C195.08998834 309.50158539 200.5112932 310.27001631 206.1875 311.6875 C212.77582285 313.19444235 217.66577148 312.65517731 224.125 311 C239.20147483 308.15761669 256.38772705 308.76239066 271.125 313 C272.32511719 313.32871094 273.52523438 313.65742187 274.76171875 313.99609375 C283.6032659 316.66611164 291.39800518 320.54056474 299.4453125 325.01171875 C300.09024658 325.35936279 300.73518066 325.70700684 301.3996582 326.06518555 C302.77594781 326.81087862 304.13529826 327.58780989 305.48828125 328.375 C309.84786115 329.4083819 313.85700657 328.20748584 318.1875 327.3125 C339.66148251 323.24677771 361.29637152 321.54844278 383.125 321 C382.568125 320.33097656 382.01125 319.66195313 381.4375 318.97265625 C365.46034292 298.8662677 360.00731631 276.44341225 362.125 251 C362.8730056 245.46475853 364.30945492 240.28591486 366.125 235 C366.48722656 233.9378125 366.84945313 232.875625 367.22265625 231.78125 C371.76855434 219.82322655 379.78439864 207.33556907 390.08203125 199.51342773 C396.02975037 194.88749948 397.63803222 190.95499935 399.125 183.6875 C406.80068366 151.53936184 426.29342164 123.84881594 454.125 106 C460.70340555 102.02717819 467.4116662 98.51604432 474.6875 96 C479.2021036 94.31721672 480.90505711 92.01571525 483.52734375 88.0859375 C490.62429255 78.81999456 504.19715932 74.14422345 515.3515625 72.28515625 C531.16130044 70.65964798 546.81999619 72.51084706 560.125 82 C565.6427405 86.73831142 570.25327755 91.22568038 573.125 98 C573.125 98.99 573.125 99.98 573.125 101 C574.01058594 101.27070313 574.89617188 101.54140625 575.80859375 101.8203125 C595.1849015 108.71270937 611.42830477 129.07457643 620.125 147 C624.72702969 157.6838897 628.22932348 168.50928386 630.125 180 C630.29829834 181.04019287 630.47159668 182.08038574 630.65014648 183.15209961 C631.16890581 187.3557838 631.24214853 191.41675644 631.23046875 195.64453125 C631.24392492 197.30795568 631.25894809 198.97136804 631.27539062 200.63476562 C631.29816397 203.22186648 631.31252368 205.80758794 631.30004883 208.39477539 C631.26304804 218.88199788 631.44430236 226.41622849 638.125 235 C648.58968464 255.18568611 651.03302289 281.57286726 644.515625 303.328125 C640.32909156 314.38245488 635.16409223 324.22711639 627.125 333 C626.56167969 333.63164063 625.99835937 334.26328125 625.41796875 334.9140625 C617.02465959 343.83809612 606.06076551 349.73716285 595.125 355 C594.465 355 593.805 355 593.125 355 C593.125 356.32 593.125 357.64 593.125 359 C593.66374756 359.15855469 594.20249512 359.31710937 594.75756836 359.48046875 C600.80399235 361.36391974 606.17022367 363.91117524 611.6875 367 C612.5522998 367.48057861 613.41709961 367.96115723 614.30810547 368.45629883 C629.40160546 376.98228159 643.13406404 387.19028294 655.80078125 399.01953125 C660.54773825 403.0644173 664.26371271 404.40039273 670.4375 405.3125 C697.51417213 409.85604882 721.95096901 426.14560909 737.9375 448.3125 C749.78978904 466.42801701 757.89386786 487.13257905 756.95703125 509.109375 C756.45798054 521.30444057 758.04555301 528.68958477 764.15917969 539.20068359 C770.48310618 550.9821139 771.125 565.04115965 771.125 578 C1411.655 578 2052.185 578 2712.125 578 C2709.87490102 588.12544539 2709.87490102 588.12544539 2708.26147461 592.39624023 C2707.90447983 593.35010117 2707.54748505 594.3039621 2707.17967224 595.28672791 C2706.79940384 596.28394363 2706.41913544 597.28115936 2706.02734375 598.30859375 C2705.63301651 599.35652603 2705.23868927 600.40445831 2704.83241272 601.48414612 C2703.5814326 604.80409838 2702.32196953 608.12076037 2701.0625 611.4375 C2700.21235858 613.69185672 2699.36274389 615.94641216 2698.51367188 618.20117188 C2696.96520641 622.30511271 2695.41631883 626.40888144 2693.85913086 630.50952148 C2693.54761581 631.33064926 2693.23610077 632.15177704 2692.91514587 632.99778748 C2692.125 635 2692.125 635 2691.125 637 C1822.235 637 953.345 637 58.125 637 C65.02116128 617.29668207 72.07197492 597.64771272 79.125 578 C144.96 577.505 144.96 577.505 212.125 577 C210.64 571.06 210.64 571.06 209.125 565 C208.15316755 559.07405616 207.97165178 553.29869876 208 547.3125 C207.99613281 546.48427734 207.99226563 545.65605469 207.98828125 544.80273438 C207.99479035 540.73780074 208.10744068 536.96525101 209.125 533 C208.58875 532.87625 208.0525 532.7525 207.5 532.625 C193.80636861 529.02141279 181.14239426 522.01739426 171.125 512 C169.170152 511.3758785 169.170152 511.3758785 166.8984375 510.95703125 C166.03919678 510.77422607 165.17995605 510.5914209 164.29467773 510.40307617 C162.91131226 510.11074097 162.91131226 510.11074097 161.5 509.8125 C142.45346649 505.50684976 121.75975355 496.78061282 110.4375 480.02734375 C107.03100785 475.40294771 103.2235418 473.67823992 98 471.5625 C79.52116007 463.40638326 63.68964623 449.60331996 55.1875 431 C54.125 428 54.125 428 54.125 425 C53.25359375 424.75378906 52.3821875 424.50757813 51.484375 424.25390625 C33.62148654 417.58647928 17.23939821 397.54700811 9.125 381 C2.5553149 366.49711026 -0.08182314 352.72909006 0.375 336.875 C0.59900746 327.74439923 -0.24973646 322.24284742 -4.9921875 314.3515625 C-14.70675692 297.05882274 -16.45432401 273.27494756 -11.8515625 254.3046875 C-9.01624502 244.70997315 -4.44858676 235.86427126 0.125 227 C-0.45765625 226.23300781 -1.0403125 225.46601563 -1.640625 224.67578125 C-29.81983079 186.85447771 -65.5449783 119.26674384 -59.125 71.0625 C-58.33487651 66.53427501 -57.01496491 63.07612364 -54.875 59 C-55.16066879 56.64934822 -55.16066879 56.64934822 -55.875 54 C-56.69999825 45.76474962 -55.36077428 38.56611111 -50.26171875 31.88671875 C-46.83809465 28.22017675 -43.88828836 26.10047793 -38.875 25 C-38.84921875 24.3709375 -38.8234375 23.741875 -38.796875 23.09375 C-38.27070748 15.15340372 -36.56808096 9.20995194 -30.625 3.6875 C-22.6564765 -2.45629858 -9.05474116 -5.75652096 0 0 Z " fill="#000000" transform="translate(291.875,235)"/>
<path d="M0 0 C3.77208668 2.50221339 6.47253279 5.20879919 9 9 C9.125 11.6875 9.125 11.6875 9 14 C7.68 14 6.36 14 5 14 C7.3440212 17.5160318 8.56903923 17.84862213 12.4375 19.3125 C24.34734977 24.1247039 32.98707998 30.00002958 42 39 C42.6703125 39.65871094 43.340625 40.31742187 44.03125 40.99609375 C62.14986769 60.14417835 66.21014261 86.32675656 66.0625 111.5625 C66.0574746 113.06314955 66.05291353 114.56380072 66.04882812 116.06445312 C66.03790576 119.70966977 66.02069856 123.35482422 66 127 C64.68 127.33 63.36 127.66 62 128 C63.81681164 131.31300946 65.92338795 134.15539463 68.3125 137.0625 C81.46408072 153.84880028 85.00010113 174.89821789 82.57421875 195.640625 C79.32452354 211.82929069 70.43621618 224.96244736 57.3125 234.75 C44.07647329 243.36392214 25.00648895 254 9 254 C12.46025073 257.78979842 15.4588562 258.09399037 20.49804688 258.34570312 C21.87808016 258.40706695 23.25830135 258.46433712 24.63867188 258.51757812 C29.78526139 258.78526139 29.78526139 258.78526139 32 261 C32.5152954 264.77883293 32.17385849 266.67234362 30.375 270.0625 C27.77251597 273.28136182 25.32273795 275.54406325 22 278 C21.34 278 20.68 278 20 278 C20 278.66 20 279.32 20 280 C20.90878906 279.85820313 21.81757812 279.71640625 22.75390625 279.5703125 C46.18555853 276.83061162 68.0862422 294.50397836 85.8125 308.16796875 C96.24035906 316.48903652 106.65442714 325.54871547 115 336 C116.11375 337.33998047 116.11375 337.33998047 117.25 338.70703125 C132.59581043 357.76940515 146.19456224 380.8600005 144 406 C142.44205505 412.7279406 137.57750008 417.22644384 132 421 C114.99827798 430.82668337 92.38768846 428.36892557 73.47177124 428.31805801 C71.35056482 428.31243523 69.22936634 428.3096033 67.1081543 428.30697632 C48.23532139 428.27298072 29.55426608 427.99812075 10.81884766 425.50488281 C7.25240673 425.03337023 3.68395705 424.60264924 0.11099243 424.18469238 C-30.39938276 420.60971931 -60.59954264 415.78301114 -90.52490234 408.80175781 C-94.32032949 407.92609512 -98.12208726 407.08098573 -101.92578125 406.2421875 C-128.12110001 400.45336219 -128.12110001 400.45336219 -140.64648438 396.69970703 C-143.32633773 395.90297884 -146.01480209 395.13874356 -148.703125 394.37109375 C-167.28914068 388.95580133 -186.63667997 382.68166001 -204 374 C-203.12863268 369.16302224 -201.64538435 364.60622571 -200.1328125 359.9375 C-199.74603392 358.62767425 -199.36992763 357.31468426 -199 356 C-198.61074341 354.6238855 -198.61074341 354.6238855 -198.21362305 353.2199707 C-195.96571807 344.52248797 -195.48292729 336.11703316 -195.5625 327.1875 C-195.56487671 326.48411499 -195.56725342 325.78072998 -195.56970215 325.05603027 C-195.62548344 314.50736756 -196.44993895 305.00919991 -200 295 C-200.28875 293.99453125 -200.5775 292.9890625 -200.875 291.953125 C-204.62274369 279.30449003 -210.80793192 267.82618076 -219.01953125 257.55078125 C-220.90550137 255.12171125 -222.44354613 252.64710364 -224 250 C-205.0204748 247.00555947 -186.22880436 244.71748255 -167 244.625 C-165.99240128 244.61348907 -165.99240128 244.61348907 -164.96444702 244.60174561 C-151.58064368 244.47895277 -142.13649024 246.41169981 -131.3125 254.375 C-129.72631285 255.50928567 -128.1390837 256.64211572 -126.55078125 257.7734375 C-125.78846191 258.31709961 -125.02614258 258.86076172 -124.24072266 259.42089844 C-116.8020696 264.82390294 -116.8020696 264.82390294 -108 267 C-108.63808594 266.28714844 -109.27617188 265.57429688 -109.93359375 264.83984375 C-110.75988281 263.88207031 -111.58617187 262.92429687 -112.4375 261.9375 C-113.26121094 260.99777344 -114.08492187 260.05804687 -114.93359375 259.08984375 C-117.28386017 255.57555124 -117.88394092 253.20335712 -118 249 C-116 247 -116 247 -112.9609375 246.75 C-107.54389466 247.09190408 -102.47000219 248.32087045 -97.203125 249.578125 C-91.66964186 250.83166487 -86.67609872 251.18199916 -81 251 C-82.17691406 250.68289063 -83.35382813 250.36578125 -84.56640625 250.0390625 C-114.45740715 241.69574532 -144.45251097 228.558556 -160.359375 200.36328125 C-168.44889526 183.77976472 -170.78431738 165.45204282 -165.37890625 147.69140625 C-159.42885514 131.76279917 -149.19192928 116.81979387 -133.46484375 109.3125 C-123.80548483 105 -123.80548483 105 -121 105 C-121.79299706 102.82961523 -121.79299706 102.82961523 -123.84765625 102.3671875 C-124.57855469 102.20476562 -125.30945313 102.04234375 -126.0625 101.875 C-126.79597656 101.70742188 -127.52945313 101.53984375 -128.28515625 101.3671875 C-128.85105469 101.24601562 -129.41695312 101.12484375 -130 101 C-131.63396954 80.89309707 -118.78461023 61.14077055 -106.6640625 46.1015625 C-90.29792556 27.19311302 -66.62854152 14.88261713 -42 11 C-42 10.34 -42 9.68 -42 9 C-44.31 8.34 -46.62 7.68 -49 7 C-48.8203125 5.1953125 -48.8203125 5.1953125 -48 3 C-45.7421875 1.3671875 -45.7421875 1.3671875 -42.875 -0.125 C-41.94429687 -0.62257813 -41.01359375 -1.12015625 -40.0546875 -1.6328125 C-26.81343309 -7.55920514 -12.7719044 -6.36110414 0 0 Z " fill="#FEFEFE" transform="translate(839,330)"/>
<path d="M0 0 C1.15793564 -0.0071553 2.31587128 -0.01431061 3.50889587 -0.02168274 C4.79091385 -0.02437164 6.07293182 -0.02706055 7.39379883 -0.02983093 C8.74878617 -0.03609315 10.10377178 -0.04273973 11.45875549 -0.04974365 C15.15132557 -0.06718482 18.84388266 -0.07771552 22.53648376 -0.08594918 C24.844678 -0.09109651 27.15286819 -0.0971726 29.46105957 -0.10346031 C36.68575905 -0.12252765 43.91044825 -0.13675117 51.13516808 -0.14507228 C59.468203 -0.15482827 67.80097111 -0.18109814 76.13391209 -0.22157317 C82.5764847 -0.25178843 89.01898113 -0.26654657 95.46162319 -0.26985329 C99.30789954 -0.27219915 103.15389139 -0.28109733 107.00009155 -0.30631447 C110.62481683 -0.32969289 114.24907239 -0.33378968 117.87385368 -0.32355309 C119.82712212 -0.32282596 121.78036721 -0.3418521 123.73353577 -0.36161804 C132.10621702 -0.31236887 138.50095436 0.84732842 145.15161133 6.11982727 C156.9065526 19.58640882 156.45381815 35.76254035 155.45385742 52.69398499 C154.84432513 61.38250586 154.10085678 70.0598579 153.34552002 78.73670959 C152.86217186 84.30258102 152.39140293 89.86951174 151.92424011 95.43676186 C151.76172997 97.35403104 151.59377452 99.27083624 151.42565918 101.18762207 C150.8852863 107.5361064 150.54371958 113.77577634 150.66333008 120.14717102 C151.01967026 119.57938934 151.37601044 119.01160767 151.7431488 118.42662048 C159.30187981 106.39188979 167.04864235 94.4954988 174.95458984 82.68684387 C184.91987458 67.80082497 194.79429474 52.85431899 204.60538006 37.86618805 C205.77437872 36.09837272 206.95769537 34.33986421 208.16092205 32.59516525 C211.41088832 27.8355511 214.19662874 23.1654454 216.58135986 17.91374207 C220.47051061 9.96798594 224.57155644 2.03243036 233.26186371 -1.18520737 C243.1365594 -3.40286772 253.5606445 -2.68666616 263.59428787 -2.28628349 C268.03494487 -2.13490953 272.47610673 -2.12205469 276.91894531 -2.09367371 C285.30856683 -2.01944729 293.69056692 -1.82308492 302.07684994 -1.58128595 C311.63339201 -1.31180562 321.19032408 -1.18077838 330.74972725 -1.06059551 C350.39182895 -0.81058773 370.02709732 -0.38924166 389.66333008 0.14717102 C389.10662197 3.61284056 388.5537874 6.85561075 387.32250977 10.1464386 C386.9124897 11.25468994 386.9124897 11.25468994 386.4941864 12.3853302 C386.04424065 13.57648438 386.04424065 13.57648438 385.58520508 14.79170227 C385.26675125 15.64824402 384.94829742 16.50478577 384.62019348 17.38728333 C383.92406252 19.25772502 383.22545716 21.12724723 382.52468872 22.99595642 C381.38895918 26.02466208 380.25956692 29.05566418 379.13183594 32.08735657 C377.92055945 35.34334463 376.70884355 38.59916301 375.495224 41.85427856 C371.15036408 53.50870351 366.85008999 65.17944011 362.55383301 76.85185242 C361.21491748 80.48931754 359.8752502 84.12650503 358.53540039 87.7636261 C353.26726819 102.06574026 348.00714384 116.37078123 342.75354004 130.67823792 C339.79934068 138.72331233 336.84389608 146.76792938 333.8883667 154.81251526 C332.80906985 157.75045473 331.72997263 160.68846746 330.65091133 163.62649345 C328.29107215 170.05155806 325.92982536 176.47610299 323.56662178 182.89993095 C322.42197352 186.01148985 321.27804629 189.12330858 320.13525391 192.23554993 C318.86104708 195.70537543 317.58468029 199.17439976 316.30786133 202.64326477 C315.94183304 203.64147751 315.57580475 204.63969025 315.19868469 205.66815186 C311.80422588 214.87812668 308.22310548 223.99346285 304.66333008 233.14717102 C270.34333008 233.14717102 236.02333008 233.14717102 200.66333008 233.14717102 C202.69382624 226.37885049 204.80723292 219.78186926 207.26098633 213.17451477 C207.60709961 212.23489899 207.95321289 211.2952832 208.30981445 210.32719421 C209.44572171 207.24532531 210.58578545 204.16501155 211.72583008 201.08467102 C212.53205136 198.89948377 213.33795375 196.71417884 214.14355469 194.52876282 C215.81691456 189.98998859 217.49164356 185.45172293 219.16723633 180.91377258 C221.53755944 174.49154643 223.89911358 168.06613043 226.25708008 161.63935852 C226.62817398 160.62803864 226.99926788 159.61671875 227.38160706 158.57475281 C228.49641679 155.53641742 229.61112633 152.49804529 230.72583008 149.45967102 C235.32042551 136.93609131 239.92894235 124.41794852 244.57348633 111.91279602 C245.37225656 109.76005408 246.17100367 107.60730357 246.96972656 105.45454407 C248.48773971 101.36349962 250.0100283 97.27407991 251.53466797 93.1855011 C252.21572964 91.3511668 252.89664618 89.5167786 253.57739258 87.68232727 C253.89204971 86.84216064 254.20670685 86.00199402 254.53089905 85.1363678 C256.0934182 81.24708523 256.0934182 81.24708523 256.66333008 77.14717102 C255.70970581 78.58153503 255.70970581 78.58153503 254.73681641 80.0448761 C241.11224685 100.53245654 227.42849633 120.97860943 213.65823364 141.36857605 C206.88251269 151.40176778 200.11256912 161.43768301 193.41333008 171.52217102 C186.5664573 181.82611295 179.65020792 192.08270993 172.72583008 202.33467102 C171.92514099 203.52090057 171.92514099 203.52090057 171.10827637 204.73109436 C169.5558924 207.03053838 168.00237505 209.32921241 166.44848633 211.62763977 C165.99895096 212.29358658 165.54941559 212.95953339 165.08625793 213.6456604 C164.15868545 215.01641069 163.21103887 216.37373815 162.24635315 217.71862793 C160.53144788 220.23530919 160.53144788 220.23530919 159.03819275 223.52651978 C156.78279135 227.92744604 154.50841967 232.1616661 149.61289787 233.85741615 C143.34234019 234.9970128 136.99791635 234.63741107 130.65942383 234.41670227 C128.60968374 234.39242904 126.55986777 234.37393657 124.51002502 234.36096191 C119.13708049 234.3115267 113.76876855 234.18403029 108.39764404 234.03981018 C102.90806758 233.90636921 97.41773576 233.84735531 91.92700195 233.78193665 C81.17041863 233.64287565 70.41726079 233.4212701 59.66333008 233.14717102 C60.94736938 213.30563823 62.35999349 193.47716453 63.88540888 173.65264177 C64.16141022 170.06141306 64.43568558 166.47005245 64.71017456 162.87870789 C65.22601142 156.13287524 65.74331283 149.38715582 66.26119411 142.64147985 C66.85249546 134.93848177 67.4420824 127.23535273 68.03155351 119.5322144 C69.24029135 103.73705758 70.45109062 87.94205952 71.66333008 72.14717102 C71.37509149 72.94650291 71.37509149 72.94650291 71.08102989 73.76198292 C53.78769797 121.71237369 53.78769797 121.71237369 46.34451294 141.52293396 C38.36761427 162.75878472 30.55166206 184.05191179 22.80444336 205.37251282 C22.42212051 206.42298798 22.03979767 207.47346313 21.64588928 208.55577087 C20.93861866 210.49933009 20.2326385 212.44335968 19.52830505 214.38798523 C13.29252675 231.51797435 13.29252675 231.51797435 11.66333008 233.14717102 C10.32260191 233.24244139 8.97690504 233.26905872 7.63279724 233.26742554 C6.76476471 233.2688002 5.89673218 233.27017487 5.00239563 233.27159119 C4.04286484 233.26799591 3.08333405 233.26440063 2.09472656 233.26069641 C1.08996277 233.26084244 0.08519897 233.26098846 -0.95001221 233.26113892 C-4.2885551 233.26043932 -7.62704297 233.25264476 -10.96557617 233.24482727 C-13.2734321 233.24296326 -15.58128843 233.24153928 -17.8891449 233.24053955 C-23.97684818 233.23671306 -30.06452778 233.22688167 -36.15222168 233.21583557 C-42.35888346 233.20562425 -48.56554905 233.20104253 -54.7722168 233.19599915 C-66.96037827 233.18525952 -79.14852213 233.16818154 -91.33666992 233.14717102 C-87.36701356 221.74881196 -83.36674928 210.36512148 -79.21948242 199.02998352 C-78.76044867 197.77253127 -78.30151322 196.51504314 -77.84266663 195.25752258 C-76.63363639 191.9452884 -75.42282218 188.63370938 -74.211483 185.32231903 C-73.4503706 183.24127626 -72.68978333 181.16004227 -71.92935181 179.07875061 C-64.8178058 159.61534264 -57.66984705 140.16570032 -50.47314453 120.7335968 C-45.84240414 108.22948528 -41.23598527 95.71665569 -36.64367676 83.19837952 C-29.99077561 65.06594134 -23.32413648 46.9385401 -16.63076782 28.82099915 C-15.72938632 26.37995106 -14.82896869 23.93854682 -13.92953491 21.4967804 C-12.68116862 18.10842829 -11.42931117 14.72138679 -10.17651367 11.33467102 C-9.61380768 9.80411072 -9.61380768 9.80411072 -9.03973389 8.24263 C-8.69678284 7.31780823 -8.35383179 6.39298645 -8.00048828 5.44013977 C-7.55230995 4.22620544 -7.55230995 4.22620544 -7.09507751 2.98774719 C-5.5837065 -0.68019272 -3.76128987 0.01587657 0 0 Z M257.66333008 74.14717102 C258.66333008 76.14717102 258.66333008 76.14717102 258.66333008 76.14717102 Z " fill="#000000" transform="translate(1197.336669921875,464.8528289794922)"/>
<path d="M0 0 C17.78562004 -0.14049484 35.571095 -0.24612929 53.35715103 -0.31087303 C61.61654521 -0.34174095 69.87559352 -0.38378499 78.13476562 -0.45263672 C85.33797633 -0.51265664 92.54093641 -0.55120044 99.74439025 -0.56453097 C103.55464334 -0.57231691 107.3641798 -0.59046456 111.17420197 -0.63438034 C114.76950107 -0.67548057 118.36379689 -0.68759523 121.95930862 -0.67864609 C123.88943622 -0.68105225 125.81945761 -0.71314391 127.7492981 -0.746521 C137.1777344 -0.68048638 145.01546036 1.65851744 152.23572159 7.94729042 C160.89019463 16.79028331 162.1965672 28.06568919 162.1875 39.83984375 C162.18669434 40.96438461 162.18588867 42.08892548 162.18505859 43.24754333 C162.0745306 59.5017276 161.05245404 75.72719478 160.14575195 91.95220947 C159.75906185 98.87749233 159.37997717 105.80316467 159.00872803 112.72929192 C158.87982258 115.10261602 158.74514173 117.475558 158.60986328 119.848526 C158.05463996 129.9085296 157.89979259 139.92552657 158 150 C158.20028305 149.45068817 158.4005661 148.90137634 158.60691833 148.3354187 C167.54929112 123.81196531 176.50132953 99.29235114 185.5625 74.8125 C191.72871204 58.15329245 197.87398439 41.48653467 204 24.8125 C204.59677048 23.18896103 204.59677048 23.18896103 205.20559692 21.53262329 C206.32507613 18.48678021 207.44391217 15.44070178 208.5625 12.39453125 C208.89704697 11.48437256 209.23159393 10.57421387 209.57627869 9.63647461 C209.88239578 8.80229004 210.18851288 7.96810547 210.50390625 7.10864258 C210.77017822 6.3835701 211.0364502 5.65849762 211.31079102 4.91145325 C211.89802631 3.28281399 212.45252296 1.64243112 213 0 C244.68 0 276.36 0 309 0 C305.62512803 11.24957323 305.62512803 11.24957323 304.06494141 15.46313477 C303.53503098 16.90125267 303.53503098 16.90125267 302.99441528 18.36842346 C302.61727386 19.38250778 302.24013245 20.3965921 301.8515625 21.44140625 C301.44710907 22.53658066 301.04265564 23.63175507 300.62594604 24.76011658 C299.29508294 28.36194794 297.96001274 31.96220486 296.625 35.5625 C295.68095531 38.11433018 294.73790252 40.66652646 293.79492188 43.21875 C292.08315564 47.85094454 290.37044197 52.48278645 288.65646744 57.11416435 C284.3564929 68.73369283 280.07459212 80.3598647 275.79382324 91.98648071 C274.05370831 96.71195416 272.31247327 101.43701458 270.57128906 106.16209412 C266.60441264 116.92726951 262.64063731 127.69358011 258.6796875 138.4609375 C250.32307573 161.17430021 241.9538222 183.88299953 233.52423096 206.56939697 C232.67952484 208.8435933 231.83572359 211.11812594 230.99285889 213.39300537 C229.83649316 216.51301975 228.67659741 219.63169739 227.515625 222.75 C227.00006546 224.1438945 227.00006546 224.1438945 226.47409058 225.56594849 C226.16069733 226.40527924 225.84730408 227.24460999 225.52441406 228.109375 C225.11645599 229.20717285 225.11645599 229.20717285 224.70025635 230.32714844 C224 232 224 232 223 233 C220.93705722 233.09681822 218.87073958 233.12186923 216.80552673 233.12025452 C216.15130393 233.12110894 215.49708113 233.12196337 214.82303339 233.12284368 C212.61498657 233.12450028 210.40701452 233.11897421 208.19897461 233.11352539 C206.62249249 233.11324353 205.04601024 233.11340123 203.4695282 233.1139679 C199.17632451 233.11425592 194.88314851 233.1083584 190.58995128 233.10139394 C186.10827317 233.09516121 181.62659449 233.09455667 177.14491272 233.09336853 C168.65219091 233.09025497 160.15948191 233.08204126 151.66676575 233.07201904 C142.00066461 233.06085866 132.33456288 233.05534764 122.66845691 233.05032361 C102.77896412 233.03985866 82.88948286 233.02225875 63 233 C63.94420448 207.12159099 64.91021566 181.24475056 66.0703125 155.375 C66.1138662 154.40178802 66.15741989 153.42857605 66.2022934 152.4258728 C66.59781441 143.59997641 66.99848313 134.7743158 67.40087891 125.94873047 C67.6260815 121.00533678 67.84843965 116.06182133 68.06914902 111.1182251 C68.19101936 108.40797426 68.31616219 105.69788821 68.44143677 102.98779297 C68.84828095 93.98268123 69.11782736 85.01639867 69 76 C68.58451904 77.15669189 68.16903809 78.31338379 67.7409668 79.50512695 C59.11608482 103.50057397 50.38285694 127.45140117 41.4480896 151.33328247 C34.21098884 170.68037421 27.10198466 190.07254104 20.05322266 209.48901367 C19.47702682 211.0728611 19.47702682 211.0728611 18.88919067 212.68870544 C18.17496311 214.65207876 17.46233651 216.61603558 16.75167847 218.58070374 C16.4320816 219.45867111 16.11248474 220.33663849 15.78320312 221.24121094 C15.37285828 222.37281647 15.37285828 222.37281647 14.95422363 223.52728271 C13.72235454 226.71947361 12.34784795 229.85502145 11 233 C-20.68 233 -52.36 233 -85 233 C-84.24620924 229.23104618 -83.41372444 226.11605298 -82.10839844 222.55371094 C-81.71495743 221.474534 -81.32151642 220.39535706 -80.91615295 219.28347778 C-80.48491623 218.11227386 -80.0536795 216.94106995 -79.609375 215.734375 C-78.93152199 213.88028519 -78.93152199 213.88028519 -78.23997498 211.98873901 C-77.00549152 208.61261279 -75.76641014 205.2381909 -74.52642441 201.86408234 C-73.2199076 198.30664123 -71.91752656 194.74768619 -70.61450195 191.18896484 C-67.41604483 182.45696518 -64.20925439 173.72803632 -61 165 C-60.75661644 164.33804123 -60.51323288 163.67608246 -60.26247406 162.99406433 C-54.75784795 148.02332875 -49.24108025 133.05707953 -43.72065735 118.09216309 C-39.77972118 107.4069222 -35.84999997 96.71757688 -31.92404175 86.02682495 C-30.82528718 83.03482062 -29.72626328 80.04291533 -28.62719727 77.05102539 C-25.17472361 67.65157939 -21.7249372 58.25115621 -18.2797699 48.84902954 C-16.62708157 44.3392601 -14.97331024 39.82988816 -13.31942749 35.32055664 C-12.53341937 33.17655125 -11.74794341 31.03235069 -10.96304321 28.88793945 C-9.8751209 25.91569223 -8.7853967 22.94411115 -7.6953125 19.97265625 C-7.3794368 19.10818375 -7.0635611 18.24371124 -6.7381134 17.3530426 C-5.17931835 13.10931467 -3.57114782 8.89193099 -1.88619995 4.69651794 C-1.53137983 3.81220817 -1.17655972 2.92789839 -0.81098747 2.01679134 C-0.40954867 1.01847963 -0.40954867 1.01847963 0 0 Z M156 153 C157 155 157 155 157 155 Z " fill="#000000" transform="translate(3198,465)"/>
<path d="M0 0 C35.97 0 71.94 0 109 0 C102.06684486 19.53889176 95.08456575 39.02714833 87.8125 58.4375 C84.904375 66.213125 81.99625 73.98875 79 82 C97.15 82.33 115.3 82.66 134 83 C134.33 81.02 134.66 79.04 135 77 C135.41479414 75.62306061 135.87140241 74.25776609 136.37597656 72.91113281 C136.65427307 72.16043518 136.93256958 71.40973755 137.21929932 70.6362915 C137.67535553 69.43187408 137.67535553 69.43187408 138.140625 68.203125 C138.46351501 67.33782166 138.78640503 66.47251831 139.11907959 65.58099365 C140.15766159 62.80207165 141.20381857 60.02606862 142.25 57.25 C142.90671938 55.49366502 143.56297249 53.73715562 144.21875 51.98046875 C150.72170368 34.61857524 157.37854518 17.31765106 164 0 C199.64 0 235.28 0 272 0 C271.33151868 3.34240662 270.71405714 6.06949544 269.57983398 9.19970703 C269.29053513 10.00329651 269.00123627 10.80688599 268.70317078 11.63482666 C268.38733536 12.50041199 268.07149994 13.36599731 267.74609375 14.2578125 C267.24811028 15.63498444 267.24811028 15.63498444 266.74006653 17.03997803 C265.64304992 20.06972637 264.54049008 23.09742166 263.4375 26.125 C262.66169381 28.26184882 261.88597898 30.39873081 261.11035156 32.53564453 C255.57816222 47.75632683 249.95875372 62.94367863 244.29345703 78.11523438 C238.75942852 92.93701777 233.27819013 107.77788834 227.8125 122.625 C227.15604492 124.40784897 227.15604492 124.40784897 226.48632812 126.22671509 C223.55542076 134.18684807 220.62562413 142.14738955 217.69620514 150.10807037 C214.39531086 159.07821342 211.09412772 168.04824979 207.79138279 177.01771164 C206.25700681 181.18485124 204.72372196 185.35239128 203.19067383 189.52001953 C202.3719499 191.7438307 201.55318558 193.96762699 200.734375 196.19140625 C200.38817612 197.13330307 200.04197723 198.07519989 199.68528748 199.04563904 C195.50835066 210.38339666 191.24275255 221.6859932 187 233 C151.36 233 115.72 233 79 233 C79.67939643 228.92362141 80.24099879 225.93643949 81.62304688 222.20166016 C81.95429565 221.2985611 82.28554443 220.39546204 82.62683105 219.46499634 C82.98716431 218.49943817 83.34749756 217.53388 83.71875 216.5390625 C84.0955188 215.51686615 84.4722876 214.4946698 84.86047363 213.4414978 C86.06868142 210.16747101 87.28427678 206.89624253 88.5 203.625 C89.28693253 201.4949668 90.07339506 199.36475989 90.859375 197.234375 C96.19055324 182.80437107 101.59846735 168.40408707 107 154 C88.85 154 70.7 154 52 154 C51.01 157.3 50.02 160.6 49 164 C48.18882391 166.31961171 47.35323501 168.6309 46.48803711 170.9309082 C46.25672592 171.54856552 46.02541473 172.16622284 45.78709412 172.80259705 C45.0369854 174.80318808 44.28224911 176.80199584 43.52734375 178.80078125 C42.9980633 180.20930379 42.46906141 181.61793104 41.94032288 183.0266571 C40.5582025 186.70661235 39.17205128 190.38503647 37.78509521 194.06317139 C36.65357818 197.06596518 35.52494663 200.06983947 34.39646053 203.07377338 C33.04518654 206.67062646 31.69272471 210.26703233 30.33984375 213.86328125 C30.08396925 214.54347132 29.82809475 215.22366138 29.56446648 215.92446327 C28.8377922 217.8552332 28.11033054 219.78570436 27.38256836 221.71606445 C26.96970078 222.81175247 26.55683319 223.90744049 26.13145447 225.03633118 C25.11409703 227.70114059 24.05935734 230.35160664 23 233 C-12.64 233 -48.28 233 -85 233 C-84.28712178 229.43560888 -83.5611747 226.51556213 -82.33618164 223.16113281 C-81.99322556 222.21658234 -81.65026947 221.27203186 -81.29692078 220.29885864 C-80.92178848 219.27726654 -80.54665619 218.25567444 -80.16015625 217.203125 C-79.76677567 216.12312225 -79.37339508 215.04311951 -78.96809387 213.9303894 C-77.66978143 210.36895206 -76.3662145 206.80946303 -75.0625 203.25 C-74.15159611 200.75513978 -73.24095159 198.26018613 -72.33056641 195.76513672 C-69.55975692 188.17454099 -66.78068944 180.586981 -64 173 C-63.59170959 171.88572632 -63.18341919 170.77145264 -62.76275635 169.62341309 C-58.29186761 157.42328127 -53.81077647 145.2269168 -49.32341003 133.03283691 C-45.58626639 122.87732093 -41.85519436 112.71957812 -38.12454224 102.56167603 C-37.00631807 99.51720156 -35.88784602 96.47281829 -34.76928711 93.4284668 C-31.30919103 84.01099036 -27.85019405 74.5931146 -24.39511108 65.17379761 C-22.79419361 60.80955439 -21.1926498 56.44554113 -19.59106445 52.08154297 C-18.84075477 50.03657193 -18.09073889 47.99149306 -17.34106445 45.94628906 C-13.27308026 34.84856724 -9.17765307 23.76155719 -5.03515625 12.69140625 C-4.452714 11.13231789 -4.452714 11.13231789 -3.85850525 9.54173279 C-3.31958397 8.10483849 -3.31958397 8.10483849 -2.76977539 6.63891602 C-2.45166397 5.78991226 -2.13355255 4.94090851 -1.80580139 4.06617737 C-1 2 -1 2 0 0 Z " fill="#000000" transform="translate(2125,465)"/>
<path d="M0 0 C77.88 0 155.76 0 236 0 C235.27837954 3.60810228 234.53459432 6.54666808 233.28173828 9.9387207 C232.93112335 10.89353836 232.58050842 11.84835602 232.2192688 12.83210754 C231.84011322 13.85301987 231.46095764 14.87393219 231.0703125 15.92578125 C230.67931366 16.98733932 230.28831482 18.0488974 229.88546753 19.1426239 C228.63543306 22.53386893 227.38026508 25.92318806 226.125 29.3125 C225.28742696 31.58255929 224.45018372 33.85274028 223.61328125 36.12304688 C220.42867733 44.75628741 217.23100524 53.38398603 214 62 C171.43 62 128.86 62 85 62 C84.01 65.3 83.02 68.6 82 72 C79.525 78.93 79.525 78.93 77 86 C116.93 86 156.86 86 198 86 C193.56366753 105.9634961 185.05168338 124.80375079 178 144 C137.41 144 96.82 144 55 144 C54.01 147.3 53.02 150.6 52 154 C50.02 158.95 48.04 163.9 46 169 C88.9 169 131.8 169 176 169 C175.32254962 173.06470228 174.75288007 176.08464072 173.3894043 179.82104492 C173.06203781 180.72606247 172.73467133 181.63108002 172.39738464 182.56352234 C172.0432399 183.52611465 171.68909515 184.48870697 171.32421875 185.48046875 C170.95778763 186.48910477 170.59135651 187.49774078 170.21382141 188.53694153 C169.0432416 191.75558922 167.86549715 194.97156055 166.6875 198.1875 C165.90642445 200.33120662 165.12582065 202.47508519 164.34570312 204.61914062 C162.89963945 208.59115814 161.45093916 212.56218971 159.9987793 216.53198242 C157.99302758 222.01907431 155.99652888 227.50954558 154 233 C75.13 233 -3.74 233 -85 233 C-82.99815128 226.32717094 -80.92601674 219.82214136 -78.5078125 213.30859375 C-78.00101456 211.93218468 -78.00101456 211.93218468 -77.48397827 210.52796936 C-76.36712499 207.49676976 -75.24605067 204.46714949 -74.125 201.4375 C-73.32588324 199.27093977 -72.52706193 197.10427055 -71.72851562 194.9375 C-70.03185209 190.33519043 -68.33348639 185.73351421 -66.63378906 181.13232422 C-64.00985515 174.02842298 -61.39096197 166.92267128 -58.7734375 159.81640625 C-58.34016144 158.64013168 -57.90688538 157.46385712 -57.46047974 156.25193787 C-56.58201939 153.86702911 -55.70357092 151.48211597 -54.82513428 149.09719849 C-53.49069769 145.47474802 -52.15581616 141.85246181 -50.82080078 138.23022461 C-44.84295711 122.01006348 -38.8773482 105.78544781 -32.91986084 89.55780029 C-28.40391349 77.25737295 -23.88189462 64.95919867 -19.3515625 52.6640625 C-19.11258995 52.01549538 -18.8736174 51.36692825 -18.62740326 50.69870758 C-16.05308541 43.71229098 -13.47800187 36.72615698 -10.90234375 29.74023438 C-10.25656876 27.98832291 -10.25656876 27.98832291 -9.5977478 26.20101929 C-8.79719713 24.02924989 -7.99645272 21.85755188 -7.19546509 19.6859436 C-6.83270477 18.7017746 -6.46994446 17.71760559 -6.09619141 16.70361328 C-5.7863028 15.86323517 -5.47641418 15.02285706 -5.15713501 14.15701294 C-3.42873824 9.4414258 -1.71635728 4.71998253 0 0 Z " fill="#000000" transform="translate(2459,465)"/>
<path d="M0 0 C1.11819122 0.00149048 2.23638245 0.00298096 3.38845825 0.0045166 C27.42845225 0.06206605 52.82143348 0.62797783 75.875 8.3125 C73.81732853 14.78987219 71.42386976 21.06722104 68.8125 27.33984375 C68.42432602 28.27903152 68.03615204 29.2182193 67.63621521 30.18586731 C66.3857583 33.20861651 65.13068139 36.22941777 63.875 39.25 C63.0143061 41.32515459 62.15371073 43.40035004 61.29321289 45.47558594 C59.20021258 50.51980364 57.10249074 55.56204091 55.00274658 60.60345459 C53.98063482 63.0587466 52.96031688 65.51477212 51.94091797 67.97119141 C50.40495096 71.67116777 48.86032769 75.36746729 47.3125 79.0625 C46.6618457 80.62859009 46.6618457 80.62859009 45.99804688 82.22631836 C45.40926758 83.6224939 45.40926758 83.6224939 44.80859375 85.046875 C44.47915771 85.83288086 44.14972168 86.61888672 43.81030273 87.42871094 C42.875 89.3125 42.875 89.3125 40.875 91.3125 C40.4625 90.66023437 40.05 90.00796875 39.625 89.3359375 C33.31576753 79.78759014 25.720295 73.47824313 14.43505859 70.71508789 C-14.51075235 65.23099051 -49.40316256 70.77274796 -74.125 87.3125 C-88.38748616 97.61107711 -100.51742706 111.61497235 -104.125 129.3125 C-105.03609407 138.66241624 -103.2964493 146.55346341 -97.5 154.0625 C-86.57225412 165.6715268 -69.2644557 169.8386027 -53.92578125 170.53125 C-34.03784334 171.09831076 -14.35756893 167.318137 5.16333008 163.9387207 C6.38431396 163.72820068 7.60529785 163.51768066 8.86328125 163.30078125 C9.95165283 163.11040283 11.04002441 162.92002441 12.16137695 162.72387695 C14.875 162.3125 14.875 162.3125 17.875 162.3125 C15.82990552 169.55666844 13.35083259 176.5464552 10.6015625 183.55078125 C9.99313004 185.1147187 9.99313004 185.1147187 9.37240601 186.71025085 C8.08521915 190.0165898 6.79275549 193.32083492 5.5 196.625 C4.64026405 198.82993742 3.78088604 201.03501444 2.921875 203.24023438 C1.28960382 207.4297934 -0.3443402 211.6186935 -1.97949219 215.80712891 C-4.38268367 221.96742812 -6.76369365 228.13601252 -9.125 234.3125 C-67.7775602 244.01885351 -131.48434404 252.92264021 -187.125 226.3125 C-188.16785156 225.82007813 -189.21070313 225.32765625 -190.28515625 224.8203125 C-208.60810897 215.48747039 -223.90086201 200.44891461 -230.46875 180.71484375 C-237.75543707 154.0403643 -229.91746815 122.59908915 -216.8125 98.9375 C-189.98617106 52.52577923 -138.5698786 23.70902844 -88.125 10.125 C-79.16518545 7.82275019 -70.11712551 6.11303548 -61 4.5625 C-59.8346875 4.36374268 -58.669375 4.16498535 -57.46875 3.96020508 C-38.3406925 0.88171735 -19.3569993 -0.06401445 0 0 Z " fill="#000000" transform="translate(1993.125,459.6875)"/>
<path d="M0 0 C36.63 0 73.26 0 111 0 C107.62512803 11.24957323 107.62512803 11.24957323 106.06494141 15.46313477 C105.71171814 16.42174408 105.35849487 17.38035339 104.99456787 18.36801147 C104.6173761 19.38223175 104.24018433 20.39645203 103.8515625 21.44140625 C103.44665588 22.53780426 103.04174927 23.63420227 102.62457275 24.76382446 C101.29416417 28.36441867 99.95955727 31.96344167 98.625 35.5625 C97.68827823 38.09455431 96.75254995 40.62697531 95.81689453 43.15942383 C94.11306157 47.77022383 92.4082695 52.38066687 90.70221519 56.99064541 C86.18878187 69.18696462 81.69325705 81.38986691 77.19891357 93.5932312 C75.92298981 97.05721333 74.64641358 100.52095425 73.36962891 103.98461914 C67.22811769 120.64978251 61.11425925 137.32474751 55 154 C90.97 154.33 126.94 154.66 164 155 C162.28199631 160.72667896 160.62227419 166.25758099 158.57983398 171.83911133 C158.35827637 172.44701508 158.13671875 173.05491882 157.90844727 173.6812439 C157.19041911 175.6491931 156.46834285 177.6156277 155.74609375 179.58203125 C155.23927686 180.96815215 154.73269445 182.3543588 154.22633362 183.74064636 C153.17159205 186.62648521 152.11500849 189.5116398 151.05688477 192.39624023 C149.70383773 196.08488229 148.35398033 199.77468087 147.0053091 203.46492481 C145.71162546 207.00434643 144.41644489 210.54321963 143.12109375 214.08203125 C142.8762921 214.75114847 142.63149044 215.42026569 142.37927055 216.10965919 C141.68392298 218.00935981 140.98737202 219.90861981 140.29077148 221.80786133 C139.89566879 222.88578445 139.5005661 223.96370758 139.0934906 225.07429504 C138.10060683 227.73081991 137.05326701 230.36683248 136 233 C63.07 233 -9.86 233 -85 233 C-84.33063305 228.98379831 -83.82241034 226.11128621 -82.44384766 222.46240234 C-81.96420311 221.1800898 -81.96420311 221.1800898 -81.47486877 219.87187195 C-81.1248027 218.95251358 -80.77473663 218.03315521 -80.4140625 217.0859375 C-80.04574814 216.10474442 -79.67743378 215.12355133 -79.29795837 214.11262512 C-78.4984665 211.98400125 -77.69659038 209.85627171 -76.89260864 207.7293396 C-74.70967024 201.952859 -72.54526032 196.16943487 -70.37890625 190.38671875 C-69.93040817 189.19079605 -69.4819101 187.99487335 -69.01982117 186.76271057 C-64.4626263 174.59690605 -60.00624303 162.39510025 -55.5625 150.1875 C-48.32382691 130.31878799 -41.01014154 110.47892772 -33.65429688 90.65332031 C-29.17097854 78.56824583 -24.69837218 66.47935176 -20.24609375 54.3828125 C-20.00712875 53.73364302 -19.76816376 53.08447353 -19.5219574 52.41563225 C-16.97590056 45.49885572 -14.43160098 38.58143669 -11.88916016 31.66333008 C-11.0524288 29.3888273 -10.21567846 27.1143315 -9.37890625 24.83984375 C-9.00889999 23.8316861 -8.63889374 22.82352844 -8.25767517 21.78482056 C-5.57416918 14.49381831 -2.78980376 7.25348978 0 0 Z " fill="#000000" transform="translate(2756,465)"/>
<path d="M0 0 C4.56334133 1.52371842 6.55195621 5.32240005 8.62109375 9.40600586 C10.15303482 12.77053679 11.60274801 16.16500537 13.03125 19.57421875 C13.58321092 20.87033075 14.13588393 22.1661397 14.68920898 23.46166992 C20.40950033 36.90132296 25.98000119 50.40640826 31.54394531 63.91137695 C31.89531052 64.76344727 32.24667572 65.61551758 32.60868835 66.4934082 C33.26298341 68.08091604 33.91624425 69.66885076 34.56819153 71.25732422 C36.46254115 75.85352868 38.45079381 80.39300232 40.53465271 84.90678406 C41.28125 86.76171875 41.28125 86.76171875 41.28125 88.76171875 C42.93125 88.10171875 44.58125 87.44171875 46.28125 86.76171875 C45.57970733 81.95386059 43.7610112 77.76710942 41.88671875 73.32421875 C41.54279587 72.49891663 41.19887299 71.6736145 40.8445282 70.82330322 C40.10608654 69.05279781 39.36558747 67.28314935 38.62322998 65.51428223 C37.46313591 62.74833339 36.31001437 59.97957108 35.15869141 57.20996094 C31.91848123 49.42232914 28.66592235 41.64046739 25.34962463 33.8848877 C24.20782582 31.21232501 23.07480885 28.53608778 21.94277954 25.859375 C21.17109344 24.04658784 20.38487454 22.24000919 19.59838867 20.43359375 C19.14052979 19.35078125 18.6826709 18.26796875 18.2109375 17.15234375 C17.81116699 16.22454102 17.41139648 15.29673828 16.99951172 14.34082031 C16.17412913 11.37707401 16.34043459 9.670844 17.28125 6.76171875 C20.38080386 4.35095464 23.46970488 4.29499894 27.28125 4.76171875 C32.04522257 7.80168719 34.02748402 11.39957985 36.44140625 16.3125 C36.82411179 17.06693893 37.20681732 17.82137787 37.60112 18.59867859 C38.85951942 21.08521296 40.10142742 23.5796189 41.34375 26.07421875 C42.222381 27.8163871 43.10228396 29.55791449 43.98339844 31.29882812 C45.82286744 34.93582141 47.65675586 38.57554919 49.48681641 42.21728516 C53.53109261 50.2548274 57.63966197 58.2593508 61.7494812 66.26351929 C62.99542484 68.69189461 64.23845259 71.12174071 65.48071289 73.55200195 C65.87243179 74.31688431 66.2641507 75.08176666 66.66773987 75.86982727 C67.43166207 77.36220139 68.19394382 78.85541656 68.95445251 80.34953308 C70.79235869 83.94255186 72.67645937 87.49450113 74.66992188 91.00390625 C75.2383078 92.01831787 75.2383078 92.01831787 75.81817627 93.05322266 C76.52990755 94.31617865 77.25489206 95.57180063 77.99578857 96.81787109 C79.65546369 99.77845836 80.29308639 101.5634442 80.08886719 104.984375 C79.172193 108.13675878 77.77259007 110.84387949 76.28125 113.76171875 C76.28125 114.75171875 76.28125 115.74171875 76.28125 116.76171875 C87.9099927 103.95324853 93.67444076 86.99252861 98.3671875 70.58984375 C100.93019376 62.65985855 104.13857429 55.36477643 111.28125 50.76171875 C114.88697704 49.55980974 117.4914935 49.4350156 121.28125 49.76171875 C124.05859375 51.21875 124.05859375 51.21875 126.28125 53.76171875 C126.31689139 57.02776601 126.05450592 59.58877697 125.46875 62.76171875 C125.31857422 63.69798096 125.16839844 64.63424316 125.01367188 65.59887695 C124.66411016 67.74980365 124.30092661 69.89854223 123.92724609 72.04541016 C123.20312495 76.21115926 122.51565283 80.38214483 121.83203125 84.5546875 C120.80235193 90.81760805 119.75707274 97.07771656 118.69921875 103.3359375 C117.27728122 111.75411262 115.90570614 120.17872874 114.61230469 128.61767578 C114.25106913 130.95718214 113.87934336 133.29492016 113.5078125 135.6328125 C113.24355395 137.32142135 112.9805415 139.01022566 112.71875 140.69921875 C112.59000488 141.52719971 112.46125977 142.35518066 112.32861328 143.20825195 C111.69684383 147.42566223 111.18102795 151.61812702 110.859375 155.87109375 C110.20748312 164.42686715 109.21632515 171.81079596 106.03125 179.82421875 C103.22707599 186.9954417 103.01648752 191.4396265 105.28125 198.76171875 C106.03986823 201.62528624 106.73243387 204.50211493 107.40625 207.38671875 C107.58559082 208.14573486 107.76493164 208.90475098 107.94970703 209.68676758 C109.71706583 217.72428324 109.65417118 225.57817059 109.28125 233.76171875 C114.60029541 228.82260516 116.97249564 223.53444327 117.56640625 216.27734375 C117.6132774 210.03678488 117.26708013 203.92315705 116.28125 197.76171875 C131.33922534 205.06168778 143.07126376 216.23081095 149.1171875 232.0859375 C156.39309807 255.06121214 158.75000311 276.02054948 147.46240234 298.03369141 C137.9618959 315.81867384 121.86660657 326.09145703 102.96484375 332.0703125 C83.50060836 337.0851155 63.43092501 333.85576052 46.28125 323.76171875 C33.51930051 315.52528326 24.9587111 302.63914927 19.28125 288.76171875 C18.89598145 287.82730957 18.89598145 287.82730957 18.50292969 286.87402344 C12.55961853 271.77541911 11.25461422 252.89820083 16.9921875 237.54296875 C19.18706647 232.80735109 21.59195892 228.23490625 24.28125 223.76171875 C27.40740462 224.52893185 29.60240534 225.07954409 32.28125 226.76171875 C33.87143552 229.58930029 34.34203275 232.52702992 34.90625 235.69921875 C35.28430595 237.42018808 35.67236388 239.1389902 36.0703125 240.85546875 C36.26399414 241.69335938 36.45767578 242.53125 36.65722656 243.39453125 C38.62223553 250.84864976 41.87717926 257.28887559 48.28125 261.76171875 C51.89992559 262.96794395 55.20631251 262.86988793 58.96875 262.82421875 C60.0215918 262.81745117 60.0215918 262.81745117 61.09570312 262.81054688 C62.82425538 262.79878802 64.55276365 262.78085329 66.28125 262.76171875 C65.91479087 260.18009621 65.66173145 259.06122817 63.57421875 257.41796875 C62.87941406 257.03640625 62.18460937 256.65484375 61.46875 256.26171875 C56.66955571 253.59650016 53.84747938 251.48816322 52.0859375 246.1171875 C51.76152526 244.73118234 51.45196059 243.34162991 51.15625 241.94921875 C50.84227111 240.56745215 50.52717483 239.18593897 50.2109375 237.8046875 C50.06060059 237.13018555 49.91026367 236.45568359 49.75537109 235.76074219 C49.29436794 233.81702755 48.74204513 231.89568475 48.1875 229.9765625 C47.15779474 226.32377187 46.86166126 223.53801744 47.28125 219.76171875 C49.28125 217.01171875 49.28125 217.01171875 51.28125 214.76171875 C51.28125 213.77171875 51.28125 212.78171875 51.28125 211.76171875 C50.31445312 211.77074219 49.34765625 211.77976562 48.3515625 211.7890625 C39.12185297 211.578881 33.08315269 210.55218967 26.28125 203.76171875 C-2.70818965 171.53094018 -31.67007399 108.14606384 -31.96875 65.13671875 C-31.989375 64.38648438 -32.01 63.63625 -32.03125 62.86328125 C-32.05440438 59.59851399 -31.94399549 57.19002137 -30.41015625 54.2734375 C-28.71875 52.76171875 -28.71875 52.76171875 -25.40625 52.19921875 C-20.93205093 52.88172369 -18.46682844 54.2627119 -15.71875 57.76171875 C-12.40556807 63.38069621 -11.38071305 69.39648547 -10.40625 75.76171875 C-8.49307075 88.06937982 -3.77991039 104.05997045 4.28125 113.76171875 C6.87115068 114.60287829 6.87115068 114.60287829 9.28125 114.76171875 C10.30535982 112.13175625 10.42390786 111.08922124 9.27734375 108.45703125 C8.76300781 107.60882813 8.24867188 106.760625 7.71875 105.88671875 C1.2206183 94.49232038 -2.45870034 83.65237237 -4.71875 70.76171875 C-6.34825571 62.27219518 -8.35306549 54.00350988 -15.453125 48.390625 C-18.22368069 46.7172584 -20.90876051 45.7115273 -24.03125 44.88671875 C-26.71875 43.76171875 -26.71875 43.76171875 -28.09375 41.07421875 C-29.75291436 32.28064765 -29.75291436 32.28064765 -26.71875 27.82421875 C-23.61173079 25.68814304 -21.56021082 24.93870869 -17.765625 25.23828125 C-12.67050187 26.54123259 -9.89398483 29.82767088 -7.23046875 34.2109375 C-4.19615685 40.33681246 -2.08082975 46.63478399 -0.0090332 53.13305664 C3.03389562 62.67516478 6.39733744 71.74202412 10.90625 80.69921875 C11.34928467 81.57956787 11.79231934 82.45991699 12.2487793 83.36694336 C14.46399873 87.63655066 16.82824556 91.80488887 19.3671875 95.890625 C19.82915527 96.63513916 20.29112305 97.37965332 20.76708984 98.14672852 C21.51659912 98.94614868 21.51659912 98.94614868 22.28125 99.76171875 C23.60125 99.76171875 24.92125 99.76171875 26.28125 99.76171875 C25.84591155 93.61860954 23.79778669 89.61400628 20.65625 84.38671875 C14.23694419 73.2553327 9.42500922 61.88792018 5.78125 49.57421875 C2.71246599 39.22883171 -1.76615088 29.85430403 -8.49609375 21.34765625 C-11.68957196 17.2053171 -12.23958793 13.03501978 -12.0859375 7.921875 C-11.71875 5.76171875 -11.71875 5.76171875 -9.78125 2.69921875 C-6.25989964 0.47142567 -4.07420137 0.1362849 0 0 Z " fill="#FDFDFD" transform="translate(282.71875,250.23828125)"/>
<path d="M0 0 C1.2485686 0.00138269 1.2485686 0.00138269 2.5223608 0.00279331 C3.47453487 0.00141865 4.42670895 0.00004398 5.40773678 -0.00137234 C6.46077496 0.00222294 7.51381313 0.00581821 8.59876156 0.00952244 C10.25221081 0.0093034 10.25221081 0.0093034 11.93906307 0.00907993 C15.60226021 0.00977961 19.26540723 0.01757459 22.92859554 0.02539158 C25.46065398 0.02725556 27.99271277 0.02867956 30.52477169 0.0296793 C36.52067179 0.03311437 42.51655019 0.04100514 48.51244158 0.05102879 C55.33699987 0.06219105 62.16155901 0.06770066 68.98612416 0.07272422 C83.02815593 0.08318779 97.07017162 0.10078653 111.11218929 0.12304783 C110.81217854 1.53328107 110.50839384 2.94271168 110.2030859 4.35180759 C110.03433358 5.13677113 109.86558126 5.92173466 109.69171524 6.73048496 C108.74895595 10.62265041 107.3527108 14.31987419 105.93640804 18.06054783 C105.61936916 18.91284473 105.30233028 19.76514164 104.97568417 20.64326572 C104.28576004 22.4958651 103.59313832 24.34746164 102.89810848 26.19815159 C101.77076509 29.20006786 100.65043215 32.2045202 99.53186703 35.20971775 C98.32837567 38.44270486 97.12438964 41.67550015 95.91829586 44.90751743 C91.57981319 56.53420766 87.28985503 68.17864595 83.0036993 79.82470798 C81.66442158 83.46344458 80.3243238 87.10187823 78.98401546 90.74023533 C72.99015777 107.01243915 67.00718104 123.28862483 61.03131771 139.5674448 C56.52885427 151.83254847 52.01879544 164.09482416 47.49890804 176.35351658 C47.01909676 177.65499835 46.53928922 178.9564815 46.05948544 180.25796604 C43.74146613 186.54539454 41.42256614 192.83249615 39.10242367 199.11914158 C38.25530163 201.41597349 37.40829253 203.71284707 36.56140804 206.00976658 C35.96282482 207.63233875 35.96282482 207.63233875 35.35214901 209.28769016 C32.83076799 216.13454781 30.35832004 222.99596628 27.96301937 229.88794041 C27.11218929 232.12304783 27.11218929 232.12304783 26.11218929 233.12304783 C24.63202535 233.21873359 23.14730656 233.2449305 21.66405392 233.24330235 C20.22317158 233.24536434 20.22317158 233.24536434 18.7531805 233.24746799 C17.69079159 233.24387272 16.62840267 233.24027744 15.53382015 233.23657322 C13.86574055 233.23679226 13.86574055 233.23679226 12.16396236 233.23701572 C8.46829978 233.23631604 4.77268688 233.22852102 1.07703304 233.22070408 C-1.47744564 233.2188401 -4.03192468 233.2174161 -6.58640385 233.21641636 C-12.6354278 233.21298127 -18.68443026 233.20509047 -24.73344558 233.19506687 C-31.61846224 233.18390466 -38.50347974 233.17839501 -45.38850319 233.17337143 C-59.55494901 233.16290783 -73.72137887 233.14530905 -87.88781071 233.12304783 C-83.91815435 221.72468877 -79.91789007 210.34099829 -75.77062321 199.00586033 C-75.31158945 197.74840808 -74.85265401 196.49091994 -74.39380741 195.23339939 C-73.18477718 191.92116521 -71.97396297 188.60958619 -70.76262379 185.29819584 C-70.00151138 183.21715307 -69.24092412 181.13591907 -68.48049259 179.05462742 C-61.36894659 159.59121945 -54.22098784 140.14157713 -47.02428532 120.70947361 C-42.39354493 108.20536208 -37.78712605 95.69253249 -33.19481754 83.17425632 C-26.5419164 65.04181815 -19.87527726 46.91441691 -13.18190861 28.79687595 C-12.28052711 26.35582786 -11.38010947 23.91442363 -10.4806757 21.4726572 C-9.23230941 18.0843051 -7.98045196 14.6972636 -6.72765446 11.31054783 C-6.16494846 9.77998753 -6.16494846 9.77998753 -5.59087467 8.21850681 C-5.24792362 7.29368504 -4.90497257 6.36886326 -4.55162907 5.41601658 C-4.10345074 4.20208225 -4.10345074 4.20208225 -3.6462183 2.963624 C-2.49198835 0.16242823 -2.49198835 0.16242823 0 0 Z " fill="#000000" transform="translate(3020.8878107070923,464.8769521713257)"/>
<path d="M0 0 C37.62 0 75.24 0 114 0 C104.78564371 26.49127434 104.78564371 26.49127434 100.32055664 38.4777832 C98.53980997 43.26385295 96.76362134 48.05159215 94.98912048 52.83998108 C94.2101274 54.94191199 93.43087815 57.04374798 92.65138245 59.14549255 C87.93624005 71.8608786 83.2493775 84.58667461 78.5625 97.3125 C78.11862946 98.51743103 77.67475891 99.72236206 77.21743774 100.96380615 C71.4998556 116.48486362 65.78994156 132.00871995 60.08856201 147.53573608 C59.00804022 150.47810568 57.92718125 153.42035116 56.84619141 156.36254883 C56.48730835 157.33936111 56.12842529 158.3161734 55.75866699 159.32258606 C55.02373806 161.32290719 54.28879329 163.3232225 53.55383301 165.3235321 C51.43249305 171.09788857 49.31280616 176.87284855 47.19482422 182.6484375 C44.99607931 188.64424311 42.79529595 194.63929653 40.59241295 200.63358307 C39.39990145 203.87880192 38.20839254 207.12438101 37.01928711 210.37084961 C35.7020491 213.96708514 34.38050535 217.56172959 33.05859375 221.15625 C32.66159775 222.24220459 32.26460175 223.32815918 31.85557556 224.44702148 C31.49258865 225.4319458 31.12960175 226.41687012 30.75561523 227.43164062 C30.28078957 228.72551697 30.28078957 228.72551697 29.79637146 230.04553223 C29 232 29 232 28 233 C26.5325104 233.09565123 25.06043116 233.12188309 23.58982849 233.12025452 C22.63765442 233.12162918 21.68548035 233.12300385 20.70445251 233.12442017 C19.65141434 233.12082489 18.59837616 233.11722961 17.51342773 233.11352539 C16.41112823 233.11367142 15.30882874 233.11381744 14.17312622 233.1139679 C10.50992908 233.11326821 6.84678206 233.10547324 3.18359375 233.09765625 C0.65153532 233.09579227 -1.88052348 233.09436827 -4.4125824 233.09336853 C-10.40848249 233.08993346 -16.40436089 233.08204269 -22.40025228 233.07201904 C-29.22481058 233.06085677 -36.04936972 233.05534717 -42.87393486 233.05032361 C-56.91596664 233.03986004 -70.95798233 233.0222613 -85 233 C-84.40978583 228.87326828 -83.48076224 225.17619285 -82.04492188 221.265625 C-81.63871613 220.15142181 -81.23251038 219.03721863 -80.81399536 217.88925171 C-80.37006439 216.68829865 -79.92613342 215.48734558 -79.46875 214.25 C-79.00092837 212.97303278 -78.53356202 211.6958987 -78.06661987 210.41860962 C-76.81168439 206.98998564 -75.55020628 203.56380325 -74.28740692 200.13806915 C-72.96345763 196.54311073 -71.64546927 192.94596758 -70.32666016 189.34912109 C-67.45752712 181.52791284 -64.57948471 173.71000377 -61.69795227 165.89335632 C-61.04600532 164.12480003 -60.39427143 162.3561652 -59.74255371 160.58752441 C-55.93363176 150.25166143 -52.11476684 139.91950552 -48.2890625 129.58984375 C-43.87198393 117.66332807 -39.4743453 105.7296723 -35.0788269 93.79519653 C-33.75934458 90.21287004 -32.43941477 86.6307087 -31.11938477 83.04858398 C-26.92635481 71.6687182 -22.73701826 60.2875197 -18.55697632 48.90287781 C-16.84921031 44.25178442 -15.13993255 39.60124703 -13.43029594 34.95084095 C-12.26038521 31.76818577 -11.0913777 28.58520476 -9.92443848 25.40145874 C-8.6352971 21.88536151 -7.3433443 18.37030929 -6.05078125 14.85546875 C-5.47729698 13.28780762 -5.47729698 13.28780762 -4.89222717 11.68847656 C-4.53889816 10.7293335 -4.18556915 9.77019043 -3.8215332 8.78198242 C-3.36361137 7.53429329 -3.36361137 7.53429329 -2.8964386 6.26139832 C-2.04900147 4.12361342 -1.02842345 2.05684689 0 0 Z " fill="#000000" transform="translate(1651,465)"/>
<path d="M0 0 C3.77703684 0.63343208 7.02976156 1.72624522 10.55078125 3.22265625 C11.62924316 3.67479492 12.70770508 4.12693359 13.81884766 4.59277344 C15.54820557 5.32028809 15.54820557 5.32028809 17.3125 6.0625 C38.07877576 14.64296144 59.29821942 21.21922267 81 27 C82.32499512 27.35843994 82.32499512 27.35843994 83.67675781 27.72412109 C98.74400705 31.77454886 113.99533963 34.9970757 129.25 38.25 C130.28263977 38.47064117 131.31527954 38.69128235 132.37921143 38.91860962 C148.12966943 42.27984652 148.12966943 42.27984652 164 45 C165.61789989 45.25106986 167.23573151 45.50257978 168.85351562 45.75439453 C193.40860183 49.55431992 217.89774376 52.98001911 242.68920898 54.75 C244.70636887 54.90231707 246.72233134 55.0742903 248.73461914 55.28125 C259.76325496 56.40182263 270.86412085 56.24031602 281.9375 56.25 C283.0472821 56.25200409 284.15706421 56.25400818 285.30047607 56.256073 C302.7481893 56.26379058 319.7173007 55.44318994 337 53 C339.66569707 52.6583373 342.33275441 52.32940803 345 52 C355.76580789 65.6689471 357 77.76152758 357 95 C205.86 95 54.72 95 -101 95 C-106.75168919 75.44425676 -106.75168919 75.44425676 -106.3125 63.9375 C-106.28994141 62.77412109 -106.26738281 61.61074219 -106.24414062 60.41210938 C-106.18641355 57.60657376 -106.10510076 54.80408825 -106 52 C-105.32646484 51.98541748 -104.65292969 51.97083496 -103.95898438 51.95581055 C-67.09272356 51.06682351 -37.53257176 41.32560212 -11.21484375 14.484375 C-7.13863168 9.91211596 -3.5633055 4.97851903 0 0 Z " fill="#FCFCFC" transform="translate(625,719)"/>
<path d="M0 0 C20.69693437 -1.26143844 42.94368701 8.49304905 58.44140625 21.7265625 C59.28574219 22.47679687 60.13007812 23.22703125 61 24 C61.71027344 24.62648438 62.42054688 25.25296875 63.15234375 25.8984375 C80.2530025 41.94935284 90.2011912 66.09102526 91.23828125 89.3046875 C91.83735076 114.17284904 84.14091631 138.42192634 67.0625 156.875 C65.07554458 158.95232844 63.04940273 160.98443175 61 163 C60.1646875 163.83402344 59.329375 164.66804687 58.46875 165.52734375 C39.01065885 184.00621278 13.44915256 191.72708989 -12.81542969 191.09326172 C-17.05169351 190.91241094 -20.94119375 190.18794329 -25 189 C-26.09183594 188.68546875 -27.18367188 188.3709375 -28.30859375 188.046875 C-33.29665469 186.55657363 -38.18783799 184.99246634 -43 183 C-39.97163971 180.98109314 -38.12410872 180.45205056 -34.625 179.6875 C-10.05982551 173.69383363 9.63095876 158.93547203 23.1875 137.625 C29.34143214 127.27464892 33.9820703 116.66545902 37 105 C37.226875 104.12859375 37.45375 103.2571875 37.6875 102.359375 C43.24948008 75.93996964 37.70178905 47.57736134 23.12109375 25.05859375 C17.07938102 16.34651075 10.57871899 9.44432939 2.30859375 2.8984375 C1.54675781 2.27195312 0.78492188 1.64546875 0 1 C0 0.67 0 0.34 0 0 Z " fill="#FCFCFC" transform="translate(536,563)"/>
<path d="M0 0 C3.31010961 2.67773046 4.55724231 6.20888633 6.0625 10.0625 C6.31837891 10.68060547 6.57425781 11.29871094 6.83789062 11.93554688 C10.39543293 20.88884743 11.36785471 29.73132154 11.3125 39.3125 C11.30512817 40.83025024 11.30512817 40.83025024 11.29760742 42.37866211 C11.17934021 49.93866615 10.35137928 56.78402635 8 64 C7.67128906 65.12148438 7.34257812 66.24296875 7.00390625 67.3984375 C1.05451462 86.04947148 -11.20720574 101.03482832 -28 111 C-31.91352702 113.01453701 -35.82555899 114.61033622 -40 116 C-40.94617188 116.31839844 -41.89234375 116.63679687 -42.8671875 116.96484375 C-63.20453033 122.69627673 -83.89467899 119.05403337 -102.1953125 109.2109375 C-119.4260223 99.48014371 -131.67028019 85.32429952 -139 67 C-139.30679687 66.31550781 -139.61359375 65.63101563 -139.9296875 64.92578125 C-142.27275765 59.42514513 -142.68378245 53.93180498 -143 48 C-142.36835938 48.42410156 -141.73671875 48.84820313 -141.0859375 49.28515625 C-128.85497535 57.30401472 -117.2171276 62.84816957 -103 66 C-102.23429687 66.19207031 -101.46859375 66.38414062 -100.6796875 66.58203125 C-87.20146825 68.68431909 -73.875228 67.13749399 -61 63 C-59.82179688 62.649375 -58.64359375 62.29875 -57.4296875 61.9375 C-36.92888962 55.33321612 -18.90661542 41.30593671 -8.75317383 22.15332031 C-5.5680286 15.90416023 -3.02040388 9.81914574 -1.47265625 2.94140625 C-1 1 -1 1 0 0 Z " fill="#FDFDFD" transform="translate(454,534)"/>
<path d="M0 0 C20.31217568 5.70166335 35.5578441 18.10708385 45.9375 36.41796875 C56.18916346 55.61649067 58.1561672 79.33309321 53.10546875 100.484375 C45.55617593 124.49272674 31.22820435 142.92383317 9 154.8125 C-12.12144924 164.7865177 -35.78291977 164.43792021 -57.50390625 156.76171875 C-62.72372634 154.69300478 -67.55776951 152.45506816 -72 149 C-72 148.67 -72 148.34 -72 148 C-70.84886719 147.86464844 -69.69773437 147.72929688 -68.51171875 147.58984375 C-46.33188704 144.70387837 -27.95011029 136.78377495 -11 122 C-10.32582031 121.42121094 -9.65164063 120.84242188 -8.95703125 120.24609375 C6.31361797 106.13369737 16.89775683 83.63418957 18.12426758 62.89916992 C18.87459039 40.70308792 14.28732712 22.01319656 1.7578125 3.6328125 C0 1 0 1 0 0 Z " fill="#FCFCFC" transform="translate(503,567)"/>
<path d="M0 0 C11.6101692 9.11177836 18.99974447 24.45126642 21 39 C22.46654226 62.14034475 18.27713262 81.73699026 2.68359375 99.49951172 C-8.86470154 112.33854614 -25.8246026 123.87547473 -43.6027832 125.19287109 C-69.56195245 125.90231423 -69.56195245 125.90231423 -82 120 C-82.928125 119.58186035 -82.928125 119.58186035 -83.875 119.15527344 C-94.98120579 114.10038239 -104.90141634 107.12731268 -112 97 C-110.86433594 97.15984375 -109.72867187 97.3196875 -108.55859375 97.484375 C-81.72530284 100.80833197 -55.74012767 94.39944477 -34.3125 77.75 C-20.68765818 66.16105409 -11.7330206 50.76540225 -6 34 C-5.74452393 33.26136719 -5.48904785 32.52273438 -5.22583008 31.76171875 C-3.04623343 25.04405201 -2.09118202 18.37888309 -1.3125 11.375 C-1.11817383 9.72564453 -1.11817383 9.72564453 -0.91992188 8.04296875 C-0.6052932 5.36279857 -0.29881527 2.68197116 0 0 Z " fill="#FCFCFC" transform="translate(483,572)"/>
<path d="M0 0 C12.86475987 3.90606758 22.71954562 11.59779039 32 21 C32.73992188 21.74121094 33.47984375 22.48242188 34.2421875 23.24609375 C41.90496281 31.37102088 47.40682797 40.74355807 51.375 51.125 C51.6136377 51.74511963 51.85227539 52.36523926 52.09814453 53.00415039 C55.47225657 62.39091545 56.36856521 71.89456381 56.3125 81.8125 C56.30404053 83.39115845 56.30404053 83.39115845 56.29541016 85.00170898 C55.95979591 106.57572368 47.94864939 124.65054198 34.25 141.125 C33.77796143 141.69428223 33.30592285 142.26356445 32.81958008 142.85009766 C30.58893864 145.45417326 29.31301878 146.89566041 26 148 C25.88724731 147.14003418 25.88724731 147.14003418 25.7722168 146.26269531 C22.98112074 124.67513734 22.98112074 124.67513734 14.5234375 104.8125 C12.07095793 100.28484541 12.07095793 100.28484541 12 98 C13.51171875 95.95703125 13.51171875 95.95703125 15.6875 93.8125 C24.08232172 84.89025493 26.51034482 74.15134361 26.30859375 62.09375 C25.10238629 41.11274723 13.48415026 20.38488116 1.25 3.890625 C0 2 0 2 0 0 Z " fill="#FCFCFC" transform="translate(974,663)"/>
<path d="M0 0 C7.4190927 3.26981289 10.96592103 8.50034257 14.203125 15.72265625 C17.22856627 27.83804946 17.215412 45.03959341 11.0703125 56.1953125 C7.69443497 61.65221043 3.30045727 68.11859758 -2.9296875 70.1953125 C-21.04588909 71.31280062 -21.04588909 71.31280062 -27.59765625 65.7890625 C-35.07671218 57.95913728 -37.30519268 47.44676355 -37.2109375 36.97265625 C-36.35050919 25.41662609 -33.2795935 11.65553837 -24.3671875 3.6953125 C-17.1838317 -2.01155677 -8.79336209 -2.41524345 0 0 Z " fill="#050505" transform="translate(799.9296875,399.8046875)"/>
<path d="M0 0 C6.08648237 3.67724977 10.45230277 8.85986886 12.59448242 15.71484375 C15.64102695 31.47397111 13.07101463 47.29659791 4.51171875 60.75 C1.72356705 64.55398991 -1.66151752 67.05627039 -6 68.8125 C-14.247382 69.4955962 -22.80432426 70.00920533 -29.625 64.8125 C-37.41524322 54.97219278 -38.88658797 45.10159432 -38 32.8125 C-35.63789503 20.00064804 -31.99328746 8.50561568 -21 0.8125 C-15.26889709 -2.80268939 -6.20250613 -2.40980371 0 0 Z " fill="#050505" transform="translate(874,410.1875)"/>
<path d="M0 0 C5.15758707 0.43248853 9.32745436 1.77730628 14.0625 3.8125 C25.99581137 8.77135488 38.27736195 11.79700222 51 14 C52.794375 14.31130859 52.794375 14.31130859 54.625 14.62890625 C74.87212114 17.64488367 97.25798241 18.37100879 116 9 C116.33 8.01 116.66 7.02 117 6 C121.875 6.875 121.875 6.875 123 8 C123.07179964 9.51928038 123.08392007 11.04167482 123.0625 12.5625 C123.05347656 13.38878906 123.04445313 14.21507812 123.03515625 15.06640625 C123.02355469 15.70449219 123.01195312 16.34257812 123 17 C121.68 17.33 120.36 17.66 119 18 C119 17.34 119 16.68 119 16 C110.46851866 19.91259788 102.58379648 24.01283479 95.125 29.75 C89.71561862 33.9060225 84.63923262 37.1030764 78 39 C77.41476562 39.18691406 76.82953125 39.37382813 76.2265625 39.56640625 C62.00075265 42.33669554 47.75760431 39.23423621 35.78125 31.25 C33.09891909 29.08002443 30.88831663 26.80540929 28.56762695 24.27050781 C21.06317502 16.09403285 13.19732122 12.34661878 2.76489258 8.75512695 C1 8 1 8 -1 6 C-1.1875 3.4375 -1.1875 3.4375 -1 1 C-0.67 0.67 -0.34 0.34 0 0 Z " fill="#070707" transform="translate(756,495)"/>
<path d="M0 0 C4.86453096 2.95687176 8.00424045 6.51463521 10.5 11.625 C13.12098215 24.25336853 12.34734868 36.83087961 5.1875 47.9375 C2.84339734 51.18150585 0.5525403 53.6941398 -2.8125 55.9375 C-4.2975 55.4425 -4.2975 55.4425 -5.8125 54.9375 C-5.04550781 54.38578125 -4.27851562 53.8340625 -3.48828125 53.265625 C1.88164046 48.59340114 4.05359169 41.86663273 4.640625 34.875 C5.00828794 26.52017664 4.27159472 19.96503301 -1.09765625 13.35546875 C-3.91465604 10.50708178 -6.50135251 9.55701595 -10.375 9.3125 C-14.11675241 9.50211583 -14.7892463 9.91851738 -17.875 12.4375 C-18.514375 13.2625 -19.15375 14.0875 -19.8125 14.9375 C-19.173125 15.22625 -18.53375 15.515 -17.875 15.8125 C-15.8125 16.9375 -15.8125 16.9375 -14.8125 18.9375 C-14.44785161 22.87570264 -14.25325142 25.10898358 -16.5 28.4375 C-18.8125 29.9375 -18.8125 29.9375 -21.375 29.8125 C-23.8125 28.9375 -23.8125 28.9375 -26.8125 26.9375 C-26.97739368 36.98571399 -26.97739368 36.98571399 -25.8125 46.9375 C-26.4725 46.6075 -27.1325 46.2775 -27.8125 45.9375 C-31.45846394 34.14326079 -31.26554179 21.96429289 -26.23828125 10.62109375 C-20.3245495 -0.50968354 -12.04928463 -3.35799736 0 0 Z " fill="#F3F3F3" transform="translate(798.8125,409.0625)"/>
<path d="M0 0 C4.24606027 1.65237433 7.10629795 3.83818733 9.875 7.4375 C14.23334735 17.36484674 14.62446743 28.44076325 10.98046875 38.72265625 C8.23090719 45.10908809 5.22934994 50.36829006 0 55 C-0.66 54.67 -1.32 54.34 -2 54 C-1.4225 53.401875 -0.845 52.80375 -0.25 52.1875 C5.61986282 43.871861 7.07611058 35.02209009 6 25 C4.70441968 19.2118318 2.05731079 14.21391471 -2.8125 10.6875 C-6.06684413 9.66470613 -8.60464454 9.64875633 -12 10 C-15.3832553 11.8646306 -15.3832553 11.8646306 -18 14 C-17.175 14.680625 -16.35 15.36125 -15.5 16.0625 C-13 19 -13 19 -12.5 22.5625 C-13.01416373 26.09737567 -13.30357117 27.67549239 -16 30 C-18.5 30.4375 -18.5 30.4375 -21 30 C-22.65625 28.47265625 -22.65625 28.47265625 -24 27 C-24.0544207 29.68777802 -24.09387266 32.37443212 -24.125 35.0625 C-24.14175781 35.81466797 -24.15851562 36.56683594 -24.17578125 37.34179688 C-24.21865121 42.29327709 -23.58399375 46.30414451 -22 51 C-26.98052963 46.7309746 -27.68593106 40.05469436 -28.328125 33.80859375 C-28.67944785 23.38183337 -26.3651315 13.72589882 -19.546875 5.625 C-13.744036 -0.47091168 -8.13930869 -1.23743094 0 0 Z " fill="#F6F6F6" transform="translate(869,418)"/>
<path d="M0 0 C1.11117187 0.20496094 2.22234375 0.40992188 3.3671875 0.62109375 C4.86975455 0.89343403 6.37236087 1.16555773 7.875 1.4375 C8.60203125 1.57220703 9.3290625 1.70691406 10.078125 1.84570312 C20.56034068 3.73066296 30.99050485 4.22846076 41.625 4.5625 C42.91535156 4.60568359 44.20570313 4.64886719 45.53515625 4.69335938 C48.69001933 4.79852148 51.84494895 4.90066604 55 5 C45.03906175 13.05805698 35.64916434 14.04720267 23.13769531 13.22753906 C18.58127867 12.74254816 14.90924461 11.32422362 11 9 C10.16726563 8.50628906 9.33453125 8.01257813 8.4765625 7.50390625 C4.86585966 5.22016518 2.39522362 3.59283544 0 0 Z " fill="#F4F4F4" transform="translate(791,514)"/>
<path d="M0 0 C0.66 0 1.32 0 2 0 C5.20363725 9.65120906 6 17.70563562 6 28 C-1.26 28 -8.52 28 -16 28 C-14.12890077 24.25780155 -11.98507179 20.85508308 -9.6875 17.375 C-6.02688816 11.76966513 -2.79462249 6.09480483 0 0 Z " fill="#F0F0F0" transform="translate(1039,786)"/>
<path d="M0 0 C0 0.99 0 1.98 0 3 C-0.61488281 3.25394531 -1.22976563 3.50789063 -1.86328125 3.76953125 C-2.67152344 4.11371094 -3.47976563 4.45789063 -4.3125 4.8125 C-5.11300781 5.14894531 -5.91351562 5.48539062 -6.73828125 5.83203125 C-10.24582204 7.64335197 -11.81639694 9.72459542 -14 13 C-14.99 13 -15.98 13 -17 13 C-16.93107574 9.55378697 -16.79182907 6.94185984 -14.515625 4.234375 C-9.65331068 -0.04612393 -6.4595523 -1.61488807 0 0 Z " fill="#0F0F0F" transform="translate(763,488)"/>
<path d="M0 0 C0.33 1.32 0.66 2.64 1 4 C1.66 4 2.32 4 3 4 C3.04898438 5.07378906 3.09796875 6.14757812 3.1484375 7.25390625 C3.22353398 8.69012642 3.29907876 10.12632319 3.375 11.5625 C3.42140625 12.61920898 3.42140625 12.61920898 3.46875 13.69726562 C3.72952558 18.41295741 4.54658123 22.50385496 6 27 C1.70567303 23.31914831 0.94551548 18.39075144 0 13 C-0.22564074 8.65171481 -0.18667987 4.34894966 0 0 Z " fill="#9A9A9A" transform="translate(841,442)"/>
<path d="M0 0 C0.33 0.99 0.66 1.98 1 3 C-0.98 4.98 -2.96 6.96 -5 9 C-5.66 8.67 -6.32 8.34 -7 8 C-4.79020692 5.18060883 -2.59937954 2.46941056 0 0 Z " fill="#DFDFDF" transform="translate(874,464)"/>
</svg>
