<?xml version="1.0" encoding="UTF-8"?>
<svg version="1.1" xmlns="http://www.w3.org/2000/svg" width="1280" height="1280">
<path d="M0 0 C1.35526711 -0.00134911 2.71053383 -0.00313439 4.06579986 -0.00531223 C7.77758244 -0.01001735 11.48934033 -0.00854868 15.20112408 -0.00603446 C19.24411209 -0.0043957 23.28709494 -0.00854694 27.33008128 -0.01194364 C34.41203849 -0.01708987 41.49398887 -0.01851619 48.57594776 -0.01748753 C59.10737582 -0.01596157 69.63879633 -0.02012664 80.17022292 -0.02536215 C100.07464759 -0.0350309 119.97906968 -0.03784621 139.88349643 -0.03841921 C155.25495234 -0.03887882 170.62640723 -0.04093752 185.99786282 -0.04411983 C190.4231508 -0.04501738 194.84843878 -0.0459072 199.27372676 -0.04679471 C200.9239532 -0.04712628 200.9239532 -0.04712628 202.60751754 -0.04746456 C233.55085256 -0.05361836 264.49418723 -0.05756516 295.43752289 -0.05712128 C296.60405282 -0.0571057 297.77058276 -0.05709012 298.97246208 -0.05707407 C304.88486952 -0.05699096 310.79727696 -0.05689192 316.70968439 -0.05678936 C317.88390183 -0.05676942 319.05811928 -0.05674947 320.26791906 -0.05672892 C322.64247249 -0.05668848 325.01702591 -0.05664669 327.39157933 -0.05660353 C364.33647243 -0.05599076 401.28135636 -0.06349775 438.22624683 -0.07717609 C479.73728799 -0.09253868 521.24832311 -0.10114222 562.75936729 -0.10021287 C567.18622704 -0.10013824 571.6130868 -0.10008953 576.03994656 -0.10005856 C577.67494447 -0.10004107 577.67494447 -0.10004107 579.34297264 -0.10002324 C596.87865398 -0.09999248 614.41432736 -0.10637646 631.95000633 -0.11499082 C649.57540857 -0.12347015 667.20079915 -0.12445504 684.8262023 -0.1178815 C695.29417992 -0.1141878 705.76212212 -0.11601288 716.23009599 -0.12582384 C723.22778817 -0.13182764 730.22545473 -0.13052391 737.22314574 -0.12335334 C741.20661097 -0.11947526 745.1900077 -0.11868631 749.17346808 -0.12681069 C802.88551656 -0.22883352 802.88551656 -0.22883352 824.1971941 19.84738445 C841.27698017 37.91730305 845.51620527 57.9761983 845.48207855 81.94723415 C845.48342581 83.5764945 845.48521005 85.20575454 845.48739079 86.83501399 C845.49212076 91.32150671 845.49061912 95.80797913 845.48811301 100.29447285 C845.48648069 105.17198677 845.49062014 110.04949633 845.49402219 114.92700887 C845.49917879 123.47873115 845.50059294 132.03044776 845.49956608 140.58217144 C845.49804281 153.29894874 845.50219922 166.01571976 845.5074407 178.73249584 C845.51711914 202.76473022 845.51992513 226.79696247 845.52049776 250.82919857 C845.52095703 269.38535296 845.52301392 287.94150652 845.52619839 306.49766064 C845.52709591 311.83599766 845.52798582 317.17433468 845.52887326 322.51267171 C845.52898385 323.17590299 845.52909444 323.83913427 845.52920838 324.52246347 C845.53553238 362.52834194 845.53965751 400.53422012 845.53919983 438.54009914 C845.53918405 439.96237411 845.53916831 441.38464908 845.53915262 442.80692405 C845.53907924 449.22836232 845.53899107 455.6498006 845.53889874 462.07123887 C845.53885761 464.93471536 845.53881747 467.79819185 845.53877742 470.66166834 C845.53875703 472.09488975 845.53873601 473.52811116 845.53871436 474.96133257 C845.5380341 520.28240267 845.54535174 565.60346497 845.55925465 610.92453289 C845.56275567 622.34348708 845.56622513 633.76244128 845.56951904 645.18139553 C845.56972192 645.88450767 845.56992479 646.5876198 845.57013381 647.31203836 C845.57634888 668.9829199 845.58011439 690.6538008 845.58137703 712.32468319 C845.58143696 713.34526738 845.58143696 713.34526738 845.58149809 714.38646943 C845.58235137 729.32273793 845.58261256 744.25900639 845.58232772 759.1952749 C845.58221922 765.204965 845.58217197 771.21465511 845.58213711 777.22434521 C845.58211963 779.19651248 845.58211963 779.19651248 845.58210179 781.20852151 C845.582071 802.38359415 845.58846185 823.5586602 845.59706937 844.73373089 C845.60553845 866.00794514 845.60654164 887.28214974 845.59996005 908.55636474 C845.59625948 921.20029331 845.59811189 933.84419257 845.60790239 946.48811804 C845.61388858 954.93123879 845.61262211 963.37433825 845.60543189 971.81745801 C845.60153889 976.62981666 845.60080778 981.44211847 845.60888924 986.25447318 C845.61618131 990.63507731 845.61421601 995.01557741 845.60496538 999.39617695 C845.60324842 1000.96845364 845.60485817 1002.54073852 845.61026658 1004.11300685 C845.68329366 1026.87251974 840.41656913 1046.81716681 824.4784441 1063.56613445 C808.88056616 1078.27201629 790.17846252 1083.62460156 769.1135149 1083.50615788 C767.73026709 1083.50929588 766.34702176 1083.51374597 764.96378183 1083.51937097 C761.18824697 1083.53096874 757.41294466 1083.52410828 753.63741392 1083.51403712 C749.52019818 1083.50638826 745.40301654 1083.51622203 741.2858057 1083.52376711 C734.07823291 1083.53457802 726.8707276 1083.53428838 719.66315174 1083.52662563 C708.94510388 1083.51526178 698.22711277 1083.52108792 687.50906527 1083.53025055 C668.36485254 1083.54603768 649.22066986 1083.54468262 630.07645428 1083.53601382 C613.32295581 1083.52846488 596.56946834 1083.52649811 579.81596851 1083.53008175 C578.7043398 1083.5303109 577.59271109 1083.53054006 576.44739667 1083.53077616 C571.9348468 1083.53171019 567.42229694 1083.53266539 562.90974708 1083.53365545 C520.58517188 1083.54283088 478.26061581 1083.53451455 435.93604356 1083.51836476 C398.33948974 1083.50412812 360.7429664 1083.50540201 323.14641285 1083.51974773 C280.89886857 1083.53581428 238.6513412 1083.54218014 196.40379429 1083.53291094 C191.89950276 1083.5319488 187.39521122 1083.53101028 182.89091969 1083.53008175 C181.78186163 1083.52984452 180.67280357 1083.52960728 179.53013769 1083.52936286 C162.78784489 1083.52595154 146.04556431 1083.52993923 129.3032732 1083.53752041 C110.26509127 1083.54609826 91.22694408 1083.54395351 72.18876648 1083.52767818 C61.53593213 1083.51887152 50.88317301 1083.51829112 40.23034061 1083.5296167 C33.11208156 1083.53634941 25.99388276 1083.5321471 18.87563263 1083.51910239 C14.82169871 1083.51197533 10.76791412 1083.50950656 6.71398497 1083.52032034 C3.01925724 1083.53007524 -0.67518991 1083.52580303 -4.36989754 1083.51077836 C-6.31054121 1083.50637585 -8.25120169 1083.51652952 -10.19181967 1083.5274412 C-21.59589797 1083.4548767 -32.82341454 1081.84719765 -42.9590559 1076.37863445 C-43.9644038 1075.8547514 -43.9644038 1075.8547514 -44.99006176 1075.32028484 C-50.34129884 1072.45769381 -55.1322607 1069.1999821 -59.6465559 1065.12863445 C-60.23307934 1064.63363445 -60.81960278 1064.13863445 -61.42389965 1063.62863445 C-74.98426234 1051.32898575 -80.93682004 1033.87850864 -82.6465559 1016.12863445 C-82.91111024 1010.63118877 -82.91627809 1005.14437132 -82.89823818 999.6425972 C-82.90032882 998.01407253 -82.90329454 996.3855488 -82.90704691 994.75702712 C-82.91479816 990.30050843 -82.91019457 985.84407699 -82.90349101 981.38755981 C-82.8984014 976.53208579 -82.90494385 971.67662478 -82.90997767 966.82115263 C-82.9171919 958.31734068 -82.91698753 949.81355413 -82.91188335 941.30974102 C-82.90431384 928.6641464 -82.90818826 916.01857318 -82.91429997 903.3729787 C-82.92482976 880.78678773 -82.92391931 858.20060808 -82.91814214 835.61441603 C-82.91311111 815.84823894 -82.91179759 796.082066 -82.91418743 776.3158884 C-82.9143402 775.00477088 -82.91449297 773.69365336 -82.91465037 772.34280501 C-82.91527305 767.02054597 -82.91590866 761.69828693 -82.9165699 756.3760279 C-82.9184038 741.49862092 -82.91954508 726.62121392 -82.92014217 711.74380684 C-82.92016947 711.06635849 -82.92019676 710.38891015 -82.92022488 709.69093306 C-82.92104327 688.10876264 -82.9187905 666.52659365 -82.91444302 644.94442368 C-82.91430252 644.24456435 -82.91416202 643.54470502 -82.91401726 642.82363784 C-82.91172745 631.45885981 -82.90928849 620.09408181 -82.90683692 608.72930382 C-82.89712502 563.65969195 -82.89757478 518.59009197 -82.90729809 473.52048016 C-82.90974054 462.16258305 -82.91216267 450.80468593 -82.91444302 439.44678879 C-82.91458391 438.74740881 -82.91472481 438.04802883 -82.91486997 437.32745552 C-82.91918346 415.76838856 -82.92101068 394.20932258 -82.92014217 372.6502552 C-82.92011501 371.9732928 -82.92008784 371.29633039 -82.92005984 370.59885398 C-82.91943484 355.73727496 -82.91816747 340.87569604 -82.91632117 326.01411713 C-82.91558098 320.03447684 -82.91488413 314.05483655 -82.91418743 308.07519627 C-82.91402928 306.76703196 -82.91387112 305.45886766 -82.91370817 304.11106201 C-82.91143342 284.35817509 -82.91409344 264.60529278 -82.91914654 244.8524065 C-82.9248638 222.39126885 -82.92343807 199.93014429 -82.91258505 177.46900827 C-82.90671166 164.8989998 -82.90633033 152.32901967 -82.9138774 139.75901194 C-82.91836312 131.36154578 -82.91556926 122.96410233 -82.90686786 114.56663954 C-82.90211271 109.78292477 -82.90047867 104.99926628 -82.90767983 100.21555329 C-82.91417323 95.85749981 -82.91134858 91.49955219 -82.90131851 87.14150633 C-82.89931618 85.58077241 -82.90060447 84.02002958 -82.90573038 82.45930279 C-82.97518539 59.68234205 -79.16834825 38.52484479 -62.9278059 21.28488445 C-44.59118209 3.95300715 -24.31350034 -0.04049718 0 0 Z " fill="#FDFDFD" transform="translate(273.64655590057373,95.87136554718018)"/>
<path d="M0 0 C284.46 0 568.92 0 862 0 C862.12375 117.7171875 862.12375 117.7171875 862.25 237.8125 C862.28641602 262.61510986 862.32283203 287.41771973 862.36035156 312.97192383 C862.37841797 343.20056152 862.37841797 343.20056152 862.3817749 357.34062195 C862.38550962 367.24101039 862.40020166 377.14130885 862.42230225 387.04167175 C862.44774708 398.45700738 862.45934763 409.8722565 862.4537798 421.2876207 C862.45136802 427.12823036 862.45521689 432.96864664 862.47686052 438.80922091 C862.49631712 444.09169059 862.49729927 449.37383004 862.48360443 454.65631485 C862.48190934 456.56489952 862.48697299 458.47350485 862.49953032 460.38204896 C862.58804126 474.67583742 861.10867738 487.05709656 851.1015625 498.09375 C841.49151117 507.39156139 831.08130922 509.75161965 818.03905201 509.62361908 C816.6617331 509.62823778 815.28442013 509.63504717 813.90712145 509.64382517 C810.13862306 509.66154926 806.37078429 509.64836971 802.60231302 509.62993505 C798.4964224 509.6153988 794.3906156 509.62999399 790.28472775 509.64082003 C783.09406965 509.65577947 775.90360715 509.65221012 768.71295357 509.63640213 C758.0203347 509.61296016 747.32786289 509.61818969 736.63523078 509.62911103 C717.53829528 509.64769226 698.44145311 509.63798988 679.34452523 509.61663339 C662.63438725 509.59807801 645.9242806 509.58965456 629.21413231 509.59120178 C628.10579954 509.59129346 626.99746676 509.59138513 625.85554815 509.59147959 C621.3565203 509.59187274 616.85749245 509.59232237 612.35846461 509.59285098 C570.15576953 509.59772197 527.95313006 509.57505986 485.75045226 509.53889475 C448.2482555 509.50689488 410.74610622 509.49485229 373.24389648 509.50097656 C370.83547007 509.50136341 368.42704366 509.50174986 366.01861725 509.50213593 C364.82794132 509.50232728 363.6372654 509.50251862 362.41050838 509.50271577 C356.41691573 509.50367009 350.42332308 509.50458446 344.42973042 509.50545502 C343.24730825 509.50562881 342.06488609 509.5058026 340.84663295 509.50598167 C309.51580222 509.51033555 278.18497662 509.50032545 246.85414952 509.48561716 C245.73982178 509.48509702 244.62549404 509.48457688 243.4773988 509.48404097 C242.3650962 509.48352163 241.25279359 509.48300229 240.10678485 509.4824672 C238.99650819 509.48194946 237.88623154 509.48143172 236.74231014 509.48089829 C234.50630777 509.47985021 232.27030541 509.47878999 230.03430305 509.47771757 C214.43889859 509.47033366 198.84350139 509.46824936 183.24809541 509.46971158 C163.15382755 509.47155622 143.05960447 509.46350882 122.96535126 509.43807012 C112.33591948 509.42489396 101.70655917 509.41990077 91.07712097 509.42670866 C83.9807652 509.43041503 76.88447476 509.42323379 69.78813645 509.40711627 C65.74258229 509.39822614 61.69717538 509.39406679 57.65161804 509.40304345 C53.97031296 509.41110748 50.28929651 509.40534837 46.60802293 509.38862656 C44.66244386 509.38332535 42.71684162 509.39268298 40.77128091 509.40266097 C29.53558836 509.32530524 20.3289462 506.82645898 11.93359375 499.09765625 C0.58185606 487.18587078 -0.87557607 476.01747664 -0.7215271 460.33428955 C-0.7241551 458.34881088 -0.72942294 456.36333426 -0.73709106 454.37786865 C-0.75050369 448.93421845 -0.72653166 443.49128075 -0.69643638 438.04772097 C-0.67018248 432.08284673 -0.67900758 426.11800384 -0.68334389 420.15308762 C-0.68653026 408.58112505 -0.65886154 397.00944247 -0.62033591 385.43755178 C-0.5770975 372.04867241 -0.57236534 358.65996067 -0.56762695 345.27099609 C-0.53613839 309.93061976 -0.45237154 274.59030567 -0.375 239.25 C-0.25125 160.2975 -0.1275 81.345 0 0 Z " fill="#010101" transform="translate(224,637)"/>
<path d="M0 0 C1.35526711 -0.00134911 2.71053383 -0.00313439 4.06579986 -0.00531223 C7.77758244 -0.01001735 11.48934033 -0.00854868 15.20112408 -0.00603446 C19.24411209 -0.0043957 23.28709494 -0.00854694 27.33008128 -0.01194364 C34.41203849 -0.01708987 41.49398887 -0.01851619 48.57594776 -0.01748753 C59.10737582 -0.01596157 69.63879633 -0.02012664 80.17022292 -0.02536215 C100.07464759 -0.0350309 119.97906968 -0.03784621 139.88349643 -0.03841921 C155.25495234 -0.03887882 170.62640723 -0.04093752 185.99786282 -0.04411983 C190.4231508 -0.04501738 194.84843878 -0.0459072 199.27372676 -0.04679471 C200.9239532 -0.04712628 200.9239532 -0.04712628 202.60751754 -0.04746456 C233.55085256 -0.05361836 264.49418723 -0.05756516 295.43752289 -0.05712128 C296.60405282 -0.0571057 297.77058276 -0.05709012 298.97246208 -0.05707407 C304.88486952 -0.05699096 310.79727696 -0.05689192 316.70968439 -0.05678936 C317.88390183 -0.05676942 319.05811928 -0.05674947 320.26791906 -0.05672892 C322.64247249 -0.05668848 325.01702591 -0.05664669 327.39157933 -0.05660353 C364.33647243 -0.05599076 401.28135636 -0.06349775 438.22624683 -0.07717609 C479.73728799 -0.09253868 521.24832311 -0.10114222 562.75936729 -0.10021287 C567.18622704 -0.10013824 571.6130868 -0.10008953 576.03994656 -0.10005856 C577.67494447 -0.10004107 577.67494447 -0.10004107 579.34297264 -0.10002324 C596.87865398 -0.09999248 614.41432736 -0.10637646 631.95000633 -0.11499082 C649.57540857 -0.12347015 667.20079915 -0.12445504 684.8262023 -0.1178815 C695.29417992 -0.1141878 705.76212212 -0.11601288 716.23009599 -0.12582384 C723.22778817 -0.13182764 730.22545473 -0.13052391 737.22314574 -0.12335334 C741.20661097 -0.11947526 745.1900077 -0.11868631 749.17346808 -0.12681069 C802.88551656 -0.22883352 802.88551656 -0.22883352 824.1971941 19.84738445 C841.27698017 37.91730305 845.51620527 57.9761983 845.48207855 81.94723415 C845.48342581 83.5764945 845.48521005 85.20575454 845.48739079 86.83501399 C845.49212076 91.32150671 845.49061912 95.80797913 845.48811301 100.29447285 C845.48648069 105.17198677 845.49062014 110.04949633 845.49402219 114.92700887 C845.49917879 123.47873115 845.50059294 132.03044776 845.49956608 140.58217144 C845.49804281 153.29894874 845.50219922 166.01571976 845.5074407 178.73249584 C845.51711914 202.76473022 845.51992513 226.79696247 845.52049776 250.82919857 C845.52095703 269.38535296 845.52301392 287.94150652 845.52619839 306.49766064 C845.52709591 311.83599766 845.52798582 317.17433468 845.52887326 322.51267171 C845.52898385 323.17590299 845.52909444 323.83913427 845.52920838 324.52246347 C845.53553238 362.52834194 845.53965751 400.53422012 845.53919983 438.54009914 C845.53918405 439.96237411 845.53916831 441.38464908 845.53915262 442.80692405 C845.53907924 449.22836232 845.53899107 455.6498006 845.53889874 462.07123887 C845.53885761 464.93471536 845.53881747 467.79819185 845.53877742 470.66166834 C845.53875703 472.09488975 845.53873601 473.52811116 845.53871436 474.96133257 C845.5380341 520.28240267 845.54535174 565.60346497 845.55925465 610.92453289 C845.56275567 622.34348708 845.56622513 633.76244128 845.56951904 645.18139553 C845.56972192 645.88450767 845.56992479 646.5876198 845.57013381 647.31203836 C845.57634888 668.9829199 845.58011439 690.6538008 845.58137703 712.32468319 C845.58143696 713.34526738 845.58143696 713.34526738 845.58149809 714.38646943 C845.58235137 729.32273793 845.58261256 744.25900639 845.58232772 759.1952749 C845.58221922 765.204965 845.58217197 771.21465511 845.58213711 777.22434521 C845.58211963 779.19651248 845.58211963 779.19651248 845.58210179 781.20852151 C845.582071 802.38359415 845.58846185 823.5586602 845.59706937 844.73373089 C845.60553845 866.00794514 845.60654164 887.28214974 845.59996005 908.55636474 C845.59625948 921.20029331 845.59811189 933.84419257 845.60790239 946.48811804 C845.61388858 954.93123879 845.61262211 963.37433825 845.60543189 971.81745801 C845.60153889 976.62981666 845.60080778 981.44211847 845.60888924 986.25447318 C845.61618131 990.63507731 845.61421601 995.01557741 845.60496538 999.39617695 C845.60324842 1000.96845364 845.60485817 1002.54073852 845.61026658 1004.11300685 C845.68329366 1026.87251974 840.41656913 1046.81716681 824.4784441 1063.56613445 C808.88056616 1078.27201629 790.17846252 1083.62460156 769.1135149 1083.50615788 C767.73026709 1083.50929588 766.34702176 1083.51374597 764.96378183 1083.51937097 C761.18824697 1083.53096874 757.41294466 1083.52410828 753.63741392 1083.51403712 C749.52019818 1083.50638826 745.40301654 1083.51622203 741.2858057 1083.52376711 C734.07823291 1083.53457802 726.8707276 1083.53428838 719.66315174 1083.52662563 C708.94510388 1083.51526178 698.22711277 1083.52108792 687.50906527 1083.53025055 C668.36485254 1083.54603768 649.22066986 1083.54468262 630.07645428 1083.53601382 C613.32295581 1083.52846488 596.56946834 1083.52649811 579.81596851 1083.53008175 C578.7043398 1083.5303109 577.59271109 1083.53054006 576.44739667 1083.53077616 C571.9348468 1083.53171019 567.42229694 1083.53266539 562.90974708 1083.53365545 C520.58517188 1083.54283088 478.26061581 1083.53451455 435.93604356 1083.51836476 C398.33948974 1083.50412812 360.7429664 1083.50540201 323.14641285 1083.51974773 C280.89886857 1083.53581428 238.6513412 1083.54218014 196.40379429 1083.53291094 C191.89950276 1083.5319488 187.39521122 1083.53101028 182.89091969 1083.53008175 C181.78186163 1083.52984452 180.67280357 1083.52960728 179.53013769 1083.52936286 C162.78784489 1083.52595154 146.04556431 1083.52993923 129.3032732 1083.53752041 C110.26509127 1083.54609826 91.22694408 1083.54395351 72.18876648 1083.52767818 C61.53593213 1083.51887152 50.88317301 1083.51829112 40.23034061 1083.5296167 C33.11208156 1083.53634941 25.99388276 1083.5321471 18.87563263 1083.51910239 C14.82169871 1083.51197533 10.76791412 1083.50950656 6.71398497 1083.52032034 C3.01925724 1083.53007524 -0.67518991 1083.52580303 -4.36989754 1083.51077836 C-6.31054121 1083.50637585 -8.25120169 1083.51652952 -10.19181967 1083.5274412 C-21.59589797 1083.4548767 -32.82341454 1081.84719765 -42.9590559 1076.37863445 C-43.9644038 1075.8547514 -43.9644038 1075.8547514 -44.99006176 1075.32028484 C-50.34129884 1072.45769381 -55.1322607 1069.1999821 -59.6465559 1065.12863445 C-60.23307934 1064.63363445 -60.81960278 1064.13863445 -61.42389965 1063.62863445 C-74.98426234 1051.32898575 -80.93682004 1033.87850864 -82.6465559 1016.12863445 C-82.91111024 1010.63118877 -82.91627809 1005.14437132 -82.89823818 999.6425972 C-82.90032882 998.01407253 -82.90329454 996.3855488 -82.90704691 994.75702712 C-82.91479816 990.30050843 -82.91019457 985.84407699 -82.90349101 981.38755981 C-82.8984014 976.53208579 -82.90494385 971.67662478 -82.90997767 966.82115263 C-82.9171919 958.31734068 -82.91698753 949.81355413 -82.91188335 941.30974102 C-82.90431384 928.6641464 -82.90818826 916.01857318 -82.91429997 903.3729787 C-82.92482976 880.78678773 -82.92391931 858.20060808 -82.91814214 835.61441603 C-82.91311111 815.84823894 -82.91179759 796.082066 -82.91418743 776.3158884 C-82.9143402 775.00477088 -82.91449297 773.69365336 -82.91465037 772.34280501 C-82.91527305 767.02054597 -82.91590866 761.69828693 -82.9165699 756.3760279 C-82.9184038 741.49862092 -82.91954508 726.62121392 -82.92014217 711.74380684 C-82.92016947 711.06635849 -82.92019676 710.38891015 -82.92022488 709.69093306 C-82.92104327 688.10876264 -82.9187905 666.52659365 -82.91444302 644.94442368 C-82.91430252 644.24456435 -82.91416202 643.54470502 -82.91401726 642.82363784 C-82.91172745 631.45885981 -82.90928849 620.09408181 -82.90683692 608.72930382 C-82.89712502 563.65969195 -82.89757478 518.59009197 -82.90729809 473.52048016 C-82.90974054 462.16258305 -82.91216267 450.80468593 -82.91444302 439.44678879 C-82.91458391 438.74740881 -82.91472481 438.04802883 -82.91486997 437.32745552 C-82.91918346 415.76838856 -82.92101068 394.20932258 -82.92014217 372.6502552 C-82.92011501 371.9732928 -82.92008784 371.29633039 -82.92005984 370.59885398 C-82.91943484 355.73727496 -82.91816747 340.87569604 -82.91632117 326.01411713 C-82.91558098 320.03447684 -82.91488413 314.05483655 -82.91418743 308.07519627 C-82.91402928 306.76703196 -82.91387112 305.45886766 -82.91370817 304.11106201 C-82.91143342 284.35817509 -82.91409344 264.60529278 -82.91914654 244.8524065 C-82.9248638 222.39126885 -82.92343807 199.93014429 -82.91258505 177.46900827 C-82.90671166 164.8989998 -82.90633033 152.32901967 -82.9138774 139.75901194 C-82.91836312 131.36154578 -82.91556926 122.96410233 -82.90686786 114.56663954 C-82.90211271 109.78292477 -82.90047867 104.99926628 -82.90767983 100.21555329 C-82.91417323 95.85749981 -82.91134858 91.49955219 -82.90131851 87.14150633 C-82.89931618 85.58077241 -82.90060447 84.02002958 -82.90573038 82.45930279 C-82.97518539 59.68234205 -79.16834825 38.52484479 -62.9278059 21.28488445 C-44.59118209 3.95300715 -24.31350034 -0.04049718 0 0 Z M-52.2012434 36.10519695 C-62.85985759 49.2837391 -65.10355757 62.9768122 -65.02407932 79.41287518 C-65.02721272 81.05616972 -65.03165943 82.69946219 -65.03729242 84.34275007 C-65.04895589 88.85426815 -65.04199462 93.36559317 -65.03195856 97.87710804 C-65.02434204 102.78689545 -65.03413076 107.69665349 -65.04168856 112.60643673 C-65.05252288 121.21014197 -65.05219538 129.81379074 -65.04454708 138.41749859 C-65.03320472 151.21146102 -65.03899821 164.00537576 -65.048172 176.79933786 C-65.0639758 199.64865775 -65.06259743 222.49795249 -65.05393527 245.34727478 C-65.04639202 265.34295991 -65.04441195 285.33863607 -65.0480032 305.33432293 C-65.04823564 306.67348223 -65.0484671 308.01264153 -65.04869761 309.35180083 C-65.04962901 314.73336825 -65.05058501 320.11493566 -65.0515769 325.49650307 C-65.05432788 340.54007884 -65.05603971 355.58365465 -65.05693531 370.62723064 C-65.05697625 371.31227134 -65.05701719 371.99731205 -65.05705936 372.70311156 C-65.05828714 394.53048045 -65.05490682 416.35784615 -65.04838657 438.18521404 C-65.04817583 438.89313316 -65.04796508 439.60105228 -65.04774795 440.33042349 C-65.04431313 451.8264686 -65.04065473 463.32251364 -65.03697743 474.81855867 C-65.02240849 520.41281153 -65.0230847 566.00703796 -65.03766918 611.6012907 C-65.04133277 623.0915454 -65.04496593 634.58180009 -65.04838657 646.07205486 C-65.04859792 646.77955801 -65.04880926 647.48706116 -65.04902701 648.21600379 C-65.05549585 670.02068237 -65.05823834 691.82535875 -65.05693531 713.63003826 C-65.05689456 714.3145755 -65.0568538 714.99911274 -65.05681182 715.70439353 C-65.05587437 730.7312745 -65.05397343 745.75815523 -65.0512038 760.78503596 C-65.05021638 766.16178344 -65.04927714 771.53853094 -65.04835167 776.91527843 C-65.0481195 778.25286508 -65.04788331 779.59045172 -65.04764308 780.92803836 C-65.04394418 801.58007317 -65.04761269 822.23209484 -65.05544186 842.88412762 C-65.06401215 865.60457081 -65.0618911 888.3249849 -65.04559962 911.04542446 C-65.03678023 923.76513009 -65.03623093 936.48477271 -65.04753815 949.20447673 C-65.05425555 957.6967304 -65.05009625 966.18893346 -65.03702384 974.68117963 C-65.02987551 979.52238408 -65.02747233 984.36346316 -65.03824179 989.20466375 C-65.04794243 993.61026188 -65.0438016 998.01562357 -65.02869981 1002.42120451 C-65.02568248 1004.00362451 -65.02766575 1005.58606416 -65.03531762 1007.16846853 C-65.11363999 1024.60513065 -61.00715842 1038.18448877 -48.79108715 1051.1012907 C-37.26703417 1061.99561401 -23.99728965 1065.90382166 -8.35977459 1065.75784016 C-6.97140439 1065.76307011 -5.58304106 1065.7704869 -4.19469267 1065.77986199 C-0.40481286 1065.7991935 3.38442349 1065.78775743 7.1742919 1065.77097222 C11.3069297 1065.75822465 15.43947309 1065.77461347 19.5720973 1065.78718889 C26.80674517 1065.80520758 34.04120633 1065.80472414 41.27586269 1065.79195309 C52.03414796 1065.77301366 62.79227619 1065.78272332 73.55056046 1065.79799462 C92.76657389 1065.82430682 111.98250415 1065.82204796 131.19852547 1065.80760006 C148.0148478 1065.7950186 164.83113964 1065.79174049 181.64746571 1065.79771328 C182.76325346 1065.79809521 183.87904121 1065.79847713 185.02864071 1065.79887063 C189.55807143 1065.80042734 194.08750213 1065.80201934 198.61693282 1065.80366945 C241.10003305 1065.8189619 283.58308034 1065.80510118 326.0661724 1065.77818496 C363.80372232 1065.75445722 401.54118788 1065.75658037 439.27873707 1065.78048992 C481.68450289 1065.80726738 524.09022194 1065.81787734 566.49599504 1065.8024286 C571.01713752 1065.80082503 575.53828 1065.79926083 580.05942249 1065.79771328 C581.72923376 1065.7971202 581.72923376 1065.7971202 583.43277859 1065.79651514 C600.23787431 1065.79082955 617.0429362 1065.79747584 633.84802723 1065.81011105 C652.95759789 1065.82440734 672.06707241 1065.82083319 691.17663109 1065.79370733 C701.86950305 1065.77902927 712.56216681 1065.7780625 723.25503335 1065.7969382 C730.39999078 1065.80815916 737.54478147 1065.80115611 744.68971422 1065.77941435 C748.75896455 1065.76753527 752.82780162 1065.76342174 756.89703876 1065.78144427 C760.60575902 1065.79770221 764.31370289 1065.79058444 768.02236754 1065.76554096 C769.97040011 1065.75820278 771.91847921 1065.77512749 773.86644071 1065.79331237 C787.95070772 1065.64449018 801.05894973 1060.60247214 811.5643816 1051.13644695 C825.37251827 1036.69345342 827.82500032 1019.77749747 827.73096752 1000.59295177 C827.73410344 998.95900658 827.738552 997.32506348 827.74418062 995.69112498 C827.75580812 991.21953059 827.7489019 986.74813184 827.73884676 982.27654082 C827.73121262 977.40477297 827.74102591 972.5330343 827.74857676 967.66127062 C827.75939828 959.12888113 827.75909145 950.59654862 827.75143528 942.06415653 C827.7400812 929.37612712 827.74589251 916.6881457 827.7550602 904.0001166 C827.77085489 881.3384562 827.76948925 858.67682118 827.76082346 836.01515837 C827.75327712 816.18357081 827.75130655 796.35199256 827.7548914 776.52040386 C827.75512055 775.20498218 827.75534971 773.88956049 827.75558581 772.53427754 C827.75651982 767.19456642 827.75747323 761.8548553 827.7584651 756.51514419 C827.76121594 741.58902325 827.76292787 726.66290228 827.76382351 711.73678112 C827.76388492 710.71728411 827.76388492 710.71728411 827.76394756 709.6771912 C827.76517515 688.0245118 827.761796 666.37183561 827.75527477 644.71915722 C827.75506403 644.01701186 827.75485328 643.31486651 827.75463615 642.59144402 C827.75120142 631.18950997 827.74754298 619.78757599 827.74386562 608.38564202 C827.72929694 563.16601209 827.72997315 517.9464088 827.74455738 472.72677898 C827.74822104 461.33055658 827.75185423 449.93433417 827.75527477 438.53811169 C827.75548612 437.83637702 827.75569746 437.13464236 827.75591521 436.41164301 C827.76238506 414.78125751 827.76512634 393.15087422 827.76382351 371.52048779 C827.76378276 370.84132404 827.763742 370.1621603 827.76370002 369.46241584 C827.76276252 354.5527966 827.7608615 339.64317759 827.758092 324.73355858 C827.75698171 318.73466074 827.75593644 312.73576289 827.7548914 306.73686504 C827.75465416 305.42448386 827.75441693 304.11210268 827.75417251 302.75995238 C827.75075994 282.94071907 827.75475121 263.12149609 827.76233006 243.30226421 C827.77090447 220.76716431 827.76877048 198.23209376 827.75248782 175.69699752 C827.74367539 163.08455283 827.74310912 150.47217168 827.75442635 137.85972863 C827.76115209 129.43524927 827.75696931 121.01082088 827.74391204 112.58634907 C827.73677534 107.78636749 827.73433641 102.98651219 827.74512999 98.18653458 C827.75486014 93.81486631 827.75064755 89.44343569 827.73558801 85.07178455 C827.73258102 83.50501847 827.73452642 81.93823246 827.74220582 80.37148232 C827.82825221 61.4659917 824.46443972 47.03643454 811.3925066 33.02707195 C799.31173358 21.39539831 785.25026414 17.81702702 768.96671009 17.87415886 C767.60300022 17.87176695 766.23929166 17.86850043 764.87558573 17.86444226 C761.12635369 17.85582652 757.37722183 17.85964695 753.62798825 17.86549798 C749.54964129 17.86966853 745.47131261 17.86226617 741.39297009 17.85634547 C734.24428151 17.84757853 727.09562159 17.84627312 719.94692898 17.84984875 C709.31622687 17.85515197 698.68555252 17.84906419 688.05485343 17.84076581 C667.96295882 17.8255136 647.87107679 17.82382208 627.77917761 17.82628884 C612.26224454 17.82812079 596.74531561 17.82636396 581.22838306 17.8220644 C578.99983819 17.821462 576.77129332 17.8208608 574.54274845 17.8202608 C571.18458841 17.81935355 567.82642837 17.81844488 564.46826833 17.81752845 C533.23807852 17.80909672 502.00789026 17.80476464 470.77769947 17.80893517 C469.59999147 17.80909154 468.42228346 17.80924792 467.20888734 17.80940903 C461.23969157 17.81021482 455.27049581 17.81106059 449.30130005 17.81192233 C448.11578501 17.81209342 446.93026997 17.81226451 445.70883024 17.81244078 C443.31142819 17.81278744 440.91402614 17.81313597 438.51662409 17.81348637 C401.22312636 17.81884213 363.92965227 17.81091816 326.63615894 17.79245281 C284.74169042 17.77173368 242.84723654 17.76101009 200.9527626 17.7650283 C196.48485216 17.76542364 192.01694171 17.76578519 187.54903126 17.76612568 C186.4489111 17.76621641 185.34879093 17.76630714 184.2153338 17.76640062 C167.61080084 17.7675664 151.00628268 17.76091968 134.40175343 17.75031376 C115.51317057 17.73826128 96.6246203 17.73670321 77.73603696 17.74910393 C67.16807938 17.75573158 56.60019972 17.75410365 46.03224838 17.74051541 C38.96780395 17.73226546 31.90341781 17.73497558 24.83897811 17.74649068 C20.81731191 17.75274176 16.79579761 17.7543618 12.77414024 17.74262735 C-22.93144237 17.25939018 -22.93144237 17.25939018 -52.2012434 36.10519695 Z " fill="#000000" transform="translate(273.64655590057373,95.87136554718018)"/>
<path d="M0 0 C1.62189244 1.37519682 3.22604129 2.77157269 4.8125 4.1875 C5.64523437 4.91453125 6.47796875 5.6415625 7.3359375 6.390625 C19.96318175 18.12424889 28.07513488 34.1055544 29.92622375 51.24821472 C30.01022346 52.02402175 30.09422316 52.79982878 30.18076831 53.59914511 C31.157422 63.52037895 31.08447025 73.44456592 31.05541992 83.40356445 C31.05649564 85.57229164 31.0584386 87.74101853 31.06117249 89.90974426 C31.06597629 95.7441049 31.0584223 101.5783878 31.04821944 107.41273904 C31.03936769 113.54584414 31.04119774 119.67894731 31.0415802 125.8120575 C31.04064693 136.10136194 31.03200709 146.39063668 31.01831055 156.67993164 C31.00256777 168.54976214 30.99731338 180.41956022 30.9980461 192.2894004 C30.9987231 204.9729097 30.99177612 217.65640663 30.9825995 230.33991218 C30.98047563 233.97650497 30.97975935 237.61309575 30.97936058 241.2496891 C30.97835114 246.9748915 30.97220569 252.70006703 30.96219444 258.42526054 C30.95929093 260.51775065 30.95803968 262.61024386 30.95862198 264.7027359 C30.96354318 293.1686496 27.78045887 317.93151972 6.8125 339.1875 C-9.45889645 354.87777515 -28.33864618 360.85882888 -50.62548828 360.65625 C-69.82754068 360.12092343 -85.93987471 352.97114912 -100.1875 340.1875 C-101.10208984 339.41212891 -101.10208984 339.41212891 -102.03515625 338.62109375 C-116.82204187 325.18153256 -124.07140846 304.63222433 -125.1875 285.1875 C-125.38067713 277.97876877 -125.33473383 270.7648777 -125.33276367 263.55419922 C-125.33575938 261.36343835 -125.33916286 259.172678 -125.34294128 256.98191833 C-125.35174436 251.05392855 -125.35411786 245.12595321 -125.35475707 239.19795752 C-125.35546976 235.48692139 -125.35760824 231.77588889 -125.36025429 228.06485367 C-125.36901995 215.76501381 -125.37367551 203.46518271 -125.37292381 191.16533969 C-125.37288386 190.50395142 -125.3728439 189.84256315 -125.37280273 189.16113281 C-125.37276185 188.49892428 -125.37272097 187.83671575 -125.37267885 187.1544403 C-125.3722981 177.1016447 -125.38008686 167.04888021 -125.39331055 156.99609375 C-125.40865824 145.28807358 -125.41706684 133.5800764 -125.41634732 121.87204564 C-125.41609342 115.68727294 -125.41888462 109.50254011 -125.42952538 103.31777573 C-125.43927054 97.49496835 -125.4392419 91.67223843 -125.43200874 85.84942818 C-125.43097078 83.72475762 -125.43327832 81.60008208 -125.4393692 79.47542 C-125.51652406 50.67266853 -122.22419684 27.58135638 -101.1875 6.1875 C-100.50042969 5.48753906 -99.81335938 4.78757813 -99.10546875 4.06640625 C-89.84142302 -4.75076528 -78.48385915 -10.52192502 -66.1875 -13.8125 C-65.03121094 -14.14894531 -65.03121094 -14.14894531 -63.8515625 -14.4921875 C-41.72589482 -20.00472586 -17.78390431 -13.63341041 0 0 Z " fill="#010101" transform="translate(603.1875,249.8125)"/>
<path d="M0 0 C0.97839844 0.25652344 1.95679688 0.51304687 2.96484375 0.77734375 C23.25919132 6.39991567 39.36007927 18.93287831 50 37 C57.64596966 50.94456039 60.15623721 65.0365126 60.14044189 80.74427795 C60.14341302 81.68397932 60.14638414 82.62368069 60.1494453 83.59185785 C60.15806877 86.71888125 60.15963513 89.84586608 60.16113281 92.97290039 C60.16576551 95.22410157 60.17079077 97.47530197 60.17617798 99.72650146 C60.18926093 105.82808761 60.19573897 111.92966276 60.20018864 118.03126073 C60.20312615 121.84914944 60.20723224 125.66703519 60.21169281 129.48492241 C60.22379396 140.07866954 60.23417844 150.67241408 60.2375679 161.26616764 C60.23789725 162.28118332 60.23789725 162.28118332 60.23823325 163.31670436 C60.23845153 163.99489709 60.23866981 164.67308983 60.2388947 165.37183386 C60.23933815 166.74585474 60.23978471 168.11987561 60.24023438 169.49389648 C60.24056652 170.51621478 60.24056652 170.51621478 60.24090537 171.55918597 C60.24484893 182.58942928 60.26229297 193.61960634 60.2855939 204.64982409 C60.30938454 216.00455587 60.32151596 227.35924334 60.32293582 238.71400446 C60.32398048 245.07709134 60.32981592 251.44008468 60.34775543 257.80314827 C60.36431845 263.79420961 60.36635184 269.78510791 60.35761642 275.77618408 C60.35685043 277.96416602 60.36113039 280.15215703 60.37107468 282.3401165 C60.48442821 308.85399494 55.96420924 332.45839511 37.25 352.375 C21.1723649 367.54400894 1.4855539 374.57377708 -20.44165039 374.41943359 C-41.15195435 373.80676118 -60.27548449 365.32306435 -74.6015625 350.265625 C-79.40756055 344.57558049 -83.4961835 338.56837903 -87 332 C-87.45246094 331.16082031 -87.90492188 330.32164062 -88.37109375 329.45703125 C-95.80610596 314.52081978 -95.43598365 298.78130379 -95.38818359 282.50390625 C-95.39225588 280.16152706 -95.39760143 277.8191498 -95.40411377 275.47677612 C-95.4177149 269.15449631 -95.41251856 262.83236443 -95.40297651 256.51008224 C-95.39611809 250.54530447 -95.40137238 244.5805398 -95.4057581 238.61576235 C-95.41428558 226.08246776 -95.40451955 213.54923931 -95.388357 201.01595557 C-95.37495622 190.29283053 -95.37728506 179.56980297 -95.39111328 168.84667969 C-95.40721603 156.35416406 -95.41346185 143.8617062 -95.40427649 131.36918163 C-95.39955553 124.77093318 -95.3989274 118.17273883 -95.40888596 111.57449341 C-95.4175986 105.36911514 -95.41145551 99.16391962 -95.39420319 92.95856094 C-95.39026122 90.69114611 -95.39133273 88.4237157 -95.39799118 86.15630722 C-95.47878056 55.83231916 -95.47878056 55.83231916 -88.3125 42.75 C-87.96437256 42.08798584 -87.61624512 41.42597168 -87.25756836 40.74389648 C-77.04966849 21.81325781 -61.54965161 7.73542566 -41 1 C-28.07346141 -2.86544193 -13.05033338 -4.08552476 0 0 Z " fill="#FDFDFD" transform="translate(770,672)"/>
<path d="M0 0 C96.99223316 0 96.99223316 0 111.3125 7.75 C111.96855225 8.09216553 112.62460449 8.43433105 113.30053711 8.78686523 C119.27335161 11.98400466 124.76950425 15.68837512 130 20 C130.61875 20.5053125 131.2375 21.010625 131.875 21.53125 C147.041076 35.2930597 154.07054561 55.39814913 155.18798828 75.35783386 C155.26062164 78.69979817 155.27756121 82.03618915 155.265625 85.37890625 C155.26753845 86.59343979 155.2694519 87.80797333 155.27142334 89.05931091 C155.2727731 91.60456553 155.2691621 94.14982731 155.26074219 96.69506836 C155.25001628 100.55663727 155.26068419 104.41774205 155.2734375 108.27929688 C155.27211587 110.77083434 155.26955341 113.26237153 155.265625 115.75390625 C155.26967346 116.8896962 155.27372192 118.02548615 155.27789307 119.19569397 C155.13765713 143.55362364 147.03308115 163.53320613 130 181 C131.42176343 184.23128051 133.16783467 186.35909765 135.625 188.875 C150.72071149 205.58713069 155.36390678 226.43097595 155.22705078 248.43115234 C155.22734283 249.69140732 155.22763489 250.95166229 155.22793579 252.25010681 C155.22850203 255.6562534 155.21686815 259.06225477 155.20278788 262.46836805 C155.19015675 266.0464193 155.18910038 269.62447506 155.18673706 273.20254517 C155.18055824 279.95593547 155.16419696 286.70925986 155.14403808 293.46262133 C155.11735173 302.60411494 155.10667731 311.74562699 155.09503365 320.88714981 C155.07631311 335.2581491 155.03644376 349.62900939 155 364 C135.53 364 116.06 364 96 364 C95.9906543 359.85622803 95.98130859 355.71245605 95.97167969 351.44311523 C95.9379221 337.75657896 95.88258088 324.07020149 95.81609726 310.38378811 C95.77631326 302.08520121 95.74391755 293.78670905 95.72900391 285.48803711 C95.71598404 278.25363851 95.68901096 271.01944843 95.64538693 263.78516728 C95.62277945 259.95576595 95.60708888 256.12662173 95.60811615 252.29714775 C95.6088632 248.68957774 95.59089515 245.08257592 95.55883217 241.47515297 C95.54630779 239.52634243 95.55339372 237.57743646 95.56114197 235.62860107 C95.48084083 228.871186 95.11679258 224.45794998 91 219 C81.91652641 210.15556518 70.45261713 212.56602805 58 212 C58 262.16 58 312.32 58 364 C38.86 364 19.72 364 0 364 C0 243.88 0 123.76 0 0 Z " fill="#010101" transform="translate(280,240)"/>
<path d="M0 0 C19.47 0 38.94 0 59 0 C59 50.49 59 100.98 59 153 C71.54 153 84.08 153 97 153 C97 102.51 97 52.02 97 0 C116.14 0 135.28 0 155 0 C155 120.12 155 240.24 155 364 C135.86 364 116.72 364 97 364 C97 313.51 97 263.02 97 211 C84.46 211 71.92 211 59 211 C59 261.49 59 311.98 59 364 C39.53 364 20.06 364 0 364 C0 243.88 0 123.76 0 0 Z " fill="#FDFDFD" transform="translate(476,676)"/>
<path d="M0 0 C19.47 0 38.94 0 59 0 C59.33 45.21 59.66 90.42 60 137 C71.55 125.45 83.1 113.9 95 102 C95.66 102 96.32 102 97 102 C97 68.34 97 34.68 97 0 C116.14 0 135.28 0 155 0 C156.49962622 19.87686386 157.80071499 39.65735124 158.4375 59.5625 C158.46138668 60.28812921 158.48527336 61.01375841 158.50988388 61.76137638 C160.60510029 127.14665546 160.60510029 127.14665546 139.10240173 150.72236633 C135.43877032 154.52094099 131.54917242 157.99438872 127.5 161.375 C126.84232006 161.92482166 126.18464012 162.47464333 125.50703049 163.04112625 C117.4216405 169.70722707 109.01384877 175.64636404 100 181 C101.48928093 184.91583751 103.53742233 186.22349008 107.09228516 188.31982422 C126.92424958 200.63984781 149.99658791 217.58387864 155.8391037 241.42391205 C159.62855771 262.05253306 158.96984784 283.43752317 158.3125 304.3125 C158.29009782 305.04286815 158.26769564 305.77323629 158.2446146 306.52573681 C157.6450054 325.72761965 156.39026303 344.82486269 155 364 C135.86 364 116.72 364 97 364 C97 330.34 97 296.68 97 262 C95.68 261.34 94.36 260.68 93 260 C87.55007235 255.07291094 82.63184763 249.69055567 78 244 C76.3434297 242.32329777 74.67497314 240.65831858 73 239 C71.98461502 237.97500936 70.97032706 236.94893103 69.95703125 235.921875 C68.90887692 234.86456077 67.86069962 233.80726933 66.8125 232.75 C66.27947266 232.20859375 65.74644531 231.6671875 65.19726562 231.109375 C62.37492463 228.19242899 62.37492463 228.19242899 59 226 C59 271.54 59 317.08 59 364 C39.53 364 20.06 364 0 364 C0 243.88 0 123.76 0 0 Z " fill="#010101" transform="translate(875,240)"/>
<path d="M0 0 C19.47 0 38.94 0 59 0 C58.87496094 8.60964844 58.74992188 17.21929688 58.62109375 26.08984375 C58.57453256 32.2707772 58.53878521 38.45104075 58.51852322 44.63203907 C58.49090955 52.62053728 58.4386117 60.60623848 58.2902832 68.59350586 C58.17283444 74.92238065 58.11689573 81.24847975 58.13146263 87.57847506 C58.13710408 90.92576586 58.10511955 94.26178477 58.01739311 97.60868645 C57.48607702 115.28025785 57.48607702 115.28025785 66.21312809 129.99943638 C69.6401617 133.23830425 73.18349538 136.23075406 77 139 C84.79662865 135.28858313 91.70930119 129.56614047 96 122 C98.67295509 112.9453642 97.88931276 103.18162001 97.68359375 93.84765625 C97.66969058 91.13376375 97.67840114 88.42006562 97.6865387 85.7061615 C97.69287898 79.33042207 97.6235023 72.95793748 97.5256682 66.58303779 C97.40731301 58.60046547 97.39223613 50.61808642 97.37695312 42.63476562 C97.34929439 28.42097473 97.1676772 14.21435665 97 0 C116.14 0 135.28 0 155 0 C155.77383089 18.57964476 156.39718839 37.14586367 156.76161385 55.7376461 C156.9354817 64.37436471 157.17224166 73.0001249 157.56494141 81.62988281 C160.36593052 144.36693546 160.36593052 144.36693546 145.01685143 161.8987751 C137.84875358 169.34615702 129.75930324 175.54988424 121 181 C122.25863526 184.86648099 124.7205629 186.30262297 128.05392456 188.40533447 C140.07325738 196.12965749 152.15254118 206.49877238 156.0123291 220.73339844 C160.1160532 241.48042775 158.20117857 263.79137835 157.30485344 284.77602673 C156.94185885 293.42968666 156.76992384 302.0843063 156.61035538 310.74372578 C156.27894226 328.50622082 155.69417827 346.24772583 155 364 C135.86 364 116.72 364 97 364 C97.12503906 355.39035156 97.25007812 346.78070312 97.37890625 337.91015625 C97.42546744 331.7292228 97.46121479 325.54895925 97.48147678 319.36796093 C97.50909045 311.37946272 97.5613883 303.39376152 97.7097168 295.40649414 C97.82716556 289.07761935 97.88310427 282.75152025 97.86853737 276.42152494 C97.86289592 273.07423414 97.89488045 269.73821523 97.98260689 266.39131355 C98.51392298 248.71974215 98.51392298 248.71974215 89.78687191 234.00056362 C86.3598383 230.76169575 82.81650462 227.76924594 79 225 C71.20337135 228.71141687 64.29069881 234.43385953 60 242 C57.32704491 251.0546358 58.11068724 260.81837999 58.31640625 270.15234375 C58.33030942 272.86623625 58.32159886 275.57993438 58.3134613 278.2938385 C58.30712102 284.66957793 58.3764977 291.04206252 58.4743318 297.41696221 C58.59268699 305.39953453 58.60776387 313.38191358 58.62304688 321.36523438 C58.65070561 335.57902527 58.8323228 349.78564335 59 364 C39.53 364 20.06 364 0 364 C-0.79688439 345.56797658 -1.43842665 327.15032081 -1.81342602 308.7053175 C-1.99234614 300.13659355 -2.23592099 291.57958905 -2.64038086 283.01831055 C-5.52375201 220.80947695 -5.52375201 220.80947695 10.27677059 202.84104252 C17.68044563 195.15905288 26.01205493 188.71183402 35 183 C33.35685093 179.17933248 31.28733886 177.68148777 27.79522133 175.43105507 C15.57704064 167.4171278 3.00742667 156.79125627 -1.04416656 142.25331879 C-5.24238495 121.65890312 -3.30285265 99.44196303 -2.37688005 78.59732878 C-2.00233175 70.0115287 -1.8251869 61.42469055 -1.66067898 52.83270824 C-1.31904451 35.21063717 -0.71611561 17.61110247 0 0 Z " fill="#FDFDFD" transform="translate(875,676)"/>
<path d="M0 0 C0.77988281 0.62519531 1.55976563 1.25039063 2.36328125 1.89453125 C3.19472656 2.55066406 4.02617187 3.20679688 4.8828125 3.8828125 C19.05670716 15.79236762 28.96752914 33.83379302 31.16201782 52.26229858 C31.626918 58.34251616 31.4831318 64.45617223 31.4609375 70.55078125 C31.45906955 72.06392368 31.45764743 73.57706671 31.45664978 75.09020996 C31.45285431 79.04884548 31.44304979 83.00744359 31.4319458 86.96606445 C31.42166743 91.01513157 31.41713846 95.06420481 31.41210938 99.11328125 C31.40142451 107.04038164 31.38438427 114.96745178 31.36328125 122.89453125 C25.77661161 123.01846761 20.19074842 123.1090288 14.60302734 123.16918945 C12.70379694 123.19427729 10.80466255 123.22835593 8.90576172 123.27172852 C6.17000604 123.33263455 3.43553055 123.36079778 0.69921875 123.3828125 C-0.14476471 123.40861893 -0.98874817 123.43442535 -1.85830688 123.46101379 C-6.08142776 123.46300646 -8.77060263 123.22490128 -12.10107422 120.49291992 C-14.79020071 117.7372514 -17.28674471 114.92783303 -19.73046875 111.95703125 C-21.65475761 109.6990156 -21.65475761 109.6990156 -24.71655273 107.93481445 C-26.78089688 106.21623063 -27.54388175 105.28568751 -28.17007446 102.64730835 C-28.34487361 99.81154096 -28.33607394 97.02783341 -28.265625 94.1875 C-28.26747299 93.14813797 -28.26932098 92.10877594 -28.27122498 91.03791809 C-28.27547345 87.71848701 -28.24133683 84.4011765 -28.19921875 81.08203125 C-28.16233939 77.77373589 -28.13471639 74.46679202 -28.13792419 71.15827942 C-28.13968228 69.10240593 -28.11877093 67.0463472 -28.07167053 64.99101257 C-28.07358706 58.45659007 -29.21364582 53.85382574 -33.63671875 48.89453125 C-38.72823238 45.01363481 -43.75657402 44.25393762 -50.0859375 44.5078125 C-55.08260427 45.26534697 -57.7154121 47.8487237 -60.94921875 51.51953125 C-70.14551972 64.46247336 -68.18519004 90.83991168 -65.69384766 106.27423096 C-63.08026366 119.76282627 -52.7778544 128.76268066 -42.85546875 137.421875 C-42.33430316 137.87981131 -41.81313756 138.33774761 -41.27617908 138.80956078 C-35.85156754 143.56085034 -30.32824097 148.18578188 -24.73844546 152.74108672 C-12.54612231 162.6784261 -0.95948025 173.2242165 10.203125 184.3046875 C10.71738187 184.81388292 11.23163873 185.32307835 11.76147914 185.84770393 C28.37102991 202.39860519 37.66918898 217.78202709 38.1601696 241.84923649 C38.12814431 246.50994432 37.83063643 251.12766728 37.42578125 255.76953125 C37.34852814 256.66626934 37.27127502 257.56300743 37.19168091 258.4869194 C36.13362203 269.84903776 34.09031756 280.82305733 31.36328125 291.89453125 C30.96727814 293.65372786 30.57576005 295.41394955 30.19165039 297.17578125 C25.45773163 318.42749081 15.48096825 335.69515758 -2.71875 348.1171875 C-21.99055782 359.85570498 -43.24575113 364.45410422 -65.51171875 359.33203125 C-77.75992895 356.22823803 -88.25483798 350.38289957 -97.63671875 341.89453125 C-98.3946875 341.229375 -99.15265625 340.56421875 -99.93359375 339.87890625 C-114.68126628 326.14831459 -122.91804633 306.92288034 -123.89657593 286.88745117 C-123.97963326 282.81302605 -123.97626183 278.75020442 -123.9296875 274.67578125 C-123.92407013 273.19649696 -123.91981021 271.71720698 -123.91682434 270.23791504 C-123.90554352 266.40419223 -123.87622821 262.57082789 -123.8427124 258.73724365 C-123.8116427 254.80144089 -123.79824142 250.86557838 -123.78320312 246.9296875 C-123.75133628 239.25114127 -123.70035233 231.57288708 -123.63671875 223.89453125 C-85.61868975 220.49342543 -85.61868975 220.49342543 -74.07568359 228.30664062 C-65.72490977 235.86300141 -64.08133508 243.58261873 -63.44921875 254.41015625 C-63.17090436 260.82009144 -63.16808024 267.20138248 -63.36938477 273.61352539 C-63.40108765 274.63561096 -63.43279053 275.65769653 -63.4654541 276.71075439 C-63.5387802 278.65310156 -63.63508622 280.59476222 -63.75793457 282.53460693 C-64.0221208 288.25257611 -63.54514372 291.37424563 -59.63671875 295.89453125 C-54.22086174 300.66564338 -50.88996283 301.31603298 -43.75390625 301.23046875 C-39.16430035 300.73584957 -35.77224111 299.31510109 -32.63671875 295.89453125 C-23.12261129 279.467156 -23.14756777 254.429076 -27.40209961 236.41351318 C-31.3085967 225.27899223 -40.73173722 217.35415304 -49.41796875 209.80078125 C-49.9389618 209.34520647 -50.45995485 208.88963169 -50.99673557 208.42025161 C-56.42954252 203.685512 -61.95529745 199.06864887 -67.53587556 194.509489 C-79.73314995 184.53787584 -91.32941099 173.96495808 -102.46484375 162.8203125 C-102.9789125 162.30662873 -103.49298124 161.79294495 -104.02262783 161.263695 C-120.84584455 144.33343731 -130.00791223 128.48944023 -130.57054138 104.05013466 C-130.55415239 99.20866176 -130.27047486 94.40696539 -129.88671875 89.58203125 C-129.77999344 88.19294052 -129.77999344 88.19294052 -129.67111206 86.77578735 C-128.66028167 74.59310118 -126.64629012 62.73642806 -123.63671875 50.89453125 C-123.44006119 50.11382389 -123.24340363 49.33311653 -123.04078674 48.52875137 C-122.42646995 46.12261167 -121.79364833 43.72230291 -121.15136719 41.32348633 C-120.96194172 40.60183887 -120.77251625 39.8801914 -120.57735062 39.13667583 C-115.06811098 19.29138185 -100.73195452 4.54300944 -83.63671875 -6.10546875 C-57.63470906 -20.69502081 -23.69980796 -17.80394739 0 0 Z " fill="#FDFDFD" transform="translate(403.63671875,685.10546875)"/>
<path d="M0 0 C0.86344497 -0.00024107 1.72688993 -0.00048214 2.6164999 -0.00073051 C5.37847572 0.00074807 8.14017284 0.01591324 10.90209961 0.03173828 C12.62048208 0.03468324 14.33886635 0.03672089 16.05725098 0.0378418 C22.38967601 0.04827668 28.7220625 0.07619919 35.05444336 0.10205078 C49.22381836 0.14330078 63.39319336 0.18455078 77.99194336 0.22705078 C77.99194336 43.78705078 77.99194336 87.34705078 77.99194336 132.22705078 C58.85194336 132.22705078 39.71194336 132.22705078 19.99194336 132.22705078 C19.99194336 107.47705078 19.99194336 82.72705078 19.99194336 57.22705078 C2.83662494 56.41144189 2.83662494 56.41144189 -11.96899414 62.94580078 C-12.43563477 63.53361328 -12.90227539 64.12142578 -13.38305664 64.72705078 C-14.1062207 65.60876953 -14.1062207 65.60876953 -14.84399414 66.50830078 C-17.67898375 70.69419149 -17.1562592 75.27311267 -17.15522766 80.11381531 C-17.15890435 81.03361689 -17.16258104 81.95341847 -17.16636914 82.90109283 C-17.17741959 85.99632333 -17.18125214 89.09152028 -17.18505859 92.18676758 C-17.19132222 94.4008037 -17.19796893 96.61483877 -17.20497131 98.82887268 C-17.22239042 104.85382977 -17.23293559 110.87877891 -17.24117684 116.90375495 C-17.24632513 120.66694066 -17.25240094 124.43012391 -17.25868797 128.19330788 C-17.27555865 138.61525871 -17.29019335 149.03720796 -17.29743671 159.45917034 C-17.29934656 162.16329131 -17.3012669 164.86741227 -17.30322266 167.5715332 C-17.30394827 168.57965913 -17.30394827 168.57965913 -17.30468854 169.60815123 C-17.31298648 180.49223921 -17.33831957 191.37621719 -17.37080333 202.26025715 C-17.40389264 213.43846907 -17.42155454 224.61664122 -17.42508096 235.79490596 C-17.42743292 242.06955322 -17.43641263 248.34402665 -17.46154213 254.61862755 C-17.48480499 260.52261764 -17.48906308 266.42631922 -17.47878075 272.33034325 C-17.47828484 274.4958848 -17.48462121 276.66144046 -17.49833679 278.82693863 C-17.51603261 281.78676079 -17.50896049 284.74554501 -17.49580383 287.70536804 C-17.50677308 288.55937327 -17.51774233 289.41337849 -17.52904397 290.29326266 C-17.46740248 296.04964651 -16.23004836 300.4110298 -13.00805664 305.22705078 C-10.62963087 307.63111462 -10.62963087 307.63111462 -8.00805664 309.22705078 C-7.40993164 309.63955078 -6.81180664 310.05205078 -6.19555664 310.47705078 C-0.64400335 312.38044048 4.87590318 311.48447526 10.16772461 309.27001953 C15.28025234 306.34701117 17.45695149 301.76245252 18.99194336 296.22705078 C19.31367824 293.11902317 19.31367824 293.11902317 19.31079102 289.85449219 C19.33066071 288.61365875 19.3505304 287.37282532 19.3710022 286.09439087 C19.38287569 284.75580015 19.39453872 283.41720755 19.40600586 282.07861328 C19.42473427 280.69712183 19.44430892 279.31564162 19.46469116 277.93417358 C19.51584197 274.31425628 19.55555833 270.69430196 19.59283447 267.07421875 C19.63298163 263.3737692 19.68392032 259.67346896 19.73413086 255.97314453 C19.83170089 248.72450444 19.91135258 241.4759791 19.99194336 234.22705078 C39.13194336 234.22705078 58.27194336 234.22705078 77.99194336 234.22705078 C78.1523786 251.01481576 78.1523786 251.01481576 78.18725586 258.27978516 C78.21098613 263.1991545 78.23877335 268.11822063 78.29370117 273.03735352 C78.3377957 277.01206804 78.36121132 280.98645656 78.37145233 284.96139717 C78.37873162 286.4629586 78.3929382 287.96450622 78.41486359 289.46592522 C78.73329762 312.21788449 72.18943895 331.19377938 56.39331055 347.80175781 C41.46976797 362.98009258 22.16759105 370.51721439 1.05444336 370.72705078 C-18.80037495 370.52984299 -36.01904327 364.5642137 -51.00805664 351.22705078 C-51.61907227 350.68564453 -52.23008789 350.14423828 -52.85961914 349.58642578 C-59.90959119 342.94019663 -64.82211937 334.95181136 -69.25805664 326.41455078 C-69.58733154 325.79974854 -69.91660645 325.18494629 -70.25585938 324.55151367 C-77.03484586 311.02299196 -76.44462497 296.68951782 -76.41210938 281.95800781 C-76.41781958 279.61592281 -76.42478635 277.27384058 -76.4329071 274.9317627 C-76.45078176 268.60110829 -76.4496808 262.27059292 -76.44396472 255.9399209 C-76.4404714 249.97003898 -76.44844877 244.00017392 -76.45532537 238.03029726 C-76.46901823 225.48366283 -76.46363544 212.93709094 -76.45214016 200.39045797 C-76.44221133 188.94267083 -76.45514806 177.4950454 -76.47907435 166.04728319 C-76.50352777 154.25736305 -76.51305793 142.46751804 -76.50642163 130.67757308 C-76.5029432 124.07256544 -76.50541012 117.46766608 -76.52267265 110.86267471 C-76.53820496 104.64907622 -76.53411645 98.43578511 -76.51536751 92.22219849 C-76.511699 89.95155773 -76.51473888 87.68089388 -76.5252533 85.41027451 C-76.5912428 69.97224824 -75.70069985 55.99505615 -68.38305664 42.03955078 C-68.04314697 41.38011475 -67.7032373 40.72067871 -67.35302734 40.04125977 C-57.57380137 21.82946255 -41.21766968 9.5703058 -21.81665039 3.30517578 C-14.43192172 1.21472951 -7.6887497 -0.07069428 0 0 Z " fill="#000000" transform="translate(752.008056640625,239.77294921875)"/>
<path d="M0 0 C5.87958304 2.57634312 9.54883459 7.11716798 12 13 C12.55400607 16.2064315 12.54518964 19.34747414 12.5146637 22.5955658 C12.52508199 24.01714669 12.52508199 24.01714669 12.53571075 25.46744639 C12.55396235 28.63340566 12.54372132 31.79861404 12.53344727 34.96459961 C12.54050664 37.23834289 12.54925173 39.51208148 12.55955505 41.78581238 C12.58205639 47.95523676 12.57910746 54.12440468 12.57023358 60.29385448 C12.56512348 65.44555482 12.57241646 70.59720699 12.57970566 75.74890238 C12.59767887 88.59728311 12.59129159 101.44548586 12.57353585 114.29385508 C12.55884086 125.44286509 12.57346631 136.59160555 12.60230602 147.74058085 C12.6317251 159.19920876 12.64215719 170.657666 12.63312382 182.11633879 C12.62819433 188.54519188 12.63041178 194.97383547 12.65091133 201.40266228 C12.66926519 207.44796991 12.6633126 213.49277662 12.63871193 219.53805733 C12.63370328 221.7551918 12.63719512 223.97236443 12.64986038 226.18946838 C12.66579799 229.21937095 12.65083229 232.24762546 12.62818909 235.27745056 C12.64002482 236.152073 12.65186054 237.02669543 12.66405493 237.92782158 C12.55154711 245.35247556 9.84279041 250.23010166 4.5625 255.375 C-1.61102754 259.2899199 -6.97945029 259.5575771 -14 258 C-19.00075074 255.54680152 -22.43425467 251.91682672 -25 247 C-26.26306401 242.32044312 -26.1452902 237.68103252 -26.14044189 232.87272644 C-26.14341302 231.95121601 -26.14638414 231.02970558 -26.1494453 230.08027059 C-26.15811958 226.99124867 -26.15963947 223.90226556 -26.16113281 220.81323242 C-26.16576184 218.59890154 -26.17078661 216.38457146 -26.17617798 214.17024231 C-26.18929473 208.15366449 -26.19574538 202.13709783 -26.20018864 196.12050796 C-26.20312017 192.36166658 -26.2072251 188.60282826 -26.21169281 184.84398842 C-26.22379904 174.43053308 -26.23418229 164.01707989 -26.2375679 153.60361767 C-26.23778747 152.93762563 -26.23800703 152.27163358 -26.23823325 151.58545997 C-26.23845153 150.9179059 -26.23866981 150.25035183 -26.2388947 149.56256884 C-26.23933816 148.20992545 -26.23978473 146.85728206 -26.24023438 145.50463867 C-26.2404558 144.83368572 -26.24067723 144.16273278 -26.24090537 143.47144792 C-26.24485313 132.60044184 -26.26230813 121.7295028 -26.2855939 110.85852262 C-26.30932488 99.68928422 -26.32151269 88.52007024 -26.32293582 77.35080415 C-26.32398411 71.08292766 -26.32989742 64.81514578 -26.34775543 58.54729271 C-26.36422687 52.65151838 -26.36639603 46.7559099 -26.35761642 40.86012077 C-26.35684559 38.69780788 -26.3611948 36.53548611 -26.37107468 34.37319565 C-26.38378428 31.41800786 -26.37792252 28.46340837 -26.36749268 25.50822449 C-26.37554908 24.6555835 -26.38360548 23.80294252 -26.39190602 22.92446393 C-26.33906984 16.50946755 -25.36884212 10.73472269 -21.02734375 5.72265625 C-20.33769531 5.17480469 -19.64804687 4.62695312 -18.9375 4.0625 C-18.24527344 3.49660156 -17.55304687 2.93070313 -16.83984375 2.34765625 C-11.86841299 -1.29383762 -5.91450375 -0.71942502 0 0 Z " fill="#020202" transform="translate(759,729)"/>
<path d="M0 0 C5.28763623 3.08861927 9.7214355 7.172119 11.69140625 13.08203125 C11.79649222 16.11494617 11.84359959 19.12528467 11.8453064 22.15861511 C11.85187978 23.56894413 11.85187978 23.56894413 11.85858595 25.00776464 C11.87198717 28.17208923 11.8781558 31.33638596 11.88427734 34.50073242 C11.89217726 36.7640292 11.90044614 39.02732471 11.90905762 41.2906189 C11.93529019 48.73540034 11.95058634 56.18018744 11.96484375 63.625 C11.97020289 66.1863995 11.9755804 68.74779896 11.9809761 71.30919838 C12.0026065 81.96276386 12.02149499 92.61632646 12.0325985 103.26990795 C12.03552813 106.03418672 12.0384898 108.79846546 12.04150391 111.56274414 C12.04224996 112.24978116 12.04299601 112.93681819 12.04376467 113.64467452 C12.05641506 124.77128278 12.08963446 135.89773113 12.13130574 147.02426466 C12.17375041 158.45109548 12.19688895 169.87780506 12.20251906 181.30472165 C12.20617482 187.71913938 12.21822058 194.13328602 12.2506218 200.5476284 C12.28067135 206.58298335 12.28702503 212.61790273 12.27523804 218.6533165 C12.27501705 220.86724151 12.28334305 223.08118656 12.30089188 225.29504204 C12.32356843 228.32072877 12.31529474 231.34483408 12.29940796 234.37052917 C12.32023109 235.68071912 12.32023109 235.68071912 12.34147489 237.01737756 C12.26159566 243.20361436 10.5791573 247.26414267 6.69140625 252.08203125 C1.06707458 257.30462495 -3.70176979 257.42936969 -11.13671875 257.36328125 C-16.51603482 256.88629756 -18.98364085 254.48059264 -22.55859375 250.70703125 C-26.40363584 244.93946811 -26.59726157 239.48650546 -26.56256104 232.78981018 C-26.56568102 231.86265621 -26.568801 230.93550223 -26.57201552 229.98025268 C-26.57998331 226.87812759 -26.57367655 223.77619877 -26.56738281 220.67407227 C-26.57009323 218.44811895 -26.57365445 216.22216654 -26.57800293 213.99621582 C-26.58712365 207.95288306 -26.5835838 201.90961857 -26.57724476 195.86628461 C-26.57218253 189.54211572 -26.5768769 183.21795269 -26.58001709 176.89378357 C-26.58388948 165.59174794 -26.57767202 154.28974697 -26.56749842 142.98771828 C-26.55856533 132.74692375 -26.56011346 122.50617457 -26.56933594 112.26538086 C-26.58004714 100.36595007 -26.58401847 88.46654681 -26.57811141 76.56710953 C-26.57499383 70.27080346 -26.57457653 63.97452862 -26.58118439 57.67822456 C-26.58696361 51.75783557 -26.58295028 45.83753216 -26.57139587 39.9171524 C-26.56875227 37.74474924 -26.56950926 35.57233887 -26.5739212 33.39993858 C-26.57938988 30.43360726 -26.57252626 27.46754986 -26.56256104 24.50123596 C-26.5692532 23.21309198 -26.5692532 23.21309198 -26.57608056 21.89892489 C-26.52864235 14.61361705 -25.69037769 8.46381519 -20.30859375 3.08203125 C-14.21426276 -1.51981051 -7.30216921 -2.90356982 0 0 Z " fill="#FBFBFB" transform="translate(563.30859375,293.91796875)"/>
<path d="M0 0 C26.55274262 0 26.55274262 0 33.05859375 5.8515625 C33.74115234 6.72941406 33.74115234 6.72941406 34.4375 7.625 C34.91058594 8.21539062 35.38367188 8.80578125 35.87109375 9.4140625 C38.29037629 12.81277777 38.13755757 15.3059063 38.16113281 19.44995117 C38.16858017 20.44301773 38.16858017 20.44301773 38.17617798 21.45614624 C38.19081025 23.65176426 38.19760506 25.84730992 38.203125 28.04296875 C38.20887775 29.57033795 38.21463547 31.09770713 38.22039795 32.62507629 C38.23091245 35.83216692 38.23675145 39.03923245 38.24023438 42.24633789 C38.24570511 46.34412371 38.26970045 50.4415749 38.29820633 54.5392561 C38.31689114 57.69723963 38.32204151 60.85514374 38.32357025 64.01317787 C38.32658664 65.52297091 38.33458078 67.03276288 38.34775543 68.54250145 C38.36493095 70.6629461 38.36290779 72.78258899 38.35644531 74.90307617 C38.36191376 76.70937752 38.36191376 76.70937752 38.36749268 78.5521698 C37.71802031 84.64554408 35.22847778 89.52278823 31 94 C21.36323379 100.74573635 12.71164787 98 0 98 C0 65.66 0 33.32 0 0 Z " fill="#FAFAFA" transform="translate(338,297)"/>
<path d="M0 0 C4.76998586 3.87196896 8.39554463 8.16610576 9.59765625 14.296875 C10.28582679 21.71660466 9.72116259 28.18177934 5.12109375 34.2421875 C0.0234911 39.80532464 -5.32211432 42.31599701 -12.83984375 42.734375 C-20.04008853 42.4245538 -25.47152627 39.68328644 -30.33984375 34.421875 C-34.50456878 29.18704702 -35.90129273 24.37050719 -35.7109375 17.73046875 C-34.93445643 11.60708008 -32.75525688 6.12525152 -28.21484375 1.859375 C-19.83955207 -4.41318388 -9.03490699 -5.89511662 0 0 Z M-26.77734375 9.359375 C-29.33693047 13.98632023 -30.07347826 18.06761862 -29.40234375 23.296875 C-27.65229356 28.55653671 -25.18387399 32.33688009 -20.40234375 35.296875 C-15.71788185 37.43543369 -12.40040894 37.50011292 -7.40234375 36.296875 C-5.02206084 34.87012327 -5.02206084 34.87012327 -3.40234375 33.296875 C-5.05234375 33.296875 -6.70234375 33.296875 -8.40234375 33.296875 C-9.06234375 29.996875 -9.72234375 26.696875 -10.40234375 23.296875 C-12.05234375 22.966875 -13.70234375 22.636875 -15.40234375 22.296875 C-15.73234375 25.596875 -16.06234375 28.896875 -16.40234375 32.296875 C-18.05234375 32.626875 -19.70234375 32.956875 -21.40234375 33.296875 C-21.40234375 24.386875 -21.40234375 15.476875 -21.40234375 6.296875 C-8.40234375 7.296875 -8.40234375 7.296875 -4.40234375 10.296875 C-4.01171875 12.55859375 -4.01171875 12.55859375 -4.15234375 14.984375 C-4.1884375 15.79261719 -4.22453125 16.60085938 -4.26171875 17.43359375 C-4.33132813 18.35591797 -4.33132813 18.35591797 -4.40234375 19.296875 C-5.06234375 19.626875 -5.72234375 19.956875 -6.40234375 20.296875 C-5.08234375 24.256875 -3.76234375 28.216875 -2.40234375 32.296875 C1.96430668 28.15415536 3.72706869 25.62627017 3.97265625 19.609375 C3.90732213 14.01514055 2.23630244 10.48566133 -1.40234375 6.296875 C-4.93310287 3.01244791 -7.62629973 2.02541047 -12.33984375 1.796875 C-18.85294141 2.09069895 -22.70666909 4.11034715 -26.77734375 9.359375 Z M-15.40234375 11.296875 C-15.40234375 13.276875 -15.40234375 15.256875 -15.40234375 17.296875 C-13.75234375 17.296875 -12.10234375 17.296875 -10.40234375 17.296875 C-10.02015608 15.64072843 -9.68839273 13.97230476 -9.40234375 12.296875 C-10.4687949 11.00053879 -10.4687949 11.00053879 -12.96484375 11.234375 C-13.76921875 11.255 -14.57359375 11.275625 -15.40234375 11.296875 Z " fill="#000000" transform="translate(1158.40234375,1151.703125)"/>
<path d="M0 0 C0.66 0.33 1.32 0.66 2 1 C-0.64 3.64 -3.28 6.28 -6 9 C-6 6 -6 6 -3.5625 3.375 C-2.716875 2.59125 -1.87125 1.8075 -1 1 C-0.67 0.67 -0.34 0.34 0 0 Z " fill="#D5D5D5" transform="translate(546,295)"/>
</svg>
