<?xml version="1.0" encoding="UTF-8"?>
<svg version="1.1" xmlns="http://www.w3.org/2000/svg" width="2000" height="364">
<path d="M0 0 C3.50543036 1.75271518 5.19443842 2.94701302 7.86328125 5.6328125 C8.58580078 6.35726563 9.30832031 7.08171875 10.05273438 7.828125 C11.17131836 8.96507812 11.17131836 8.96507812 12.3125 10.125 C13.41368164 11.22714844 13.41368164 11.22714844 14.53710938 12.3515625 C17.9252891 15.76679956 21.22683245 19.21198596 24.35546875 22.8671875 C28.94665039 28.19187932 33.99709947 33.06751563 39 38 C44.70111977 43.62087613 50.32239853 49.23989422 55.51611328 55.34130859 C57.1099803 57.19308369 57.1099803 57.19308369 59.65234375 59.30078125 C63.95580874 63.08930172 66.1768526 66.10096211 66.5703125 71.86328125 C66.65555735 76.59944984 66.39241946 81.28127712 66 86 C65.21870728 85.41750488 65.21870728 85.41750488 64.42163086 84.82324219 C63.05358962 83.80354395 61.68511821 82.78442277 60.31640625 81.765625 C58.8644121 80.65887735 57.43102318 79.52679156 56.02734375 78.359375 C28.53521658 55.68764007 -10.33780649 46.5287893 -45.32519531 49.70654297 C-79.42185593 53.44734126 -111.1918763 68.42162498 -133.36157227 95.01611328 C-146.87386369 111.89043958 -155.83848953 132.1067872 -161 153 C-161.32097656 154.25683594 -161.64195312 155.51367188 -161.97265625 156.80859375 C-167.03451809 179.45302305 -165.89648767 206.674147 -160 229 C-159.81276367 229.72477539 -159.62552734 230.44955078 -159.43261719 231.19628906 C-150.86090997 263.39570738 -131.79676981 292.10695609 -102.87841797 309.25830078 C-86.52615822 318.7343345 -69.63991873 324.19669011 -51 327 C-49.75669922 327.19722656 -49.75669922 327.19722656 -48.48828125 327.3984375 C-19.62319148 331.12621524 9.70013303 325.05864374 35 311 C35.90878906 310.50757813 36.81757813 310.01515625 37.75390625 309.5078125 C47.22960793 304.12354541 56.39162967 297.24312082 63.73046875 289.1796875 C65 288 65 288 67 288 C69.09108904 303.60274133 69.09108904 303.60274133 64.45703125 310.21875 C61.26987089 314.11990441 57.68106089 317.57180357 54 321 C53.18917969 321.82757813 52.37835938 322.65515625 51.54296875 323.5078125 C32.45398307 342.16219781 5.84439942 353.60985324 -19.75 359.8125 C-20.55203857 360.00739014 -21.35407715 360.20228027 -22.18041992 360.40307617 C-36.7227437 363.71964393 -51.0280956 364.40711193 -65.875 364.375 C-66.82198761 364.37445618 -67.76897522 364.37391235 -68.74465942 364.37335205 C-116.79885028 364.24667898 -159.34065427 348.16286977 -195 316 C-195.74894531 315.32453125 -196.49789062 314.6490625 -197.26953125 313.953125 C-203.57469314 307.94331692 -208.82731437 300.98230221 -214 294 C-214.64654541 293.12794922 -214.64654541 293.12794922 -215.30615234 292.23828125 C-234.23031289 266.29680587 -246.02112732 232.56711798 -246.203125 200.35546875 C-246.20882507 199.54620438 -246.21452515 198.73694 -246.22039795 197.90315247 C-246.22979274 196.19464398 -246.23635979 194.48611782 -246.24023438 192.77758789 C-246.24983132 190.23223797 -246.28086164 187.68773551 -246.3125 185.14257812 C-246.41092733 170.01812817 -244.70295757 155.16238008 -240.375 140.625 C-239.99758667 139.33891846 -239.99758667 139.33891846 -239.61254883 138.02685547 C-233.4409522 117.82255195 -223.89992211 99.6969752 -211 83 C-210.34902344 82.1440625 -209.69804687 81.288125 -209.02734375 80.40625 C-180.13269449 43.68034066 -137.03727346 20.59865511 -90.953125 14.3359375 C-59.94628681 10.80870458 -29.5637073 14.1454309 0 24 C0 16.08 0 8.16 0 0 Z " fill="#07090A" transform="translate(246,0)"/>
<path d="M0 0 C12.81899535 11.61302715 16.75720328 27.32865536 18 44 C18.12817404 47.92876249 18.12700019 51.8531256 18.11352539 55.78369141 C18.11367142 56.91656586 18.11381744 58.04944031 18.1139679 59.21664429 C18.11327614 62.92830377 18.10551848 66.63991188 18.09765625 70.3515625 C18.09578945 72.93801852 18.09436678 75.5244749 18.09336853 78.1109314 C18.08995199 84.20215433 18.0820858 90.29335634 18.07201904 96.38457143 C18.06079976 103.32541843 18.05533287 110.26626635 18.05032361 117.20712018 C18.03990142 131.47142478 18.02157936 145.73570802 18 160 C25.26 160 32.52 160 40 160 C40 166.27 40 172.54 40 179 C13.27 179 -13.46 179 -41 179 C-41.04898438 169.85023438 -41.09796875 160.70046875 -41.1484375 151.2734375 C-41.18384526 145.45832417 -41.21973908 139.64322048 -41.2578125 133.828125 C-41.31808317 124.60907236 -41.37643477 115.3900377 -41.421875 106.17089844 C-41.45498761 99.45470631 -41.49492252 92.73859389 -41.54279006 86.02249014 C-41.56786524 82.47182914 -41.58970055 78.9212197 -41.60334396 75.37049484 C-41.61876504 71.39059903 -41.64942895 67.41095166 -41.68115234 63.43115234 C-41.68331253 62.27524094 -41.68547272 61.11932953 -41.68769836 59.9283905 C-41.77311668 42.44879113 -41.77311668 42.44879113 -49 27 C-52.96901435 23.47198724 -57.81243799 22.87009444 -63 23 C-68.0482489 23.93017824 -71.88157389 25.9199426 -74.98142529 30.16222572 C-79.10950544 37.61035831 -79.44355667 45.64878484 -79.43237305 53.96728516 C-79.4425647 55.11966675 -79.45275635 56.27204834 -79.46325684 57.45935059 C-79.493245 61.2359716 -79.50263133 65.01233836 -79.51171875 68.7890625 C-79.52857589 71.42036777 -79.54672752 74.05166504 -79.56611633 76.68295288 C-79.60961418 82.88038755 -79.63826331 89.07779626 -79.66143972 95.27533662 C-79.68858162 102.33717982 -79.73248714 109.39888861 -79.77772844 116.46063542 C-79.8703349 130.9736799 -79.94153035 145.4867788 -80 160 C-74.39 160 -68.78 160 -63 160 C-63 166.27 -63 172.54 -63 179 C-94.02 179 -125.04 179 -157 179 C-157 172.73 -157 166.46 -157 160 C-151.39 160 -145.78 160 -140 160 C-140 110.83 -140 61.66 -140 11 C-145.61 11 -151.22 11 -157 11 C-157 5.06 -157 -0.88 -157 -7 C-132.58 -7 -108.16 -7 -83 -7 C-82.505 4.88 -82.505 4.88 -82 17 C-80.88625 15.370625 -79.7725 13.74125 -78.625 12.0625 C-69.87797105 0.14448158 -58.65052897 -8.43243008 -43.70703125 -10.75 C-27.78842593 -12.22011651 -12.74650646 -10.32835893 0 0 Z " fill="#07090A" transform="translate(909,103)"/>
<path d="M0 0 C11.72185858 9.34650398 17.78379758 21.9386414 19.7518158 36.69247437 C21.26935598 50.80200599 21.13032342 64.91754948 21.09765625 79.08984375 C21.09578751 81.48979157 21.09436577 83.88973977 21.09336853 86.28968811 C21.08957922 92.55802493 21.0797802 98.82633799 21.06866455 105.09466553 C21.05837268 111.51037271 21.05385436 117.92608379 21.04882812 124.34179688 C21.03815418 136.89454328 21.02058708 149.44726593 21 162 C28.26 162 35.52 162 43 162 C43 168.27 43 174.54 43 181 C15.94 181 -11.12 181 -39 181 C-39.02578125 171.33332031 -39.0515625 161.66664063 -39.078125 151.70703125 C-39.10330327 145.56833935 -39.12948208 139.42967846 -39.16015625 133.29101562 C-39.2086157 123.55607344 -39.25309087 113.8212344 -39.27099609 104.08618164 C-39.28405823 96.99455522 -39.31113823 89.90313985 -39.35461307 82.81163234 C-39.37712611 79.06140506 -39.39291685 75.31143708 -39.39188385 71.56113625 C-39.39113115 68.0208499 -39.40932212 64.48113453 -39.44116783 60.94099617 C-39.45355809 59.04343756 -39.44665055 57.14578252 -39.43885803 55.24819946 C-39.54997109 45.96645905 -40.69603502 36.43426879 -46.375 28.8125 C-51.69624508 25.13830697 -56.21547323 24.50186409 -62.53515625 25.34765625 C-66.76931485 26.46826558 -69.37524323 28.53057416 -72 32 C-76.67044191 40.78555688 -77.15155517 49.38917274 -77.20532227 59.14599609 C-77.21522186 60.2587793 -77.22512146 61.3715625 -77.23532104 62.51806641 C-77.2668417 66.18650199 -77.2916562 69.85495051 -77.31640625 73.5234375 C-77.33698392 76.07077364 -77.3579806 78.61810642 -77.37937927 81.16543579 C-77.42888414 87.1788457 -77.4741711 93.19227299 -77.51740164 99.20573008 C-77.56687442 106.05462083 -77.62175514 112.90346494 -77.67708123 119.75231051 C-77.79072141 133.83483038 -77.89740738 147.91739571 -78 162 C-72.39 162 -66.78 162 -61 162 C-61 168.27 -61 174.54 -61 181 C-91.69 181 -122.38 181 -154 181 C-154 174.73 -154 168.46 -154 162 C-148.39 162 -142.78 162 -137 162 C-137 112.83 -137 63.66 -137 13 C-142.61 13 -148.22 13 -154 13 C-154 7.06 -154 1.12 -154 -5 C-129.58 -5 -105.16 -5 -80 -5 C-79.505 6.88 -79.505 6.88 -79 19 C-77.02 16.03 -75.04 13.06 -73 10 C-55.2555259 -11.23673762 -23.01020535 -16.1037247 0 0 Z " fill="#07090A" transform="translate(1280,101)"/>
<path d="M0 0 C12.00705138 9.90154948 17.69290264 22.52601706 19.79652214 37.82434273 C20.23700353 42.53412557 20.12875564 47.26791229 20.11352539 51.99389648 C20.11367142 53.18485428 20.11381744 54.37581207 20.1139679 55.6028595 C20.11339278 58.85029274 20.10839571 62.09768226 20.10139394 65.34510684 C20.09512028 68.74569936 20.09455343 72.14629284 20.09336853 75.54689026 C20.09026701 81.97820501 20.08206958 88.40950265 20.07201904 94.84080988 C20.0608212 102.16610253 20.05533822 109.49139601 20.05032361 116.81669509 C20.03988593 131.87780781 20.02155518 146.93889832 20 162 C27.59 162 35.18 162 43 162 C43 168.27 43 174.54 43 181 C15.94 181 -11.12 181 -39 181 C-39.04898438 171.35910156 -39.09796875 161.71820313 -39.1484375 151.78515625 C-39.18382707 145.6738192 -39.21970899 139.5624916 -39.2578125 133.45117188 C-39.31818703 123.7531958 -39.37656389 114.05523745 -39.421875 104.35717773 C-39.45488716 97.29347934 -39.49476889 90.22985828 -39.54279006 83.1662454 C-39.56796365 79.42850728 -39.58977154 75.69081984 -39.60334396 71.9530201 C-39.61864996 67.77333654 -39.64929717 63.59389686 -39.68115234 59.41430664 C-39.68331253 58.18431442 -39.68547272 56.9543222 -39.68769836 55.6870575 C-39.78164451 46.02369819 -40.31289372 36.5548987 -47 29 C-51.09986256 25.67628069 -54.8868567 24.69280062 -60.125 25 C-64.61271742 25.70894922 -67.60728322 26.84962013 -71 30 C-76.84213819 38.55041418 -77.29806216 48.5427548 -77.31884766 58.57836914 C-77.32889328 59.70134399 -77.3389389 60.82431885 -77.34928894 61.98132324 C-77.37999806 65.66592939 -77.39712205 69.35046328 -77.4140625 73.03515625 C-77.432784 75.60062781 -77.45235814 78.16609328 -77.4727478 80.73155212 C-77.51874526 86.77673391 -77.55619043 92.82190927 -77.58942068 98.8671698 C-77.62776424 105.7548498 -77.67714194 112.64243723 -77.72740483 119.53003895 C-77.83046875 133.68662493 -77.91942007 147.84326978 -78 162 C-72.39 162 -66.78 162 -61 162 C-61 168.27 -61 174.54 -61 181 C-92.02 181 -123.04 181 -155 181 C-155 174.73 -155 168.46 -155 162 C-149.06 162 -143.12 162 -137 162 C-137 112.83 -137 63.66 -137 13 C-142.94 13 -148.88 13 -155 13 C-155 7.06 -155 1.12 -155 -5 C-130.58 -5 -106.16 -5 -81 -5 C-80.505 7.375 -80.505 7.375 -80 20 C-76.535 15.05 -76.535 15.05 -73 10 C-65.60669785 -0.19076782 -54.24282244 -6.06574047 -42.05078125 -8.6171875 C-27.14460064 -10.48761733 -12.50699704 -8.71872853 0 0 Z " fill="#07090A" transform="translate(485,101)"/>
<path d="M0 0 C20.93171969 17.1666004 31.78730196 42.25925759 34.86767578 68.78198242 C37.47368477 97.64423249 32.26514407 128.2155755 14.21972656 151.60913086 C12.86779086 153.19162924 11.49221806 154.75421432 10.09472656 156.29663086 C9.35738281 157.12678711 8.62003906 157.95694336 7.86035156 158.81225586 C-8.26056326 175.98682525 -31.20822143 184.63508307 -54.51074219 185.41772461 C-78.07270646 185.92582252 -100.92235248 180.2339564 -118.90527344 164.29663086 C-120.30712891 163.07073242 -120.30712891 163.07073242 -121.73730469 161.82006836 C-138.30663197 146.67871485 -147.18013376 126.13827715 -150.90527344 104.29663086 C-151.08960938 103.2847168 -151.27394531 102.27280273 -151.46386719 101.23022461 C-154.99855882 69.73080448 -149.50734286 38.03542287 -129.59765625 12.76171875 C-98.88735865 -25.20642253 -37.9636582 -29.8389874 0 0 Z M-71.09277344 7.35913086 C-82.72742312 22.27376157 -82.06382618 45.68263388 -82.07324219 63.61303711 C-82.07646757 65.07877126 -82.07983253 66.54450511 -82.08332825 68.01023865 C-82.08927917 71.07030989 -82.09117247 74.13035308 -82.09057617 77.19042969 C-82.09049512 80.29042421 -82.097409 83.39027029 -82.11108398 86.49023438 C-84.2084064 124.98796842 -84.2084064 124.98796842 -70.35449219 158.98803711 C-65.87894759 162.88609208 -61.97952296 163.67917177 -56.24511719 163.55834961 C-51.31339424 163.00672117 -48.37271423 161.03921679 -45.28027344 157.36694336 C-32.1457438 137.86216684 -34.56964809 108.64845886 -34.64453125 86.3972168 C-34.65592502 82.98213767 -34.64914559 79.5673703 -34.6376543 76.15230179 C-33.06101758 39.97854041 -33.06101758 39.97854041 -45.90527344 7.29663086 C-46.34613281 6.78616211 -46.78699219 6.27569336 -47.24121094 5.74975586 C-50.6809373 2.36704154 -54.0168118 1.42151471 -58.67089844 1.17163086 C-63.9310824 1.46590689 -67.55800565 3.62111392 -71.09277344 7.35913086 Z " fill="#07090A" transform="translate(280.9052734375,105.703369140625)"/>
<path d="M0 0 C14.04997221 11.30024574 21.70027414 26.35376215 24.10296631 44.15142822 C25.11616037 53.98707429 24.74029215 63.9630156 24.6953125 73.8359375 C24.6915758 76.25973391 24.68873194 78.68353185 24.68673706 81.10733032 C24.67915235 87.44311802 24.65954892 93.77881197 24.6373291 100.11456299 C24.61675869 106.59719576 24.60771154 113.0798439 24.59765625 119.5625 C24.57629756 132.25004087 24.54222492 144.9375126 24.5 157.625 C30.44 157.625 36.38 157.625 42.5 157.625 C42.5 163.895 42.5 170.165 42.5 176.625 C17.75 176.625 -7 176.625 -32.5 176.625 C-32.83 170.025 -33.16 163.425 -33.5 156.625 C-34.77875 158.130625 -36.0575 159.63625 -37.375 161.1875 C-46.80858631 171.64133311 -58.67895459 178.58279895 -72.84545898 179.83178711 C-75.21350534 179.92698371 -77.5676392 179.95438794 -79.9375 179.9375 C-80.77079834 179.93186035 -81.60409668 179.9262207 -82.46264648 179.92041016 C-95.33155254 179.66637722 -106.23449136 174.68460845 -115.5 165.625 C-127.09901777 151.55533943 -131.38350646 134.69098386 -130.25390625 116.70703125 C-128.27851143 99.55780722 -121.79608132 85.85952675 -108.5 74.625 C-91.33274019 61.92863807 -67.774623 59.38010452 -47.06738281 61.92382812 C-43.14976737 62.59281744 -39.31446413 63.51437613 -35.5 64.625 C-35.78309809 45.04910973 -35.78309809 45.04910973 -45.5 28.625 C-55.04880024 21.88149701 -65.03835077 20.70030519 -76.5 21.625 C-88.59641717 24.08957839 -97.40906922 29.17716778 -106.23828125 37.63671875 C-108.28077046 39.43227489 -110.01714773 40.56254376 -112.5 41.625 C-114.03900891 39.91199008 -115.55571869 38.17892512 -117.0625 36.4375 C-117.90941406 35.47457031 -118.75632812 34.51164062 -119.62890625 33.51953125 C-121.5 30.625 -121.5 30.625 -121.4921875 28.0546875 C-114.8723757 11.84396726 -95.89653798 -0.67403924 -80.359375 -7.31640625 C-54.40473459 -16.92529635 -23.14114522 -16.69386098 0 0 Z M-61.25 86.125 C-68.88949023 96.44863544 -69.36009517 110.32384716 -68.5 122.625 C-67.23897647 130.84946966 -65.19064751 138.28584273 -58.875 144 C-53.77270604 146.45666005 -48.7332551 147.37691979 -43.1484375 146.078125 C-40.09817346 144.99112181 -37.80265301 143.92765301 -35.5 141.625 C-35.20694289 139.07596706 -35.20694289 139.07596706 -35.27294922 136.07373047 C-35.27317581 134.33215164 -35.27317581 134.33215164 -35.27340698 132.5553894 C-35.28372955 131.29703278 -35.29405212 130.03867615 -35.3046875 128.7421875 C-35.30893234 126.81537643 -35.30893234 126.81537643 -35.31326294 124.84963989 C-35.32090191 121.43337233 -35.34055248 118.01727463 -35.3626709 114.60107422 C-35.38312376 111.11558327 -35.39226345 107.6300649 -35.40234375 104.14453125 C-35.42379825 97.30461769 -35.45793729 90.464817 -35.5 83.625 C-36.75837545 83.12761691 -38.01930168 82.63668451 -39.28125 82.1484375 C-39.98314453 81.87435059 -40.68503906 81.60026367 -41.40820312 81.31787109 C-48.66954223 78.91267964 -55.78455458 81.15641326 -61.25 86.125 Z " fill="#07090A" transform="translate(1564.5,105.375)"/>
<path d="M0 0 C1.33294747 1.14324906 2.64713675 2.30889546 3.9375 3.5 C4.54722656 4.03109375 5.15695312 4.5621875 5.78515625 5.109375 C20.70832568 18.88460832 26.50177119 40.0141695 28.9375 59.5 C28.9375 70.06 28.9375 80.62 28.9375 91.5 C-3.7325 91.5 -36.4025 91.5 -70.0625 91.5 C-66.17107581 116.16141415 -66.17107581 116.16141415 -51.3125 134.8125 C-41.47252557 141.70431088 -29.49857889 143.68931578 -17.79296875 142.0390625 C-6.48304818 139.91923174 3.12620257 136.0814059 11.21875 127.72265625 C12.9375 126.5 12.9375 126.5 14.91796875 126.60546875 C17.32072579 127.66974605 18.86266208 128.92226223 20.75 130.75 C21.37519531 131.33265625 22.00039062 131.9153125 22.64453125 132.515625 C23.9375 134.5 23.9375 134.5 23.79296875 136.94140625 C18.70305389 152.1646676 4.00866588 165.47412131 -10.0625 172.5 C-31.84515931 181.65833063 -58.95706805 183.50859567 -81.22607422 174.63818359 C-89.58786186 171.03043901 -97.29710314 166.64677108 -104.0625 160.5 C-104.80757812 159.84644531 -105.55265625 159.19289063 -106.3203125 158.51953125 C-123.59538326 142.44493151 -132.14728084 116.89323634 -133.18701172 93.72558594 C-133.94504111 64.20481381 -130.04961649 35.53236386 -110.0625 12.5 C-109.32 11.489375 -108.5775 10.47875 -107.8125 9.4375 C-83.63585362 -19.01035391 -29.23864531 -21.96608887 0 0 Z M-61.6875 11.875 C-73.33036929 27.33643092 -70.28301963 54.52764976 -70.0625 72.5 C-56.8625 72.5 -43.6625 72.5 -30.0625 72.5 C-28.12719161 39.32795711 -28.12719161 39.32795711 -40.0625 9.5 C-48.23177781 4.74696564 -54.7359442 5.58549713 -61.6875 11.875 Z " fill="#07090A" transform="translate(1085.0625,105.5)"/>
<path d="M0 0 C26.07 0 52.14 0 79 0 C79 77.88 79 155.76 79 236 C86.59 236 94.18 236 102 236 C102 242.27 102 248.54 102 255 C74.94 255 47.88 255 20 255 C20 176.79 20 98.58 20 18 C13.4 18 6.8 18 0 18 C0 12.06 0 6.12 0 0 Z " fill="#07090A" transform="translate(1607,27)"/>
<path d="M0 0 C3.07768217 -0.53859438 5.19643078 -0.52055113 7.86328125 1.20703125 C10.01614338 3.04925997 12.01268157 4.97998346 14 7 C14.73605469 7.73734375 15.47210937 8.4746875 16.23046875 9.234375 C18.60782115 11.73857409 20.81135313 14.32962323 23 17 C23.77472656 17.886875 24.54945312 18.77375 25.34765625 19.6875 C34.0001617 31.16313333 32.15240563 45.27135322 30.44140625 58.87109375 C29.28543022 66.61493613 27.26005817 74.00313883 24.57421875 81.36328125 C23.79183928 83.90471718 23.79183928 83.90471718 24.6171875 85.953125 C25.07351563 86.62859375 25.52984375 87.3040625 26 88 C26.65871094 88.98871094 27.31742188 89.97742188 27.99609375 90.99609375 C28.80501195 92.14667831 29.61911739 93.29362789 30.4375 94.4375 C30.87562012 95.05004639 31.31374023 95.66259277 31.76513672 96.29370117 C35.73568804 101.76743997 39.9878844 106.95333723 44.44140625 112.0390625 C45.96299799 113.79992744 47.44636212 115.59704487 48.83984375 117.4609375 C53.63397673 123.65743591 59.47168849 126.6747968 66.2722168 130.26586914 C76.92204583 135.95822873 84.09187403 142.2756221 88 154 C88.87290793 165.96891072 86.84238297 174.7119004 80.40234375 184.7734375 C79.70818359 185.87558594 79.70818359 185.87558594 79 187 C78.42028442 187.89090332 78.42028442 187.89090332 77.82885742 188.79980469 C76.69103093 191.82015589 77.35749764 193.38121147 78.3359375 196.4296875 C78.81933594 197.99396484 78.81933594 197.99396484 79.3125 199.58984375 C79.663125 200.67394531 80.01375 201.75804687 80.375 202.875 C81.05699513 205.01584938 81.7317228 207.15903028 82.3984375 209.3046875 C82.70442871 210.25327637 83.01041992 211.20186523 83.32568359 212.17919922 C84.07108005 215.29734212 84.32113214 217.80653428 84 221 C82.73413086 223.02294922 82.73413086 223.02294922 80.96484375 224.8046875 C79.99708008 225.80435547 79.99708008 225.80435547 79.00976562 226.82421875 C78.32591797 227.50097656 77.64207031 228.17773438 76.9375 228.875 C75.61195448 230.22526129 74.28773189 231.57682259 72.96484375 232.9296875 C72.30758301 233.59540771 71.65032227 234.26112793 70.97314453 234.94702148 C68.3873322 237.63745651 65.9469729 240.43896358 63.52075195 243.27319336 C62.16762119 244.80966694 60.71425108 246.25652736 59.25 247.6875 C55.48863552 252.11920666 55.06625727 258.50035723 54 264 C46.08 264 38.16 264 30 264 C30 257.32107106 30.95961115 254.99395994 35 250 C36.19955371 248.9041771 37.4308215 247.84231362 38.6875 246.8125 C43.93946201 242.48037314 47.73777329 237.0616763 51.76855469 231.63671875 C54.74537248 227.68021866 57.8882359 223.85059077 61 220 C57.96997286 216.37874805 54.93217419 212.87118461 51.5625 209.5625 C48.55026561 206.6026523 45.80798802 203.49534745 43.08984375 200.265625 C40.94454762 197.86066911 40.94454762 197.86066911 38.06640625 195.421875 C29.36859783 187.73874388 26.02415192 180.40350706 24 169 C23.890625 165.99609375 23.890625 165.99609375 24 164 C22.90449829 163.59382446 22.90449829 163.59382446 21.78686523 163.17944336 C19.0906821 162.03837803 16.84729862 160.74211009 14.41015625 159.12890625 C13.55010986 158.56042969 12.69006348 157.99195313 11.80395508 157.40625 C7.18309567 154.29851732 2.57730174 151.17161272 -2 148 C-2.72123047 147.50226074 -3.44246094 147.00452148 -4.18554688 146.49169922 C-13.88069813 139.6949236 -21.87340661 131.6400549 -27.0390625 120.82446289 C-30.32467487 114.09224886 -34.67108122 110.73412638 -40.875 106.6875 C-42.18404297 105.79708008 -42.18404297 105.79708008 -43.51953125 104.88867188 C-48.23531161 101.70817941 -53.0204053 98.74759653 -58 96 C-61.59620481 97.32449508 -63.7951714 98.83926531 -66 102 C-66.66163031 105.15314104 -66.71445658 108.22323405 -66.6875 111.4375 C-66.68169922 112.26032471 -66.67589844 113.08314941 -66.66992188 113.9309082 C-66.51332466 117.92373782 -66.11264 121.15541822 -64.39453125 124.78515625 C-63 128 -63 128 -63.02734375 130.54296875 C-64.34740877 133.87759083 -66.35352524 136.52844759 -68.5625 139.3125 C-68.98724609 139.86228516 -69.41199219 140.41207031 -69.84960938 140.97851562 C-70.89181259 142.3251827 -71.94483843 143.66346201 -73 145 C-76 144 -76 144 -77.1328125 142.109375 C-77.46023438 141.33078125 -77.78765625 140.5521875 -78.125 139.75 C-78.62386719 138.59757812 -78.62386719 138.59757812 -79.1328125 137.421875 C-81.09003689 131.95575282 -81.18245898 126.8686945 -81.0390625 121.11328125 C-80.96591409 118.00447371 -81.12569267 114.95743227 -81.3359375 111.85546875 C-81.75696031 101.90880483 -81.20951939 95.17649604 -74.35351562 87.54785156 C-71.58800944 84.77386223 -68.76577137 82.10355243 -65.79345703 79.55200195 C-63.97625618 78.0322576 -63.97625618 78.0322576 -62.39379883 76.29736328 C-61 75 -61 75 -58.94140625 75.00390625 C-58.15636719 75.18824219 -57.37132812 75.37257813 -56.5625 75.5625 C-55.68335938 75.76617187 -54.80421875 75.96984375 -53.8984375 76.1796875 C-49.77747144 77.34599865 -45.76713726 78.77957297 -41.76171875 80.29296875 C-37.35633173 81.42079768 -34.94823998 80.47956965 -30.94140625 78.453125 C-19.34613581 71.20222046 -12.93039718 60.53368351 -6 49 C-10.77920032 49.47883334 -15.44725902 49.99917081 -20.125 51.125 C-25.16058822 52.16495844 -29.51040337 52.39017622 -34.140625 49.8046875 C-36.66562966 47.35394768 -36.7234548 45.79358231 -36.875 42.3125 C-36.74042618 38.58480514 -36.5205264 36.65345052 -34.1796875 33.71484375 C-31.55580043 31.59295437 -28.86133579 29.78833487 -26 28 C-25.0615625 27.35675781 -24.123125 26.71351562 -23.15625 26.05078125 C-18.90394781 23.14161214 -14.6596129 20.33159308 -10.125 17.8828125 C-3.1014745 14.3293793 -3.1014745 14.3293793 0.8828125 7.984375 C0.87563477 5.18506101 0.64069762 2.72042245 0 0 Z " fill="#07090A" transform="translate(1849,0)"/>
<path d="M0 0 C0 16.5 0 33 0 50 C9.24 50 18.48 50 28 50 C28 55.94 28 61.88 28 68 C18.76 68 9.52 68 0 68 C0.08542945 86.03707318 0.17901161 104.07404122 0.28752708 122.11098766 C0.33765041 130.48583843 0.38409337 138.86067942 0.421875 147.2355957 C0.45481451 154.53510929 0.49465658 161.83454696 0.54279006 169.13397676 C0.56803557 172.99901997 0.5898226 176.86401295 0.60334396 180.72911644 C0.61618202 184.36772045 0.63825516 188.00615201 0.66738319 191.64466095 C0.68076347 193.61533283 0.6843771 195.58606345 0.68769836 197.55677795 C0.69886185 198.73321869 0.71002533 199.90965942 0.7215271 201.12174988 C0.72705786 202.14217471 0.73258862 203.16259954 0.73828697 204.21394634 C1.01674215 207.1782278 1.68184735 209.33823223 3 212 C5.90359059 214.0748834 8.36539496 214.24763342 11.875 214.1875 C12.69742187 214.18105469 13.51984375 214.17460937 14.3671875 214.16796875 C17.26511718 213.983086 20.13568833 213.47738528 23 213 C23 218.94 23 224.88 23 231 C6.63849935 239.18075033 -15.82946255 241.50740646 -33.56640625 235.97265625 C-43.21862403 232.11486776 -51.18460675 226.34021461 -55.8556366 216.80566406 C-61.81500625 202.19493007 -60.39962884 185.57891734 -60.30418181 170.12691498 C-60.28519888 166.52619666 -60.2836478 162.92546768 -60.28010559 159.32470703 C-60.27084769 152.53238649 -60.24632043 145.74021391 -60.21605712 138.94795799 C-60.18231609 131.20410354 -60.16597801 123.46024135 -60.15097082 115.71633148 C-60.11976384 99.81080014 -60.06651056 83.90542513 -60 68 C-66.27 68 -72.54 68 -79 68 C-80.06927176 55.64397079 -80.06927176 55.64397079 -77.48828125 51.67578125 C-75.10478535 49.57425159 -72.62107041 47.79730542 -70 46 C-68.37574455 44.7495444 -66.77443865 43.47281036 -65.17236328 42.1940918 C-63.39477446 40.77847469 -61.60308959 39.38238586 -59.80859375 37.98828125 C-55.82734596 34.88028615 -51.91134018 31.69525243 -48 28.5 C-42.4173482 23.94085673 -36.80172915 19.43200337 -31.08032227 15.04760742 C-28.14483202 12.77727743 -25.36879781 10.44700082 -22.6953125 7.87109375 C-22.14770264 7.35949707 -21.60009277 6.84790039 -21.03588867 6.32080078 C-19.54158782 4.91072125 -18.07995184 3.46624905 -16.62109375 2.01953125 C-13 0 -13 0 0 0 Z " fill="#07090A" transform="translate(1401,46)"/>
<path d="M0 0 C0 16.5 0 33 0 50 C7.59 50 15.18 50 23 50 C23 55.94 23 61.88 23 68 C15.41 68 7.82 68 0 68 C0.08427114 86.18472466 0.17897173 104.36935521 0.28752708 122.55395126 C0.33766714 130.99721207 0.38410989 139.44046309 0.421875 147.88378906 C0.45479713 155.24225645 0.49462955 162.60064828 0.54279006 169.9590323 C0.56805288 173.85590178 0.58983478 177.75272115 0.60334396 181.64965057 C0.61616632 185.31697828 0.63822252 188.98413411 0.66738319 192.65136719 C0.68078696 194.64012342 0.68438014 196.62893818 0.68769836 198.61773682 C0.69886185 199.80121704 0.71002533 200.98469727 0.7215271 202.20404053 C0.72705786 203.2327615 0.73258862 204.26148247 0.73828697 205.3213768 C1.00617884 208.06324023 1.52494806 209.69243985 3 212 C5.95286408 214.00870797 8.35243405 214.24785549 11.875 214.1875 C12.69742188 214.18105469 13.51984375 214.17460937 14.3671875 214.16796875 C17.26511718 213.983086 20.13568833 213.47738528 23 213 C23 218.94 23 224.88 23 231 C6.62364509 239.18817746 -15.80281057 241.4855369 -33.55859375 235.98046875 C-40.07988018 233.36152012 -45.32384608 230.34417591 -50 225 C-51.0209375 223.88625 -51.0209375 223.88625 -52.0625 222.75 C-59.72795906 211.86999359 -60.30477768 199.54878249 -60.22705078 186.6340332 C-60.22734283 185.3449556 -60.22763489 184.05587799 -60.22793579 182.72773743 C-60.22850444 179.22844304 -60.21683012 175.72928863 -60.20278788 172.23002648 C-60.19019828 168.55986781 -60.18910358 164.88970514 -60.18673706 161.2195282 C-60.18054629 154.28541753 -60.16416835 147.3513707 -60.14403808 140.41728801 C-60.12160384 132.51634582 -60.11066681 124.61540042 -60.10064721 116.71443427 C-60.07979971 100.47625122 -60.04426324 84.23813631 -60 68 C-66.27 68 -72.54 68 -79 68 C-80.63219986 55.29215822 -80.63219986 55.29215822 -77.8515625 51.38720703 C-74.59619183 48.19965659 -70.78450177 45.76127631 -66.96679688 43.30175781 C-63.87559272 41.25579201 -61.01446068 38.94289158 -58.125 36.625 C-56.96131107 35.71046196 -55.79724219 34.79640719 -54.6328125 33.8828125 C-50.04150682 30.25440217 -45.51153167 26.55097295 -40.97900391 22.84960938 C-35.95060742 18.75067845 -30.8763606 14.71486171 -25.72875977 10.76635742 C-22.54074959 8.30170432 -19.72339119 5.71471233 -16.9375 2.8125 C-13 0 -13 0 0 0 Z " fill="#07090A" transform="translate(606,46)"/>
<path d="M0 0 C25.08 0 50.16 0 76 0 C76 55.11 76 110.22 76 167 C81.61 167 87.22 167 93 167 C93 173.27 93 179.54 93 186 C62.31 186 31.62 186 0 186 C0 179.73 0 173.46 0 167 C5.61 167 11.22 167 17 167 C17 117.83 17 68.66 17 18 C11.39 18 5.78 18 0 18 C0 12.06 0 6.12 0 0 Z " fill="#07090A" transform="translate(645,96)"/>
<path d="M0 0 C5.45603064 5.41891479 7.80981746 11.24142175 8.09765625 18.8359375 C8.00195011 26.01389824 5.61012932 31.30084487 0.99609375 36.75 C-7.90733911 45.36031573 -19.91564551 47.05748697 -31.8359375 46.921875 C-41.17255027 46.34959681 -49.98909887 43.74348122 -57.27734375 37.7109375 C-64.20208832 29.33354794 -65.02560423 22.32963407 -64.27734375 11.7109375 C-62.63032549 4.62208187 -57.09436257 -0.28375641 -51.27734375 -4.2890625 C-35.3593312 -12.23661697 -14.06944788 -11.38267446 0 0 Z " fill="#07090A" transform="translate(720.27734375,28.2890625)"/>
<path d="M0 0 C89.43 0 178.86 0 271 0 C271 3.3 271 6.6 271 10 C181.57 10 92.14 10 0 10 C0 6.7 0 3.4 0 0 Z " fill="#07090A" transform="translate(1729,272)"/>
<path d="M0 0 C5.42758393 0.50333081 9.06654284 2.38196714 13.5625 5.25 C14.20896484 5.61351562 14.85542969 5.97703125 15.52148438 6.3515625 C22.98433718 11.11928535 24.84406059 19.19109935 26.82006836 27.41162109 C27.53284695 30.95261859 28.13223084 34.49348905 28.6875 38.0625 C28.89463623 39.3407666 29.10177246 40.6190332 29.31518555 41.93603516 C31.40107272 55.22163576 32.33160548 68.57262715 33 82 C28.64272842 80.68374088 24.92253149 78.99096576 21 76.6875 C20.01 76.11386719 19.02 75.54023438 18 74.94921875 C17.01 74.30597656 16.02 73.66273438 15 73 C13.97229492 72.33540771 12.94458984 71.67081543 11.88574219 70.98608398 C9.20342966 68.70756406 8.51326106 67.0436136 8.07519531 63.56787109 C7.96428447 61.80462409 7.88367584 60.03929574 7.828125 58.2734375 C7.7747699 57.32997467 7.72141479 56.38651184 7.66644287 55.41445923 C7.5008812 52.40198904 7.37389453 49.38944544 7.25 46.375 C7.10442923 43.38281947 6.9507149 40.3912533 6.79071045 37.39981079 C6.69380043 35.54253956 6.60625089 33.68474532 6.53009033 31.82650757 C6.13058309 23.31370884 5.04080135 14.89890414 1.875 6.9375 C0 2.16788321 0 2.16788321 0 0 Z " fill="#07090A" transform="translate(1938,146)"/>
<path d="M0 0 C3.45201639 1.47721422 5.64961936 3.43794001 8.25 6.125 C8.95640625 6.84945312 9.6628125 7.57390625 10.390625 8.3203125 C10.92171875 8.87460938 11.4528125 9.42890625 12 10 C10.50282382 13.71398952 8.44574726 15.49740759 5.3125 17.9375 C4.33667969 18.71996094 3.36085938 19.50242188 2.35546875 20.30859375 C1.82099121 20.73640137 1.28651367 21.16420898 0.73583984 21.60498047 C-2.49686667 24.20296711 -5.69805773 26.83411916 -8.875 29.5 C-9.50494873 30.00909912 -10.13489746 30.51819824 -10.78393555 31.04272461 C-15.98308752 35.44147444 -17.39093196 38.50367753 -21 45 C-27.93 45 -34.86 45 -42 45 C-40.15400177 35.77000886 -33.7220197 29.57840749 -26.25 24.25 C-22.12256988 21.26641195 -18.63399809 17.74362572 -15.08496094 14.11621094 C-11.74510102 10.71100086 -8.29363398 7.5200288 -4.65625 4.4375 C-3.02723284 3.02363605 -1.50628283 1.54302144 0 0 Z " fill="#07090A" transform="translate(1889,205)"/>
<path d="M0 0 C-1.67713257 4.3414381 -4.88397064 7.22524934 -8.125 10.4375 C-8.70886475 11.02080078 -9.29272949 11.60410156 -9.89428711 12.20507812 C-13.97496339 16.19943566 -18.05921446 19.12536114 -23 22 C-25.43901128 24.6256609 -25.43901128 24.6256609 -27 27 C-33.75710231 25.9413873 -40.39324562 24.77874156 -47 23 C-44.53983496 15.79433894 -39.39050528 11.71935576 -32.703125 8.328125 C-25.70404296 5.41434407 -18.53357288 3.15431689 -11.25 1.0625 C-10.475354 0.83860596 -9.70070801 0.61471191 -8.90258789 0.3840332 C-3.36845546 -1.12281849 -3.36845546 -1.12281849 0 0 Z " fill="#07090A" transform="translate(1782,74)"/>
</svg>
