<?xml version="1.0" encoding="UTF-8"?>
<svg version="1.1" xmlns="http://www.w3.org/2000/svg" width="900" height="460">
<path d="M0 0 C2.92789079 0.00462786 5.85536584 -0.0022895 8.78320312 -0.02050781 C32.42594762 -0.16623143 56.04702397 0.62516863 78.75390625 7.99804688 C81.11452898 8.76734788 81.11452898 8.76734788 84.65234375 9.31567383 C87.13612814 8.12978703 87.13612814 8.12978703 88.90234375 6.00317383 C92.35894437 2.36802979 94.3369459 1.42813367 99.35826588 1.18424606 C100.40001815 1.1812714 101.44177042 1.17829674 102.51509094 1.17523193 C103.71369751 1.16952179 104.91230408 1.16381165 106.14723206 1.15792847 C107.45900925 1.15681061 108.77078644 1.15569275 110.12231445 1.15454102 C111.52039724 1.14991071 112.91847877 1.14488576 114.31655884 1.13949585 C118.11212501 1.12639062 121.9076735 1.1199306 125.70325875 1.11548519 C128.07594492 1.11255152 130.44862629 1.10844617 132.82131004 1.10398102 C140.24889392 1.09031122 147.67646679 1.08064195 155.10406238 1.07677913 C163.6707885 1.07229906 172.23735502 1.05475146 180.80403262 1.02577853 C187.43092274 1.00414593 194.057768 0.99407401 200.68469304 0.99273801 C204.6403503 0.99169114 208.59585742 0.98580852 212.55147743 0.9679184 C216.2738503 0.95141024 219.9959606 0.94929538 223.71835709 0.9580574 C225.72921409 0.95919186 227.7400625 0.94549585 229.75086975 0.93130493 C236.19638887 0.96104322 240.96491513 1.21082829 246.65234375 4.31567383 C247.64234375 4.64567383 248.63234375 4.97567383 249.65234375 5.31567383 C251.18127258 4.3726239 251.18127258 4.3726239 252.74108887 3.41052246 C259.57504805 -0.18350784 267.71130174 0.75989183 275.23242188 0.7980957 C277.02356026 0.79267063 278.81469418 0.78554581 280.6058197 0.77685547 C285.45501394 0.75866498 290.30386665 0.76567198 295.15306664 0.77837181 C300.2355578 0.78852164 305.31802035 0.77910063 310.4005127 0.77282715 C318.93454216 0.76555652 327.46843301 0.77512312 336.00244141 0.79418945 C345.8591442 0.81595704 355.71551601 0.80890526 365.57221079 0.78688383 C374.04549184 0.76871319 382.51867343 0.76617966 390.99196768 0.77663851 C396.04809079 0.78286427 401.10405848 0.78373428 406.16017151 0.77049255 C410.91439314 0.75891047 415.66818936 0.76700284 420.42236519 0.79006958 C422.16379148 0.79534408 423.90525376 0.7938645 425.64666557 0.78501892 C443.6336902 0.70209894 443.6336902 0.70209894 450.14958954 6.69207001 C454.4857199 11.40854372 455.90193901 15.91239311 455.65234375 22.19067383 C455.19691036 30.81544372 446.47797057 37.79111473 440.75439453 43.52001953 C439.98608307 44.29665451 439.21777161 45.07328949 438.42617798 45.87345886 C435.90538049 48.41819355 433.37713512 50.95535137 430.84765625 53.49145508 C429.08170411 55.26638161 427.31582596 57.04138175 425.55001831 58.81645203 C421.85687362 62.52604191 418.15939761 66.23125546 414.45947266 69.93408203 C410.19408329 74.20311317 405.94203441 78.48512669 401.69577801 82.77318126 C397.5921976 86.91571861 393.47482577 91.04432286 389.35229111 95.16798973 C387.60752019 96.91696095 385.86686213 98.67004539 384.13046646 100.42733192 C381.70169794 102.88299898 379.25757202 105.32231858 376.80908203 107.75830078 C376.09921143 108.48300568 375.38934082 109.20771057 374.65795898 109.95437622 C369.60096242 114.93827475 365.04228359 117.9740414 357.74731445 118.54174805 C356.86648193 118.48519043 355.98564941 118.42863281 355.078125 118.37036133 C343.06577282 117.57658092 343.06577282 117.57658092 332.37109375 122.08911133 C329.57046158 124.73616413 327.16886621 127.63339996 324.87475586 130.72436523 C323.01810771 133.14130804 320.83150434 135.19048625 318.65234375 137.31567383 C316.7322439 139.3351996 314.84756485 141.38633053 312.96484375 143.44067383 C312.2368457 144.22764648 312.2368457 144.22764648 311.49414062 145.03051758 C309.33726079 147.38077285 307.42609694 149.65504404 305.65234375 152.31567383 C306.32802931 155.34860729 306.32802931 155.34860729 307.6875 158.71411133 C307.92262802 159.34491608 308.15775604 159.97572083 308.40000916 160.62564087 C309.15894804 162.65235779 309.9365557 164.67131884 310.71484375 166.69067383 C311.21282529 168.0118229 311.70958304 169.33343395 312.20507812 170.65551758 C313.18742644 173.27328909 314.18962461 175.88228288 315.20336914 178.48803711 C316.17936187 181.01588921 317.05002049 183.52813907 317.89624023 186.1081543 C319.90710429 192.78198707 319.90710429 192.78198707 324.8671875 197.21411133 C326.09566406 197.37137695 327.32414063 197.52864258 328.58984375 197.69067383 C330.01709647 197.93482686 331.44283176 198.18796422 332.8671875 198.44848633 C333.63401855 198.57642578 334.40084961 198.70436523 335.19091797 198.83618164 C360.5168241 203.76973447 382.26557494 216.80224213 401.65234375 233.31567383 C402.73520547 234.17043829 403.81845206 235.0247158 404.90234375 235.87817383 C408.52604327 239.09008931 411.56331321 242.59270045 414.65234375 246.31567383 C415.07257812 246.81292969 415.4928125 247.31018555 415.92578125 247.82250977 C434.07708848 269.37077774 458.99087784 301.61861375 458.32421875 331.15161133 C457.06258919 337.09300633 453.57369511 340.95475095 448.65234375 344.31567383 C444.47671695 346.5727694 440.30962484 347.09462049 435.65234375 346.31567383 C429.86285951 344.18427124 424.73121154 340.76443584 419.52734375 337.50317383 C397.43083194 323.74153898 371.9152542 312.94814198 345.52734375 318.75317383 C327.5543562 323.19130465 311.45555002 332.34379543 295.59912109 341.60424805 C290.62344663 344.49401424 285.60441111 347.30663075 280.58984375 350.12817383 C273.10626594 354.34538044 273.10626594 354.34538044 265.66015625 358.62817383 C257.15789216 363.56372849 248.48626854 368.01681203 239.65234375 372.31567383 C238.02643311 373.11013916 238.02643311 373.11013916 236.36767578 373.9206543 C188.6356727 397.23414525 138.72967988 417.56132736 85.65234375 424.31567383 C84.99103455 424.40074188 84.32972534 424.48580994 83.64837646 424.57345581 C71.04718129 426.15690263 58.59618581 426.68220186 45.90234375 426.62817383 C44.98413849 426.62601868 44.06593323 426.62386353 43.11990356 426.62164307 C29.11165264 426.56902449 15.42038944 426.1201824 1.65234375 423.31567383 C0.16541016 423.01765869 0.16541016 423.01765869 -1.3515625 422.71362305 C-45.51518545 413.58127536 -94.13100231 390.72603944 -119.84765625 351.87817383 C-132.38119056 332.10507231 -138.5402882 309.53100487 -140.34765625 286.31567383 C-140.88390625 286.19192383 -141.42015625 286.06817383 -141.97265625 285.94067383 C-154.73973736 282.58091564 -166.62733398 276.23034776 -176.34765625 267.31567383 C-177.05277344 266.69047852 -177.75789063 266.0652832 -178.484375 265.42114258 C-191.22888624 253.50199016 -198.81846713 236.4747096 -199.46777344 219.10180664 C-199.5960409 211.50458812 -199.51595718 203.91165563 -199.34765625 196.31567383 C-201.65765625 195.98567383 -203.96765625 195.65567383 -206.34765625 195.31567383 C-206.59051865 196.34069 -206.59051865 196.34069 -206.83828735 197.38641357 C-208.94128932 206.04600242 -211.45151027 214.56338503 -214.05859375 223.08129883 C-214.28128559 223.81052299 -214.50397743 224.53974716 -214.73341751 225.29106903 C-215.90914889 229.13990802 -217.08872313 232.98754431 -218.27148438 236.83422852 C-219.48397054 240.78044412 -220.68260531 244.73072817 -221.87825584 248.68207169 C-222.80909059 251.74898576 -223.75029518 254.81264736 -224.69426346 257.87554169 C-225.14063891 259.33025768 -225.58316986 260.78615967 -226.02158737 262.24329376 C-231.90374809 281.76047109 -231.90374809 281.76047109 -240.34765625 287.31567383 C-243.88643809 288.49526778 -247.08507809 288.4637946 -250.76728821 288.46284485 C-251.52924238 288.46652154 -252.29119655 288.47019822 -253.07624024 288.47398633 C-255.63717801 288.48502613 -258.1980752 288.48886749 -260.7590332 288.49267578 C-262.59208302 288.49894014 -264.42513156 288.50558691 -266.25817871 288.5125885 C-271.2437777 288.52999904 -276.2293671 288.54055012 -281.21498895 288.54879403 C-284.3288917 288.55394343 -287.44279147 288.56001914 -290.55669212 288.56630516 C-300.29675181 288.58535626 -310.03680392 288.59958832 -319.77687865 288.60791713 C-331.02528815 288.61769427 -342.27350112 288.64402661 -353.52184135 288.68441802 C-362.21322051 288.7145584 -370.90454325 288.72938398 -379.59597367 288.73269814 C-384.78851581 288.73505072 -389.98084797 288.74403843 -395.17333412 288.76915932 C-400.05793213 288.79240908 -404.94218141 288.79668573 -409.82682037 288.78639793 C-411.61909074 288.78590173 -413.4113781 288.79224697 -415.20359612 288.80595398 C-417.65184077 288.82363003 -420.09882807 288.81658866 -422.54707336 288.80342102 C-423.25515729 288.81439027 -423.96324121 288.82535951 -424.69278222 288.83666116 C-430.44519217 288.76204064 -433.97207984 286.67432214 -437.9921875 282.68286133 C-443.11860432 276.13339235 -443.21187562 270.52613343 -442.34765625 262.31567383 C-441.16917128 256.97697927 -439.46051957 251.87126525 -437.67578125 246.71411133 C-437.19028837 245.26132192 -436.70666381 243.80790699 -436.22479248 242.35391235 C-434.96241394 238.56127615 -433.67533458 234.77750433 -432.38244629 230.99517822 C-431.07965548 227.16958541 -429.80058453 223.33608839 -428.51953125 219.50317383 C-426.21624775 212.62202314 -423.89162803 205.7484113 -421.55187988 198.87957764 C-420.07530756 194.50965699 -418.64222895 190.12601943 -417.22283936 185.73721313 C-414.90855012 179.33381902 -410.45032096 174.36700618 -404.34765625 171.31567383 C-402.97217469 171.23258745 -401.59279829 171.20831367 -400.21484375 171.21801758 C-399.40917969 171.22124023 -398.60351562 171.22446289 -397.7734375 171.2277832 C-396.93167969 171.23616211 -396.08992188 171.24454102 -395.22265625 171.25317383 C-394.37316406 171.25768555 -393.52367187 171.26219727 -392.6484375 171.2668457 C-390.54814716 171.27864509 -388.44789295 171.29658077 -386.34765625 171.31567383 C-385.95235718 169.39742798 -385.95235718 169.39742798 -385.54907227 167.44042969 C-384.39985448 162.27968325 -382.81707296 157.32444106 -381.125 152.31958008 C-380.81945694 151.40482407 -380.51391388 150.49006805 -380.19911194 149.54759216 C-379.55827843 147.63176774 -378.91530078 145.7166593 -378.27026367 143.80224609 C-377.28025551 140.86362708 -376.29680583 137.92287547 -375.31445312 134.98168945 C-374.68917851 133.11502686 -374.06354056 131.24848593 -373.4375 129.38208008 C-373.14270248 128.50193741 -372.84790497 127.62179474 -372.54417419 126.71498108 C-372.27041458 125.90330978 -371.99665497 125.09163849 -371.71459961 124.25537109 C-371.3539164 123.18356346 -371.3539164 123.18356346 -370.98594666 122.09010315 C-370.34765625 120.31567383 -370.34765625 120.31567383 -369.34765625 118.31567383 C-370.20037109 118.20352539 -370.20037109 118.20352539 -371.0703125 118.08911133 C-377.233845 117.03956155 -381.26860093 115.12431628 -385.34765625 110.31567383 C-388.62076704 104.614126 -389.24202065 99.24520704 -387.79794312 92.90042114 C-387.00185124 90.16388182 -386.13348149 87.46152631 -385.234375 84.75708008 C-384.9087709 83.74683273 -384.58316681 82.73658539 -384.24769592 81.69572449 C-383.18839592 78.41932719 -382.11236842 75.14872127 -381.03515625 71.87817383 C-380.30096812 69.62419913 -379.56757391 67.36996568 -378.83496094 65.11547852 C-377.37095041 60.61813814 -375.89943958 56.12335959 -374.42138672 51.63061523 C-372.8527671 46.861396 -371.29958675 42.08749335 -369.75813293 37.30943298 C-368.77140121 34.25476615 -367.77647013 31.20282779 -366.7784729 28.15182495 C-366.32904413 26.7746901 -365.88219216 25.39671131 -365.43807983 24.01785278 C-364.82839561 22.1298219 -364.20553451 20.24606128 -363.58203125 18.36254883 C-363.24397461 17.3296875 -362.90591797 16.29682617 -362.55761719 15.23266602 C-360.05013361 9.18758657 -357.01661025 5.57230697 -351.34765625 2.31567383 C-348.60919911 1.40285478 -347.00782428 1.18830231 -344.19022083 1.18145275 C-343.33923276 1.17699491 -342.48824468 1.17253706 -341.61146909 1.16794413 C-340.67627319 1.1681285 -339.74107729 1.16831286 -338.77754211 1.16850281 C-337.28758383 1.16298778 -337.28758383 1.16298778 -335.76752537 1.15736133 C-332.42354365 1.14630715 -329.07959298 1.1424777 -325.7355957 1.13867188 C-323.34422201 1.13240854 -320.9528493 1.12576186 -318.56147766 1.11875916 C-311.37390331 1.09951959 -304.18632837 1.08892905 -296.99873546 1.08003137 C-293.61319705 1.07564736 -290.2276602 1.07028082 -286.84212303 1.0650425 C-275.58635565 1.04803045 -264.33058924 1.03353669 -253.07481098 1.02629375 C-250.15412202 1.02438389 -247.23343307 1.02246355 -244.31274414 1.02050781 C-243.22387162 1.0197822 -243.22387162 1.0197822 -242.11300167 1.01904193 C-230.35593655 1.01074317 -218.59897322 0.98540879 -206.84195254 0.95292713 C-194.7687644 0.9198442 -182.69562797 0.90184386 -170.62239426 0.89864951 C-163.844734 0.89648551 -157.06722216 0.88775304 -150.28960609 0.86218834 C-143.9128554 0.83893542 -137.53637184 0.83466341 -131.15958977 0.84494972 C-128.81989276 0.84544586 -126.48018272 0.83910253 -124.14052582 0.82539368 C-120.94425935 0.80771449 -117.74895562 0.81476213 -114.5526886 0.82792664 C-113.16662516 0.81147277 -113.16662516 0.81147277 -111.75256044 0.7946865 C-105.78935877 0.85390873 -101.35195492 1.9922555 -96.34765625 5.31567383 C-94.19389393 7.52328021 -92.98146485 9.66073485 -91.34765625 12.31567383 C-87.39224813 11.76020756 -83.69916551 10.86457209 -79.89477539 9.65283203 C-72.4854844 7.30147564 -65.05612366 5.52466982 -57.41015625 4.12817383 C-56.57871094 3.97372803 -55.74726563 3.81928223 -54.890625 3.66015625 C-52.04872437 3.16266168 -49.20267021 2.73154075 -46.34765625 2.31567383 C-45.1767041 2.13544678 -44.00575195 1.95521973 -42.79931641 1.76953125 C-28.60809407 -0.21573466 -14.29798366 -0.02448165 0 0 Z " fill="#FCFCFC" transform="translate(442.34765625,-0.315673828125)"/>
<path d="M0 0 C2.92789079 0.00462786 5.85536584 -0.0022895 8.78320312 -0.02050781 C32.42594762 -0.16623143 56.04702397 0.62516863 78.75390625 7.99804688 C81.11452898 8.76734788 81.11452898 8.76734788 84.65234375 9.31567383 C87.13612814 8.12978703 87.13612814 8.12978703 88.90234375 6.00317383 C92.35894437 2.36802979 94.3369459 1.42813367 99.35826588 1.18424606 C100.40001815 1.1812714 101.44177042 1.17829674 102.51509094 1.17523193 C103.71369751 1.16952179 104.91230408 1.16381165 106.14723206 1.15792847 C107.45900925 1.15681061 108.77078644 1.15569275 110.12231445 1.15454102 C111.52039724 1.14991071 112.91847877 1.14488576 114.31655884 1.13949585 C118.11212501 1.12639062 121.9076735 1.1199306 125.70325875 1.11548519 C128.07594492 1.11255152 130.44862629 1.10844617 132.82131004 1.10398102 C140.24889392 1.09031122 147.67646679 1.08064195 155.10406238 1.07677913 C163.6707885 1.07229906 172.23735502 1.05475146 180.80403262 1.02577853 C187.43092274 1.00414593 194.057768 0.99407401 200.68469304 0.99273801 C204.6403503 0.99169114 208.59585742 0.98580852 212.55147743 0.9679184 C216.2738503 0.95141024 219.9959606 0.94929538 223.71835709 0.9580574 C225.72921409 0.95919186 227.7400625 0.94549585 229.75086975 0.93130493 C236.19638887 0.96104322 240.96491513 1.21082829 246.65234375 4.31567383 C247.64234375 4.64567383 248.63234375 4.97567383 249.65234375 5.31567383 C251.18127258 4.3726239 251.18127258 4.3726239 252.74108887 3.41052246 C259.57504805 -0.18350784 267.71130174 0.75989183 275.23242188 0.7980957 C277.02356026 0.79267063 278.81469418 0.78554581 280.6058197 0.77685547 C285.45501394 0.75866498 290.30386665 0.76567198 295.15306664 0.77837181 C300.2355578 0.78852164 305.31802035 0.77910063 310.4005127 0.77282715 C318.93454216 0.76555652 327.46843301 0.77512312 336.00244141 0.79418945 C345.8591442 0.81595704 355.71551601 0.80890526 365.57221079 0.78688383 C374.04549184 0.76871319 382.51867343 0.76617966 390.99196768 0.77663851 C396.04809079 0.78286427 401.10405848 0.78373428 406.16017151 0.77049255 C410.91439314 0.75891047 415.66818936 0.76700284 420.42236519 0.79006958 C422.16379148 0.79534408 423.90525376 0.7938645 425.64666557 0.78501892 C443.6336902 0.70209894 443.6336902 0.70209894 450.14958954 6.69207001 C454.4857199 11.40854372 455.90193901 15.91239311 455.65234375 22.19067383 C455.19691036 30.81544372 446.47797057 37.79111473 440.75439453 43.52001953 C439.98608307 44.29665451 439.21777161 45.07328949 438.42617798 45.87345886 C435.90538049 48.41819355 433.37713512 50.95535137 430.84765625 53.49145508 C429.08170411 55.26638161 427.31582596 57.04138175 425.55001831 58.81645203 C421.85687362 62.52604191 418.15939761 66.23125546 414.45947266 69.93408203 C410.19408329 74.20311317 405.94203441 78.48512669 401.69577801 82.77318126 C397.5921976 86.91571861 393.47482577 91.04432286 389.35229111 95.16798973 C387.60752019 96.91696095 385.86686213 98.67004539 384.13046646 100.42733192 C381.70169794 102.88299898 379.25757202 105.32231858 376.80908203 107.75830078 C376.09921143 108.48300568 375.38934082 109.20771057 374.65795898 109.95437622 C369.60096242 114.93827475 365.04228359 117.9740414 357.74731445 118.54174805 C356.86648193 118.48519043 355.98564941 118.42863281 355.078125 118.37036133 C343.06577282 117.57658092 343.06577282 117.57658092 332.37109375 122.08911133 C329.57046158 124.73616413 327.16886621 127.63339996 324.87475586 130.72436523 C323.01810771 133.14130804 320.83150434 135.19048625 318.65234375 137.31567383 C316.7322439 139.3351996 314.84756485 141.38633053 312.96484375 143.44067383 C312.2368457 144.22764648 312.2368457 144.22764648 311.49414062 145.03051758 C309.33726079 147.38077285 307.42609694 149.65504404 305.65234375 152.31567383 C306.32802931 155.34860729 306.32802931 155.34860729 307.6875 158.71411133 C307.92262802 159.34491608 308.15775604 159.97572083 308.40000916 160.62564087 C309.15894804 162.65235779 309.9365557 164.67131884 310.71484375 166.69067383 C311.21282529 168.0118229 311.70958304 169.33343395 312.20507812 170.65551758 C313.18742644 173.27328909 314.18962461 175.88228288 315.20336914 178.48803711 C316.17936187 181.01588921 317.05002049 183.52813907 317.89624023 186.1081543 C319.90710429 192.78198707 319.90710429 192.78198707 324.8671875 197.21411133 C326.09566406 197.37137695 327.32414063 197.52864258 328.58984375 197.69067383 C330.01709647 197.93482686 331.44283176 198.18796422 332.8671875 198.44848633 C333.63401855 198.57642578 334.40084961 198.70436523 335.19091797 198.83618164 C360.5168241 203.76973447 382.26557494 216.80224213 401.65234375 233.31567383 C402.73520547 234.17043829 403.81845206 235.0247158 404.90234375 235.87817383 C408.52604327 239.09008931 411.56331321 242.59270045 414.65234375 246.31567383 C415.07257812 246.81292969 415.4928125 247.31018555 415.92578125 247.82250977 C434.07708848 269.37077774 458.99087784 301.61861375 458.32421875 331.15161133 C457.06258919 337.09300633 453.57369511 340.95475095 448.65234375 344.31567383 C444.47671695 346.5727694 440.30962484 347.09462049 435.65234375 346.31567383 C429.86285951 344.18427124 424.73121154 340.76443584 419.52734375 337.50317383 C397.43083194 323.74153898 371.9152542 312.94814198 345.52734375 318.75317383 C327.5543562 323.19130465 311.45555002 332.34379543 295.59912109 341.60424805 C290.62344663 344.49401424 285.60441111 347.30663075 280.58984375 350.12817383 C273.10626594 354.34538044 273.10626594 354.34538044 265.66015625 358.62817383 C257.15789216 363.56372849 248.48626854 368.01681203 239.65234375 372.31567383 C238.02643311 373.11013916 238.02643311 373.11013916 236.36767578 373.9206543 C188.6356727 397.23414525 138.72967988 417.56132736 85.65234375 424.31567383 C84.99103455 424.40074188 84.32972534 424.48580994 83.64837646 424.57345581 C71.04718129 426.15690263 58.59618581 426.68220186 45.90234375 426.62817383 C44.98413849 426.62601868 44.06593323 426.62386353 43.11990356 426.62164307 C29.11165264 426.56902449 15.42038944 426.1201824 1.65234375 423.31567383 C0.16541016 423.01765869 0.16541016 423.01765869 -1.3515625 422.71362305 C-45.51518545 413.58127536 -94.13100231 390.72603944 -119.84765625 351.87817383 C-132.38119056 332.10507231 -138.5402882 309.53100487 -140.34765625 286.31567383 C-140.88390625 286.19192383 -141.42015625 286.06817383 -141.97265625 285.94067383 C-154.73973736 282.58091564 -166.62733398 276.23034776 -176.34765625 267.31567383 C-177.05277344 266.69047852 -177.75789063 266.0652832 -178.484375 265.42114258 C-191.22888624 253.50199016 -198.81846713 236.4747096 -199.46777344 219.10180664 C-199.5960409 211.50458812 -199.51595718 203.91165563 -199.34765625 196.31567383 C-201.65765625 195.98567383 -203.96765625 195.65567383 -206.34765625 195.31567383 C-206.59051865 196.34069 -206.59051865 196.34069 -206.83828735 197.38641357 C-208.94128932 206.04600242 -211.45151027 214.56338503 -214.05859375 223.08129883 C-214.28128559 223.81052299 -214.50397743 224.53974716 -214.73341751 225.29106903 C-215.90914889 229.13990802 -217.08872313 232.98754431 -218.27148438 236.83422852 C-219.48397054 240.78044412 -220.68260531 244.73072817 -221.87825584 248.68207169 C-222.80909059 251.74898576 -223.75029518 254.81264736 -224.69426346 257.87554169 C-225.14063891 259.33025768 -225.58316986 260.78615967 -226.02158737 262.24329376 C-231.90374809 281.76047109 -231.90374809 281.76047109 -240.34765625 287.31567383 C-243.88643809 288.49526778 -247.08507809 288.4637946 -250.76728821 288.46284485 C-251.52924238 288.46652154 -252.29119655 288.47019822 -253.07624024 288.47398633 C-255.63717801 288.48502613 -258.1980752 288.48886749 -260.7590332 288.49267578 C-262.59208302 288.49894014 -264.42513156 288.50558691 -266.25817871 288.5125885 C-271.2437777 288.52999904 -276.2293671 288.54055012 -281.21498895 288.54879403 C-284.3288917 288.55394343 -287.44279147 288.56001914 -290.55669212 288.56630516 C-300.29675181 288.58535626 -310.03680392 288.59958832 -319.77687865 288.60791713 C-331.02528815 288.61769427 -342.27350112 288.64402661 -353.52184135 288.68441802 C-362.21322051 288.7145584 -370.90454325 288.72938398 -379.59597367 288.73269814 C-384.78851581 288.73505072 -389.98084797 288.74403843 -395.17333412 288.76915932 C-400.05793213 288.79240908 -404.94218141 288.79668573 -409.82682037 288.78639793 C-411.61909074 288.78590173 -413.4113781 288.79224697 -415.20359612 288.80595398 C-417.65184077 288.82363003 -420.09882807 288.81658866 -422.54707336 288.80342102 C-423.25515729 288.81439027 -423.96324121 288.82535951 -424.69278222 288.83666116 C-430.44519217 288.76204064 -433.97207984 286.67432214 -437.9921875 282.68286133 C-443.11860432 276.13339235 -443.21187562 270.52613343 -442.34765625 262.31567383 C-441.16917128 256.97697927 -439.46051957 251.87126525 -437.67578125 246.71411133 C-437.19028837 245.26132192 -436.70666381 243.80790699 -436.22479248 242.35391235 C-434.96241394 238.56127615 -433.67533458 234.77750433 -432.38244629 230.99517822 C-431.07965548 227.16958541 -429.80058453 223.33608839 -428.51953125 219.50317383 C-426.21624775 212.62202314 -423.89162803 205.7484113 -421.55187988 198.87957764 C-420.07530756 194.50965699 -418.64222895 190.12601943 -417.22283936 185.73721313 C-414.90855012 179.33381902 -410.45032096 174.36700618 -404.34765625 171.31567383 C-402.97217469 171.23258745 -401.59279829 171.20831367 -400.21484375 171.21801758 C-399.40917969 171.22124023 -398.60351562 171.22446289 -397.7734375 171.2277832 C-396.93167969 171.23616211 -396.08992188 171.24454102 -395.22265625 171.25317383 C-394.37316406 171.25768555 -393.52367187 171.26219727 -392.6484375 171.2668457 C-390.54814716 171.27864509 -388.44789295 171.29658077 -386.34765625 171.31567383 C-385.95235718 169.39742798 -385.95235718 169.39742798 -385.54907227 167.44042969 C-384.39985448 162.27968325 -382.81707296 157.32444106 -381.125 152.31958008 C-380.81945694 151.40482407 -380.51391388 150.49006805 -380.19911194 149.54759216 C-379.55827843 147.63176774 -378.91530078 145.7166593 -378.27026367 143.80224609 C-377.28025551 140.86362708 -376.29680583 137.92287547 -375.31445312 134.98168945 C-374.68917851 133.11502686 -374.06354056 131.24848593 -373.4375 129.38208008 C-373.14270248 128.50193741 -372.84790497 127.62179474 -372.54417419 126.71498108 C-372.27041458 125.90330978 -371.99665497 125.09163849 -371.71459961 124.25537109 C-371.3539164 123.18356346 -371.3539164 123.18356346 -370.98594666 122.09010315 C-370.34765625 120.31567383 -370.34765625 120.31567383 -369.34765625 118.31567383 C-370.20037109 118.20352539 -370.20037109 118.20352539 -371.0703125 118.08911133 C-377.233845 117.03956155 -381.26860093 115.12431628 -385.34765625 110.31567383 C-388.62076704 104.614126 -389.24202065 99.24520704 -387.79794312 92.90042114 C-387.00185124 90.16388182 -386.13348149 87.46152631 -385.234375 84.75708008 C-384.9087709 83.74683273 -384.58316681 82.73658539 -384.24769592 81.69572449 C-383.18839592 78.41932719 -382.11236842 75.14872127 -381.03515625 71.87817383 C-380.30096812 69.62419913 -379.56757391 67.36996568 -378.83496094 65.11547852 C-377.37095041 60.61813814 -375.89943958 56.12335959 -374.42138672 51.63061523 C-372.8527671 46.861396 -371.29958675 42.08749335 -369.75813293 37.30943298 C-368.77140121 34.25476615 -367.77647013 31.20282779 -366.7784729 28.15182495 C-366.32904413 26.7746901 -365.88219216 25.39671131 -365.43807983 24.01785278 C-364.82839561 22.1298219 -364.20553451 20.24606128 -363.58203125 18.36254883 C-363.24397461 17.3296875 -362.90591797 16.29682617 -362.55761719 15.23266602 C-360.05013361 9.18758657 -357.01661025 5.57230697 -351.34765625 2.31567383 C-348.60919911 1.40285478 -347.00782428 1.18830231 -344.19022083 1.18145275 C-343.33923276 1.17699491 -342.48824468 1.17253706 -341.61146909 1.16794413 C-340.67627319 1.1681285 -339.74107729 1.16831286 -338.77754211 1.16850281 C-337.28758383 1.16298778 -337.28758383 1.16298778 -335.76752537 1.15736133 C-332.42354365 1.14630715 -329.07959298 1.1424777 -325.7355957 1.13867188 C-323.34422201 1.13240854 -320.9528493 1.12576186 -318.56147766 1.11875916 C-311.37390331 1.09951959 -304.18632837 1.08892905 -296.99873546 1.08003137 C-293.61319705 1.07564736 -290.2276602 1.07028082 -286.84212303 1.0650425 C-275.58635565 1.04803045 -264.33058924 1.03353669 -253.07481098 1.02629375 C-250.15412202 1.02438389 -247.23343307 1.02246355 -244.31274414 1.02050781 C-243.22387162 1.0197822 -243.22387162 1.0197822 -242.11300167 1.01904193 C-230.35593655 1.01074317 -218.59897322 0.98540879 -206.84195254 0.95292713 C-194.7687644 0.9198442 -182.69562797 0.90184386 -170.62239426 0.89864951 C-163.844734 0.89648551 -157.06722216 0.88775304 -150.28960609 0.86218834 C-143.9128554 0.83893542 -137.53637184 0.83466341 -131.15958977 0.84494972 C-128.81989276 0.84544586 -126.48018272 0.83910253 -124.14052582 0.82539368 C-120.94425935 0.80771449 -117.74895562 0.81476213 -114.5526886 0.82792664 C-113.16662516 0.81147277 -113.16662516 0.81147277 -111.75256044 0.7946865 C-105.78935877 0.85390873 -101.35195492 1.9922555 -96.34765625 5.31567383 C-94.19389393 7.52328021 -92.98146485 9.66073485 -91.34765625 12.31567383 C-87.39224813 11.76020756 -83.69916551 10.86457209 -79.89477539 9.65283203 C-72.4854844 7.30147564 -65.05612366 5.52466982 -57.41015625 4.12817383 C-56.57871094 3.97372803 -55.74726563 3.81928223 -54.890625 3.66015625 C-52.04872437 3.16266168 -49.20267021 2.73154075 -46.34765625 2.31567383 C-45.1767041 2.13544678 -44.00575195 1.95521973 -42.79931641 1.76953125 C-28.60809407 -0.21573466 -14.29798366 -0.02448165 0 0 Z M-117.34765625 51.31567383 C-116.05498035 44.73477832 -114.19990477 38.44174465 -112.11254883 32.07739258 C-110.82776458 28.10172345 -110.04234346 24.4837971 -109.34765625 20.31567383 C-186.89765625 20.31567383 -264.44765625 20.31567383 -344.34765625 20.31567383 C-361.14317462 59.13064719 -361.14317462 59.13064719 -369.34765625 99.31567383 C-360.76765625 99.31567383 -352.18765625 99.31567383 -343.34765625 99.31567383 C-353.24765625 129.01567383 -363.14765625 158.71567383 -373.34765625 189.31567383 C-385.72265625 189.81067383 -385.72265625 189.81067383 -398.34765625 190.31567383 C-401.62546867 198.44155321 -401.62546867 198.44155321 -404.34082031 206.65917969 C-406.26971085 213.0846832 -408.34315359 219.45288293 -410.45703125 225.81958008 C-411.21903016 228.12873244 -411.98074084 230.43797993 -412.7421875 232.74731445 C-413.92671494 236.33622999 -415.11304412 239.9245087 -416.30419922 243.51123047 C-417.46468777 247.00809664 -418.61773604 250.50734249 -419.76953125 254.00708008 C-420.12883728 255.08308975 -420.48814331 256.15909943 -420.8583374 257.26771545 C-421.18577942 258.26653244 -421.51322144 259.26534943 -421.85058594 260.29443359 C-422.14052429 261.1701149 -422.43046265 262.0457962 -422.72918701 262.94801331 C-423.51614633 265.55284675 -423.51614633 265.55284675 -423.34765625 269.31567383 C-365.59765625 269.31567383 -307.84765625 269.31567383 -248.34765625 269.31567383 C-240.27592895 243.33318857 -240.27592895 243.33318857 -232.27197266 217.32983398 C-231.35770526 214.34844325 -230.43672987 211.36917669 -229.515625 208.38989258 C-228.95924363 206.5736063 -228.40323269 204.75720649 -227.84765625 202.94067383 C-227.59218018 202.12010498 -227.3367041 201.29953613 -227.07348633 200.45410156 C-225.99233622 196.8944766 -225.34765625 194.06789401 -225.34765625 190.31567383 C-233.92765625 189.98567383 -242.50765625 189.65567383 -251.34765625 189.31567383 C-250.01432292 185.31567383 -248.68098958 181.31567383 -247.34765625 177.31567383 C-223.91765625 177.31567383 -200.48765625 177.31567383 -176.34765625 177.31567383 C-177.66765625 184.57567383 -178.98765625 191.83567383 -180.34765625 199.31567383 C-180.65264889 203.31419935 -180.89424346 206.92835677 -180.78515625 210.87817383 C-180.76976807 211.78744629 -180.75437988 212.69671875 -180.73852539 213.63354492 C-180.32030598 228.25949838 -176.12073473 240.79503838 -166.0546875 251.73754883 C-153.66713595 263.18965599 -138.22102003 267.92106006 -122.34765625 272.31567383 C-122.33347656 273.25282227 -122.31929688 274.1899707 -122.3046875 275.15551758 C-121.78077902 292.74641061 -118.88103646 311.29875734 -111.34765625 327.31567383 C-110.90808594 328.31083008 -110.46851563 329.30598633 -110.015625 330.33129883 C-93.95208498 364.84799639 -56.40688298 385.27150451 -22.21484375 397.87036133 C-4.73010006 403.74727935 14.30176865 407.41522272 32.76953125 407.51879883 C33.61547852 407.5259491 34.46142578 407.53309937 35.33300781 407.54046631 C84.05784362 407.8578593 130.41006707 399.29725612 175.44873047 380.23925781 C180.7836098 378.00328966 186.16991838 375.89076457 191.55859375 373.78833008 C198.78312225 370.95348792 205.76374386 367.8957345 212.65234375 364.31567383 C214.40949491 363.43406519 216.16680775 362.55276941 217.92626953 361.67578125 C219.26527881 361.0082618 220.60347154 360.33910233 221.94091797 359.66845703 C225.8732389 357.69688636 229.81398658 355.74435304 233.765625 353.81176758 C246.43323098 347.58942665 258.73631847 340.86683985 270.97607422 333.84399414 C275.67559537 331.16026832 280.41039019 328.54077093 285.14624023 325.921875 C288.87594597 323.85889336 292.59851078 321.78487814 296.30859375 319.68676758 C304.93927873 314.81866121 313.54629716 310.2466994 322.65234375 306.31567383 C323.85117188 305.7665332 323.85117188 305.7665332 325.07421875 305.20629883 C346.57034122 295.82879574 369.66419996 295.74056218 391.65234375 303.31567383 C392.40854004 303.57268066 393.16473633 303.8296875 393.94384766 304.09448242 C409.51915836 309.50317591 423.97974616 317.13170439 437.65234375 326.31567383 C439.69817519 321.18226855 436.80425531 316.58678542 434.7734375 311.84301758 C425.91560635 292.36789344 413.50408748 274.54354513 399.65234375 258.31567383 C399.08386719 257.61313477 398.51539063 256.9105957 397.9296875 256.18676758 C393.15631519 250.42035327 387.57389375 245.86626525 381.65234375 241.31567383 C380.88277344 240.71883789 380.11320313 240.12200195 379.3203125 239.50708008 C363.20252617 227.6178101 344.98176439 220.83706027 325.65234375 216.31567383 C324.62971436 216.04207031 324.62971436 216.04207031 323.58642578 215.76293945 C318.80664375 214.48712873 314.64863566 214.12133239 309.74414062 214.25756836 C309.05384766 214.27674316 308.36355469 214.29591797 307.65234375 214.31567383 C307.48109985 213.71901413 307.30985596 213.12235443 307.13342285 212.50761414 C305.25123909 206.0780797 303.08149444 199.80022988 300.74609375 193.52270508 C300.38012085 192.5324382 300.01414795 191.54217133 299.63708496 190.52189636 C298.86873298 188.44488219 298.09889727 186.36841635 297.32763672 184.29248047 C296.15218775 181.12775383 294.98198779 177.96112317 293.8125 174.79418945 C293.06150642 172.7660804 292.31021457 170.73808176 291.55859375 168.71020508 C291.21163452 167.77151077 290.86467529 166.83281647 290.50720215 165.86567688 C289.07954756 162.02849622 287.64260923 158.25047098 285.90820312 154.54101562 C284.53571697 151.01614887 283.96872772 149.04241417 284.65234375 145.31567383 C286.47964986 142.97486776 288.17296104 141.11595259 290.3125 139.10473633 C290.8951915 138.53290619 291.477883 137.96107605 292.07823181 137.37191772 C293.94344239 135.54681736 295.82801522 133.7433916 297.71484375 131.94067383 C300.16901002 129.56293046 302.61557559 127.17742821 305.0625 124.79223633 C305.65471344 124.21797913 306.24692688 123.64372192 306.85708618 123.05206299 C309.8281148 120.15801763 312.69869796 117.24263519 315.3984375 114.08911133 C315.92002441 113.49195312 316.44161133 112.89479492 316.97900391 112.27954102 C318.27343233 110.76037232 319.52400969 109.20377862 320.75537109 107.63305664 C324.2399054 103.57430533 326.80673184 100.71607602 332.14990234 99.55688477 C336.08059114 99.39607696 339.91201017 99.47513372 343.83984375 99.69067383 C346.48322533 99.83022031 349.10915894 99.91100549 351.7578125 99.96411133 C353.49260864 100.05958252 353.49260864 100.05958252 355.26245117 100.15698242 C359.04293956 99.21873518 359.54543781 98.6155648 361.91293335 95.72047424 C365.38243604 91.6027969 369.05149875 87.78749531 372.87280273 83.99755859 C373.55657486 83.31524673 374.24034698 82.63293488 374.94483948 81.9299469 C376.41416133 80.46440095 377.88463614 79.00001018 379.35616875 77.53668404 C381.68207539 75.22362804 384.00476704 72.90738589 386.32667542 70.59031677 C391.24491949 65.683444 396.16710782 60.78053965 401.08984375 55.87817383 C406.81975357 50.1718456 412.54804585 44.46391285 418.27217293 38.75178337 C420.56585404 36.46460659 422.86251268 34.18044805 425.1592865 31.89637756 C426.55221928 30.50707397 427.94501372 29.11763167 429.33764648 27.72802734 C429.98120087 27.08963928 430.62475525 26.45125122 431.28781128 25.79351807 C432.76175148 24.31975737 434.21018682 22.82055046 435.65234375 21.31567383 C435.65234375 20.98567383 435.65234375 20.65567383 435.65234375 20.31567383 C413.02598093 19.89468459 390.40026596 19.57753691 367.7707777 19.38305473 C357.2625994 19.2903397 346.75685785 19.16401714 336.25024414 18.95776367 C327.08950751 18.77801703 317.9305354 18.66215239 308.76808435 18.62208092 C303.91805342 18.59866169 299.0730687 18.54390055 294.22466087 18.41253281 C275.41002273 16.95226576 275.41002273 16.95226576 257.97885895 22.08006668 C254.0127799 26.22327969 251.94168929 30.76245492 250.32835197 36.21296692 C249.41175599 39.06401612 247.91513116 41.35016886 246.20703125 43.79223633 C245.52253906 44.85571289 245.52253906 44.85571289 244.82421875 45.94067383 C244.39625 46.60067383 243.96828125 47.26067383 243.52734375 47.94067383 C243.06070313 48.6702832 242.5940625 49.39989258 242.11328125 50.15161133 C240.98810556 51.89170861 239.82464454 53.60696972 238.65234375 55.31567383 C238.32234375 55.31567383 237.99234375 55.31567383 237.65234375 55.31567383 C237.32234375 43.76567383 236.99234375 32.21567383 236.65234375 20.31567383 C191.77234375 20.31567383 146.89234375 20.31567383 100.65234375 20.31567383 C102.21210125 27.55928035 102.21210125 27.55928035 104.37890625 34.46411133 C104.68828125 35.32391602 104.99765625 36.1837207 105.31640625 37.06958008 C105.63351562 37.93454102 105.950625 38.79950195 106.27734375 39.69067383 C106.91968364 41.44691266 107.55789976 43.20466684 108.19140625 44.96411133 C108.61220459 46.11145752 108.61220459 46.11145752 109.04150391 47.28198242 C109.65234375 49.31567383 109.65234375 49.31567383 109.65234375 52.31567383 C109.03359375 51.46295898 109.03359375 51.46295898 108.40234375 50.59301758 C95.78804227 33.72702073 78.7826387 26.62756642 58.65234375 22.31567383 C57.70488281 22.09395508 56.75742187 21.87223633 55.78125 21.64379883 C53.07705749 21.07267337 50.3933865 20.67395733 47.65234375 20.31567383 C47.01876953 20.22688965 46.38519531 20.13810547 45.73242188 20.04663086 C-6.9580087 12.97753011 -75.08216954 14.77228378 -117.34765625 51.31567383 Z " fill="#010101" transform="translate(442.34765625,-0.315673828125)"/>
<path d="M0 0 C1.21396957 -0.01252808 2.42793915 -0.02505615 3.67869568 -0.03796387 C81.67089755 -0.68806234 81.67089755 -0.68806234 103.1328125 20.28515625 C112.06247732 30.0316719 113.65686996 40.33758554 113.37890625 53.06640625 C112.29025616 77.26412873 102.51670115 101.1756433 94.94921875 123.9609375 C94.70163818 124.70762695 94.45405762 125.45431641 94.19897461 126.22363281 C84.4227175 155.62698257 84.4227175 155.62698257 78.26171875 167.0234375 C77.83358887 167.82144775 77.40545898 168.61945801 76.96435547 169.44165039 C66.74672271 188.07347169 51.42043625 204.78360285 31.07421875 212.2734375 C20.82336451 213.23398607 10.82498365 208.63858353 2.82421875 202.5859375 C-5.7872238 195.20667886 -12.95327287 186.61067078 -14.30078125 175.05859375 C-14.82227397 160.57087405 -9.17393459 146.53889425 -4.71679688 132.93798828 C-3.922527 130.51350399 -3.1346398 128.08701432 -2.34765625 125.66015625 C-0.24709412 119.2043504 1.85719313 112.76172333 4.2265625 106.3984375 C6.33812699 100.69121151 8.01400623 94.88597983 9.63671875 89.0234375 C9.939729 87.92878174 10.24273926 86.83412598 10.55493164 85.70629883 C17.09198571 65.74289978 17.09198571 65.74289978 14.32421875 46.0859375 C8.8136225 41.64684608 0.77040045 42.85301513 -5.92578125 43.2734375 C-13.96859322 45.01057546 -18.14705848 51.36109359 -22.41186523 57.83349609 C-24.64783428 61.4371527 -26.45717597 65.15057006 -28.17578125 69.0234375 C-28.55001221 69.86197266 -28.92424316 70.70050781 -29.30981445 71.56445312 C-35.41081242 85.6233293 -40.72656664 100.4002767 -44.50390625 115.2578125 C-46.87678709 124.5631289 -48.48504498 130.45967745 -56.80078125 136.09765625 C-84.34992713 155.27874907 -101.34406813 189.54522571 -108.92578125 221.2734375 C-121.40957329 222.40832769 -134.28919728 215.2645888 -143.73828125 207.6484375 C-149.39523232 202.39773067 -154.5336115 193.84640732 -155.08691406 185.98364258 C-155.46217809 161.93838199 -150.34649741 142.00963189 -142.92578125 119.2734375 C-142.68051697 118.52151123 -142.43525269 117.76958496 -142.18255615 116.99487305 C-140.36056481 111.4165378 -138.52271311 105.84356089 -136.67578125 100.2734375 C-136.42579376 99.51784546 -136.17580627 98.76225342 -135.91824341 97.98376465 C-131.67946039 85.19892163 -127.45356399 72.48223954 -121.05078125 60.5859375 C-120.61515869 59.77068604 -120.17953613 58.95543457 -119.73071289 58.11547852 C-106.8212693 34.29785254 -87.03841037 16.75603001 -60.91796875 8.67578125 C-40.97901671 2.82908783 -20.75356408 0.19603163 0 0 Z " fill="#000000" transform="translate(430.92578125,33.7265625)"/>
<path d="M0 0 C33 0 66 0 100 0 C101.4375 25.1875 101.4375 25.1875 101.88452148 33.05541992 C102.0049452 35.15544196 102.12546325 37.25545858 102.24609375 39.35546875 C102.33558289 40.93986755 102.33558289 40.93986755 102.42687988 42.55627441 C102.85873253 50.04544068 103.4008321 57.52240928 104 65 C104.49833847 64.24309624 104.49833847 64.24309624 105.00674438 63.47090149 C108.54414077 58.09837198 112.0823951 52.72640817 115.62109375 47.35473633 C116.93217517 45.3643141 118.24305566 43.3737595 119.55371094 41.38305664 C121.46493236 38.48026066 123.37693802 35.57798243 125.2890625 32.67578125 C125.8511441 31.82172195 126.41322571 30.96766266 126.99234009 30.08772278 C128.21463149 28.23317324 129.46569419 26.39740046 130.73843384 24.57710266 C132.64918685 21.72794425 134.0894447 18.76390585 135.55917358 15.66642761 C142.68913435 1.68643347 142.68913435 1.68643347 149.95621872 -1.15648842 C158.05341961 -2.82660612 166.25369557 -2.48583176 174.46836805 -2.1292727 C178.04556933 -1.99667742 181.62326605 -1.98556238 185.20254517 -1.96073914 C191.95938258 -1.89582842 198.70896158 -1.72407743 205.46262133 -1.51239985 C213.15946941 -1.27647468 220.85669201 -1.16192584 228.55626369 -1.05679572 C244.37502645 -0.83812493 260.18657258 -0.46954818 276 0 C273.99088209 3.60223771 271.8398286 6.40173766 268.91162109 9.29956055 C268.09422455 10.11357834 267.276828 10.92759613 266.43466187 11.76628113 C265.1173558 13.06339775 265.1173558 13.06339775 263.7734375 14.38671875 C262.87001617 15.28493851 261.96659485 16.18315826 261.03579712 17.1085968 C258.64274319 19.48687592 256.24572791 21.86099849 253.84625244 24.23278809 C250.45734768 27.58359315 247.07371719 30.93969568 243.69277954 34.29853821 C241.89373085 36.08529741 240.09201646 37.8693772 238.28744507 39.65055847 C237.47635284 40.45511978 236.66526062 41.25968109 235.82958984 42.08862305 C234.75395279 43.15188057 234.75395279 43.15188057 233.65658569 44.23661804 C231.92516634 45.91094788 231.92516634 45.91094788 231 48 C230.1342334 47.95174072 229.2684668 47.90348145 228.37646484 47.85375977 C211.0335054 46.36073769 211.0335054 46.36073769 195.38671875 51.84375 C192.38892546 54.8718492 189.98605311 58.30034002 187.6015625 61.82128906 C184.6953264 65.77483341 181.09449201 69.04973671 177.5625 72.4375 C173.7693249 76.14530872 170.06943106 79.86505194 166.62109375 83.8984375 C163.99934548 86.94401473 161.24459527 89.76170346 158.34375 92.54296875 C157.5496875 93.30673828 156.755625 94.07050781 155.9375 94.85742188 C154.2902905 96.43203801 152.63374692 97.99693864 150.96875 99.55273438 C150.185 100.31263672 149.40125 101.07253906 148.59375 101.85546875 C147.52157227 102.87096802 147.52157227 102.87096802 146.42773438 103.90698242 C144.72927599 105.92740375 144.72927599 105.92740375 145.19824219 108.52246094 C146.34055633 112.05236469 147.50043422 115.5692452 148.75 119.0625 C149.15424194 120.20174927 149.15424194 120.20174927 149.56665039 121.36401367 C151.07496285 125.56869598 152.6723252 129.70744232 154.4375 133.8125 C157.08026476 139.97328603 159.22555216 146.2829759 161.3984375 152.62036133 C163.40771025 158.43740509 165.61630332 164.07722407 168.15234375 169.6875 C169 172 169 172 169 176 C168.16154541 176.03963867 167.32309082 176.07927734 166.45922852 176.12011719 C141.43119036 177.35573257 117.52797868 180.57607281 93.03417969 186.06933594 C91.91301758 186.31973633 90.79185547 186.57013672 89.63671875 186.828125 C88.64373779 187.0540332 87.65075684 187.27994141 86.62768555 187.51269531 C84 188 84 188 80 188 C79.91435791 187.10692139 79.82871582 186.21384277 79.74047852 185.29370117 C79.4208424 181.97798907 79.09807919 178.66261232 78.77319336 175.34741211 C78.63326694 173.91296362 78.49458531 172.47839313 78.35717773 171.04370117 C78.15936786 168.98062273 77.9570743 166.91802556 77.75390625 164.85546875 C77.57323608 162.99378052 77.57323608 162.99378052 77.38891602 161.09448242 C77.09865418 157.97019728 77.09865418 157.97019728 76 155 C75.64921387 155.48130371 75.29842773 155.96260742 74.93701172 156.45849609 C67.89464638 166.10610316 60.76672487 175.66968396 53.40283203 185.07446289 C48.11185367 191.83581194 42.90624765 198.66009947 37.7109375 205.49511719 C33.10709276 211.55125744 28.47765578 217.58648524 23.8203125 223.6015625 C22.48757408 225.35757407 21.22283005 227.16575492 20 229 C18.08284569 229.36914349 18.08284569 229.36914349 15.69735718 229.36076355 C14.34276146 229.36694954 14.34276146 229.36694954 12.96080017 229.3732605 C11.9674617 229.36247467 10.97412323 229.35168884 9.95068359 229.34057617 C8.90675949 229.34101425 7.86283539 229.34145233 6.78727722 229.34190369 C3.32414278 229.33980756 -0.13851225 229.31643734 -3.6015625 229.29296875 C-5.9976678 229.28737574 -8.39377652 229.28310425 -10.78988647 229.28010559 C-17.10617492 229.26863368 -23.42225745 229.2391462 -29.73846436 229.20599365 C-36.17978123 229.17534335 -42.62113127 229.16161104 -49.0625 229.14648438 C-61.70842135 229.11427885 -74.35419974 229.06362821 -87 229 C-85.6185031 225.79735874 -84.10310458 223.9895824 -81.41723633 221.78613281 C-76.81497156 217.8864017 -72.57347899 213.69991355 -68.32421875 209.421875 C-67.49709381 208.59328979 -66.66996887 207.76470459 -65.81777954 206.91101074 C-64.03467697 205.12412327 -62.25272985 203.33608217 -60.47183228 201.54699707 C-57.64857684 198.71089979 -54.82220737 195.87792769 -51.99487305 193.04589844 C-45.9935951 187.03357523 -39.99656989 181.01701839 -34 175 C-27.52353379 168.50144882 -21.04631371 162.00365948 -14.56417942 155.51076126 C-11.31101843 152.25186221 -8.06178716 148.98907563 -4.81323242 145.72558594 C-3.1008979 144.00961673 -1.3884216 142.29378897 0.32421875 140.578125 C1.0870517 139.81012573 1.84988464 139.04212646 2.63583374 138.25085449 C6.7286699 134.1576193 10.90965403 130.23624915 15.30495453 126.46864223 C17.54023981 124.53191875 19.63556932 122.47740443 21.71875 120.37890625 C22.50507812 119.58935547 23.29140625 118.79980469 24.1015625 117.98632812 C24.89304687 117.18646484 25.68453125 116.38660156 26.5 115.5625 C27.73363281 114.32209961 27.73363281 114.32209961 28.9921875 113.05664062 C30.99712219 111.04004934 32.9992062 109.02069713 35 107 C33.14478192 99.93326613 31.08077683 92.99224509 28.69921875 86.0859375 C28.38597153 85.1686235 28.0727243 84.25130951 27.74998474 83.30619812 C27.07940927 81.3440036 26.4072787 79.38233994 25.73370361 77.4211731 C24.67135722 74.32799798 23.61326669 71.23339453 22.55615234 68.13842773 C19.34662149 58.74657941 16.1241797 49.35917355 12.89820862 39.97296143 C11.61032781 36.22422485 10.32466771 32.47472848 9.03921509 28.72515869 C8.14307124 26.11513263 7.24293277 23.50650829 6.3425293 20.89794922 C5.79328483 19.29791066 5.2442034 17.69781613 4.6953125 16.09765625 C4.45018417 15.39130539 4.20505585 14.68495453 3.95249939 13.9571991 C2.36675577 9.31743072 1.19830208 4.79320833 0 0 Z " fill="#000000" transform="translate(564,36)"/>
<path d="M0 0 C67.32 0 134.64 0 204 0 C200.53732176 13.85071296 200.53732176 13.85071296 198.5546875 20.57421875 C198.33934357 21.30953323 198.12399963 22.04484772 197.90213013 22.80244446 C197.45468542 24.32755616 197.00602766 25.85231249 196.55615234 27.37670898 C195.8652364 29.72062276 195.18050423 32.06628881 194.49609375 34.41210938 C194.05765866 35.90375375 193.61887018 37.39529431 193.1796875 38.88671875 C192.97552216 39.58762131 192.77135681 40.28852386 192.56100464 41.01066589 C191.11472415 45.88527585 191.11472415 45.88527585 190 47 C187.2611158 47.09516211 184.54752059 47.12554594 181.80834961 47.11352539 C180.94988937 47.11367142 180.09142914 47.11381744 179.20695496 47.1139679 C176.35539262 47.11326847 173.50389475 47.1054747 170.65234375 47.09765625 C168.68079158 47.09579218 166.70923895 47.09436822 164.73768616 47.09336853 C159.53773733 47.08954251 154.33781625 47.07971152 149.13787842 47.06866455 C143.83606339 47.05845222 138.5342439 47.05387129 133.23242188 47.04882812 C122.82160237 47.03808933 112.41080349 47.02101191 102 47 C101.01 50.3 100.02 53.6 99 57 C95.535 66.9 95.535 66.9 92 77 C115.1 77 138.2 77 162 77 C163 79 163 79 162.55752563 80.94215393 C162.29184784 81.73411667 162.02617004 82.52607941 161.75244141 83.34204102 C161.45528229 84.2395961 161.15812317 85.13715118 160.85195923 86.06190491 C160.52182831 87.03276535 160.19169739 88.00362579 159.8515625 89.00390625 C159.35358658 90.49433693 159.35358658 90.49433693 158.84555054 92.01487732 C158.14111013 94.1184396 157.43304768 96.22079182 156.72167969 98.32202148 C155.62926149 101.54990811 154.54806683 104.78138386 153.46875 108.01367188 C152.78451068 110.0523038 152.09963625 112.09072269 151.4140625 114.12890625 C151.08798004 115.10179092 150.76189758 116.0746756 150.42593384 117.07704163 C150.1224704 117.97144455 149.81900696 118.86584747 149.50634766 119.78735352 C149.23907867 120.57852066 148.97180969 121.36968781 148.69644165 122.18482971 C148 124 148 124 147 125 C144.79205589 125.12406815 142.58015514 125.17802278 140.36889648 125.20532227 C139.67624695 125.21522186 138.98359741 125.22512146 138.2699585 125.23532104 C135.97037221 125.2670203 133.67076523 125.29172651 131.37109375 125.31640625 C129.78067982 125.33696852 128.19027145 125.35796479 126.59986877 125.37937927 C122.40610237 125.43467509 118.21228605 125.4840511 114.01843262 125.53222656 C109.74206072 125.58238691 105.46576166 125.63810144 101.18945312 125.69335938 C92.79303027 125.80103274 84.39654662 125.90245716 76 126 C69.91082567 142.65560308 69.91082567 142.65560308 64 159.375 C63.01 162.22125 62.02 165.0675 61 168 C74.365 168.495 74.365 168.495 88 169 C86.87489901 176.87570696 86.87489901 176.87570696 85.80078125 180.43481445 C85.44536255 181.62558342 85.44536255 181.62558342 85.08276367 182.84040833 C84.82857666 183.67295639 84.57438965 184.50550446 84.3125 185.36328125 C84.04993408 186.23647507 83.78736816 187.10966888 83.5168457 188.00932312 C82.96444991 189.84295088 82.40964002 191.67585294 81.85253906 193.50805664 C80.99786384 196.31952693 80.15065763 199.1331651 79.3046875 201.94726562 C78.76605646 203.73190111 78.22700869 205.51641089 77.6875 207.30078125 C77.30621948 208.56478508 77.30621948 208.56478508 76.91723633 209.85432434 C75.11696869 215.76606263 75.11696869 215.76606263 74 218 C26.81 218 -20.38 218 -69 218 C-67.87504225 209.00033797 -67.87504225 209.00033797 -66.89257812 205.75878906 C-66.67565308 205.03153625 -66.45872803 204.30428345 -66.23522949 203.55499268 C-66.00291626 202.79950134 -65.77060303 202.04401001 -65.53125 201.265625 C-65.29088013 200.46517761 -65.05051025 199.66473022 -64.80285645 198.84002686 C-64.04124965 196.3081571 -63.27092688 193.77904565 -62.5 191.25 C-61.73100969 188.70612035 -60.96380928 186.16170755 -60.19714355 183.61712646 C-59.72145425 182.04062337 -59.24407114 180.4646301 -58.76477051 178.88922119 C-57.767662 175.60431805 -56.83289644 172.33158574 -56 169 C-47.09 168.67 -38.18 168.34 -29 168 C-27.824375 164.143125 -26.64875 160.28625 -25.4375 156.3125 C-22.644708 147.20148572 -19.75673639 138.13274099 -16.7121582 129.10302734 C-14.28767001 121.90081137 -11.94563794 114.67380685 -9.625 107.4375 C-9.24827148 106.26356689 -8.87154297 105.08963379 -8.48339844 103.88012695 C-6.52881648 97.78387037 -4.58072659 91.68557352 -2.63671875 85.5859375 C1.38707779 72.98251721 5.50626609 60.44418622 10 48 C1.75 48 -6.5 48 -15 48 C-16.41978911 45.16042178 -15.33850831 43.42319031 -14.38630676 40.5411377 C-14.00365913 39.42249329 -14.00365913 39.42249329 -13.61328125 38.28125 C-13.22586006 37.12248352 -13.22586006 37.12248352 -12.83061218 35.94030762 C-12.27999293 34.29821535 -11.72574936 32.65733471 -11.16821289 31.01757812 C-10.32621545 28.54035198 -9.49510437 26.05969729 -8.66601562 23.578125 C-8.12825251 21.9789485 -7.58985958 20.37998362 -7.05078125 18.78125 C-6.68331535 17.68689636 -6.68331535 17.68689636 -6.3084259 16.57043457 C-4.39153648 10.94579126 -2.21563435 5.53908588 0 0 Z " fill="#000000" transform="translate(109,36)"/>
<path d="M0 0 C0.83305664 0.00359528 1.66611328 0.00719055 2.52441406 0.01089478 C15.71502983 0.09232419 27.8133708 1.31133289 40.375 5.5625 C41.65294467 5.95282391 42.93156274 6.34095189 44.2109375 6.7265625 C57.45524309 11.02438352 69.52588812 17.88020103 80.375 26.5625 C80.93074707 27.00609863 81.48649414 27.44969727 82.05908203 27.90673828 C90.16156628 34.43429247 97.14316706 41.16933772 103.375 49.5625 C104.45587891 50.99142578 104.45587891 50.99142578 105.55859375 52.44921875 C115.375 65.65183486 115.375 65.65183486 115.375 69.5625 C111.95565175 68.47871291 108.6205892 67.27832929 105.30859375 65.90625 C75.3351476 53.52193201 45.71308355 57.57907225 16.2734375 69.47265625 C10.66440841 71.81858454 5.26605074 74.49686553 -0.1328125 77.28515625 C-30.26542083 92.74479982 -60.29330719 104.37754928 -94.625 99.5625 C-94.625 98.5725 -94.625 97.5825 -94.625 96.5625 C-93.64402344 96.33175781 -92.66304687 96.10101563 -91.65234375 95.86328125 C-68.34812012 90.28717371 -44.95275491 81.89025491 -27.625 64.5625 C-28.3984375 64.83964844 -29.171875 65.11679687 -29.96875 65.40234375 C-31.53109375 65.94568359 -31.53109375 65.94568359 -33.125 66.5 C-34.65640625 67.03947266 -34.65640625 67.03947266 -36.21875 67.58984375 C-56.407599 73.35477884 -81.67760534 69.92846582 -101.625 64.5625 C-101.625 63.9025 -101.625 63.2425 -101.625 62.5625 C-100.63657104 62.28369995 -100.63657104 62.28369995 -99.62817383 61.99926758 C-81.85253778 57.07786774 -81.85253778 57.07786774 -64.625 50.5625 C-63.55306396 50.09505371 -63.55306396 50.09505371 -62.45947266 49.61816406 C-51.71004511 44.88037981 -41.99815051 39.66726249 -32.625 32.5625 C-31.29204636 31.56199394 -29.95877927 30.56190514 -28.625 29.5625 C-29.24431396 29.67843506 -29.86362793 29.79437012 -30.50170898 29.91381836 C-33.35469004 30.44591036 -36.20857752 30.97298173 -39.0625 31.5 C-40.03638672 31.68240234 -41.01027344 31.86480469 -42.01367188 32.05273438 C-53.51023944 34.16748761 -64.52089597 34.69325588 -76.1875 34.625 C-77.68814955 34.6199746 -79.18880072 34.61541353 -80.68945312 34.61132812 C-84.33466977 34.60040576 -87.97982422 34.58319856 -91.625 34.5625 C-91.955 33.9025 -92.285 33.2425 -92.625 32.5625 C-85.671875 29.0859375 -78.71875 25.609375 -71.765625 22.1328125 C-70.63940483 21.56963821 -70.63940483 21.56963821 -69.49043274 20.99508667 C-67.98795674 20.24393505 -66.48534264 19.49305961 -64.98258972 18.74246216 C-61.6717183 17.08838999 -58.36320173 15.43022939 -55.05981445 13.76123047 C-36.95534358 4.62549639 -20.1927879 -0.21645904 0 0 Z " fill="#020202" transform="translate(737.625,226.4375)"/>
<path d="M0 0 C2.48405436 2.23564893 2.93906627 3.64201436 3.5 6.9375 C3 10 3 10 0.9375 12.9375 C-2 15 -2 15 -5.625 15 C-10.61768902 13.52068474 -10.61768902 13.52068474 -12 11 C-12.53933732 7.36137217 -12.79616868 4.17529662 -10.6875 1.0625 C-6.90426416 -1.31953738 -4.20020464 -1.13755542 0 0 Z " fill="#DAD9D9" transform="translate(792,123)"/>
<path d="M0 0 C2.48405436 2.23564893 2.93906627 3.64201436 3.5 6.9375 C3 10 3 10 0.9375 12.9375 C-2 15 -2 15 -5.625 15 C-10.61768902 13.52068474 -10.61768902 13.52068474 -12 11 C-12.53933732 7.36137217 -12.79616868 4.17529662 -10.6875 1.0625 C-6.90426416 -1.31953738 -4.20020464 -1.13755542 0 0 Z M-8.1875 2.125 C-10.2884656 3.93320773 -10.2884656 3.93320773 -10.4375 7 C-10.19983855 9.93252851 -10.19983855 9.93252851 -8.875 11.9375 C-6.91444384 13.26649983 -6.91444384 13.26649983 -3.9375 12.875 C-0.70744585 12.25349587 -0.70744585 12.25349587 1 9 C0.91778291 5.92334973 0.91778291 5.92334973 0 3 C-3.35656767 0.76228822 -4.58073704 0.27009333 -8.1875 2.125 Z " fill="#0E0B0C" transform="translate(792,123)"/>
<path d="M0 0 C1.65 0 3.3 0 5 0 C5.82638376 2.89234315 6 4.88742431 6 8 C5.01 7.67 4.02 7.34 3 7 C3 6.34 3 5.68 3 5 C2.34 5 1.68 5 1 5 C0.67 5.99 0.34 6.98 0 8 C0 5.36 0 2.72 0 0 Z " fill="#666666" transform="translate(785,126)"/>
<path d="M0 0 C0.99 0.33 1.98 0.66 3 1 C3.625 3.875 3.625 3.875 4 7 C3.34 7.66 2.68 8.32 2 9 C1.22678118 6.01758453 0.58803797 3.02419525 0 0 Z " fill="#F7F7F7" transform="translate(789,125)"/>
</svg>
