<?xml version="1.0" encoding="UTF-8"?>
<svg xmlns="http://www.w3.org/2000/svg" id="Layer_3" data-name="Layer 3" viewBox="0 0 64 64" width="512" height="512"><path d="M40,47a7.953,7.953,0,0,0-3.74.933l-6.222-7.259L30.811,37H34V35H26v2h2.768l-.632,3H14.544l1.2-4H22V34H15a1,1,0,0,0-.958.713L10.32,47.118a7.987,7.987,0,1,0,1.917.572l1.37-4.566,9.031,9.725a3.97,3.97,0,0,0,1.191,5.5L23.279,60H21v2h6V60H25.388l.342-1.027c.091.006.178.027.27.027a4,4,0,0,0,3.858-3h2.211A8,8,0,1,0,40,47ZM15,55a6,6,0,1,1-6-6,5.861,5.861,0,0,1,.741.051l-1.7,5.662,1.916.574,1.7-5.659A6,6,0,0,1,15,55Zm10.816-3.981a3.941,3.941,0,0,0-1.7.477L15.294,42H27.715ZM26,57a2,2,0,1,1,2-2A2,2,0,0,1,26,57Zm1.773-5.567,1.745-8.292,5.1,5.954A7.981,7.981,0,0,0,32.069,54H29.858A3.994,3.994,0,0,0,27.773,51.433Zm8.149-.821L38.826,54H34.09A5.985,5.985,0,0,1,35.922,50.612ZM40,61a6.006,6.006,0,0,1-5.91-5H41a1,1,0,0,0,.759-1.65L37.6,49.5A6,6,0,1,1,40,61Z"/><path d="M46,1A17,17,0,0,0,32.5,28.332l-1.451,4.351a1,1,0,0,0,1.265,1.265L36.964,32.4A17,17,0,1,0,46,1ZM44,32.861v-8.37a1,1,0,0,0-.674-.945A7.647,7.647,0,0,1,42,9.539v6.543a1,1,0,0,0,.3.717l3,2.918a1,1,0,0,0,1.394,0l3-2.918a1,1,0,0,0,.3-.717V9.539a7.647,7.647,0,0,1-1.326,14.007,1,1,0,0,0-.674.945v8.36a13.961,13.961,0,0,1-4,.01Zm6-.419V25.177a9.762,9.762,0,0,0,6-8.931,9.784,9.784,0,0,0-6.674-9.191A1,1,0,0,0,48,8v7.66l-2,1.945L44,15.66V8a1,1,0,0,0-1.326-.945A9.784,9.784,0,0,0,36,16.246a9.762,9.762,0,0,0,6,8.931V32.45a14.953,14.953,0,0,1-4.339-1.982,1,1,0,0,0-.557-.17.987.987,0,0,0-.316.052l-3.207,1.068.989-2.967a1,1,0,0,0-.175-.95A15.006,15.006,0,1,1,50,32.442Z"/></svg>
